<svg width="20" height="20" viewBox="0 0 20 20" fill="none" xmlns="http://www.w3.org/2000/svg">
<path d="M8.5 17C3.8 17 0 13.2 0 8.5C0 3.8 3.8 0 8.5 0C13.2 0 17 3.8 17 8.5C17 13.2 13.2 17 8.5 17ZM8.5 2C4.9 2 2 4.9 2 8.5C2 12.1 4.9 15 8.5 15C12.1 15 15 12.1 15 8.5C15 4.9 12.1 2 8.5 2Z" fill="#BDC5DF"/>
<path d="M19 20C18.7 20 18.5 19.9 18.3 19.7L13.3 14.7C12.9 14.3 12.9 13.7 13.3 13.3C13.7 12.9 14.3 12.9 14.7 13.3L19.7 18.3C20.1 18.7 20.1 19.3 19.7 19.7C19.5 19.9 19.3 20 19 20Z" fill="#BDC5DF"/>
</svg>
