<svg width="104" height="130" viewBox="0 0 104 130" fill="none" xmlns="http://www.w3.org/2000/svg">
<g clip-path="url(#clip0)">
<path d="M38.9 125.8C36.6 125.5 35 123.4 35.3 121L39 95.2998L47.4 96.3998L43.7 122.2C43.3 124.5 41.2 126.1 38.9 125.8Z" fill="#FCBAA4"/>
<path d="M52 70.7002C46 69.9002 40.5 74.1002 39.7 80.1002L37.6 95.2002L48.4 96.7002L52 70.7002Z" fill="#262D3B"/>
<path d="M48.8957 93.7209L37.104 92.1191L36.606 95.7855L48.3977 97.3872L48.8957 93.7209Z" fill="white"/>
<path d="M48.8791 93.7038L37.0873 92.1021L37.02 92.5975L48.8118 94.1992L48.8791 93.7038Z" fill="#F6F5F9"/>
<path d="M91.5 70.6001L83.3 68.6001C79.2 67.6001 75 67.1001 70.8 67.1001C66.6 67.1001 62.3 67.6001 58.2 68.6001L50 70.6001V130H91.5V96.7001H102.4V81.5001C102.4 75.5001 97.5 70.6001 91.5 70.6001Z" fill="#111A2C"/>
<path d="M91.5 70.6001C97.5 70.6001 102.4 75.5001 102.4 81.5001V96.7001H91.5V70.6001Z" fill="#262D3B"/>
<path d="M23 117.5C23.6 117 24.5 117.1 25 117.8L27.5 121.1L25.2 122.8L22.7 119.5C22.2 118.8 22.3 117.9 23 117.5Z" fill="#FCAD92"/>
<path d="M73.2 74.3999H68.5V92.8999H73.2V74.3999Z" fill="white"/>
<path d="M68.5 78.1999L70.8 76.7999L73.2 78.1999V74.3999H68.5V78.1999Z" fill="#F6F5F9"/>
<path d="M78.5 65.5H70.8H63.1C60.1 65.5 57.9 68.3 58.6 71.2L60.8 80.9L70.8 74.7L80.8 80.9L83 71.2C83.7 68.3 81.5 65.5 78.5 65.5Z" fill="white"/>
<path d="M83.8 10.7998H58C52.8 10.7998 48.7 14.9998 48.7 20.0998V35.5998H93.2V20.0998C93.2 14.8998 89 10.7998 83.8 10.7998Z" fill="#542F10"/>
<path d="M74.8 0H49.9C49.4 0 49 0.4 49 0.9C49 13.6 59.3 23.9 72 23.9H88.5V13.7C88.5 6.1 82.4 0 74.8 0Z" fill="#603813"/>
<path d="M83 2.7002C84.3 4.8002 85 7.2002 85 9.8002C85 15.5002 80.4 20.0002 74.7 20.0002H68.4C62.6 20.0002 57.3 17.8002 53.2 14.3002C57.4 20.1002 64.2 23.9002 71.9 23.9002H88.4V13.7002C88.5 9.2002 86.4 5.2002 83 2.7002Z" fill="#542F10"/>
<path d="M68.9 20.0999C68.9 11.1999 61.6 3.8999 52.7 3.8999H56.4C65.3 3.8999 72.6 11.1999 72.6 20.0999H68.9Z" fill="#542F10"/>
<path d="M81.4 21.5999C81.4 12.6999 74.1 5.3999 65.2 5.3999H68.9C77.8 5.3999 85.1 12.6999 85.1 21.5999H81.4Z" fill="#542F10"/>
<path d="M64 18.8C55 18.8 47.8 8.3 47.8 3.5V6.3C47.8 15.2 55.1 22.5 64 22.5V18.8Z" fill="#603813"/>
<path d="M70.8 74.7001C66.9 74.7001 63.7 71.5001 63.7 67.6001V54.1001H77.8V67.7001C77.9 71.5001 74.7 74.7001 70.8 74.7001Z" fill="#F99678"/>
<path d="M75.5 61.3999H66.4C58.4 61.3999 51.9 54.8999 51.9 46.8999V25.7999C51.9 21.1999 55.7 17.3999 60.3 17.3999L66.7 18.8999C69.5 19.4999 72.4 19.4999 75.2 18.8999L81.6 17.3999C86.2 17.3999 90 21.1999 90 25.7999V46.8999C89.9 54.8999 83.4 61.3999 75.5 61.3999Z" fill="#FCBAA4"/>
<path d="M75.5 59.8999H66.1H63.7V62.6999C65.3 62.8999 66.9 63.0999 68.5 63.0999H73.1C74.7 63.0999 76.3 62.9999 77.9 62.6999V59.8999H75.5Z" fill="#F98C6B"/>
<path d="M87.5 32.7998H92C93.7 32.7998 95.2 34.1998 95.2 35.9998V41.1998C95.2 42.8998 93.8 44.3998 92 44.3998H87.4V32.7998H87.5Z" fill="#FCBAA4"/>
<path d="M54.4 44.2998H49.8C48.1 44.2998 46.6 42.8998 46.6 41.0998V35.9998C46.6 34.2998 48 32.7998 49.8 32.7998H54.4V44.2998Z" fill="#FCBAA4"/>
<path d="M80.4 37.9C81.8912 37.9 83.1 36.6912 83.1 35.2C83.1 33.7088 81.8912 32.5 80.4 32.5C78.9088 32.5 77.7 33.7088 77.7 35.2C77.7 36.6912 78.9088 37.9 80.4 37.9Z" fill="black"/>
<path d="M79.2 33.2002C79.1 34.0002 79.5 34.8002 80.3 35.4002C81.1 35.9002 82 36.0002 82.7 35.7002C82.4 36.6002 81.6 37.2002 80.6 37.2002C79.4 37.2002 78.4 36.2002 78.4 35.0002C78.3 34.2002 78.7 33.6002 79.2 33.2002Z" fill="#242424"/>
<path d="M61.3 37.9C62.7911 37.9 64 36.6912 64 35.2C64 33.7088 62.7911 32.5 61.3 32.5C59.8088 32.5 58.6 33.7088 58.6 35.2C58.6 36.6912 59.8088 37.9 61.3 37.9Z" fill="black"/>
<path d="M70.9 45.6998C70 45.6998 69 45.5998 68.1 45.2998C67.6 45.1998 67.4 44.6998 67.6 44.1998C67.8 43.7998 68.2 43.5998 68.6 43.6998C70.1 44.1998 71.8 44.1998 73.3 43.6998C73.7 43.5998 74.1 43.7998 74.3 44.1998C74.5 44.5998 74.2 45.0998 73.8 45.2998C72.8 45.4998 71.8 45.6998 70.9 45.6998Z" fill="#F99678"/>
<path d="M74.1 59.9001H67.8C59 59.9001 52 52.8001 52 44.1001V46.9001C52 54.9001 58.5 61.4001 66.5 61.4001H75.6C83.6 61.4001 90.1 54.9001 90.1 46.9001V44.1001C89.9 52.8001 82.8 59.9001 74.1 59.9001Z" fill="#FCAD92"/>
<path d="M49.8 42.9002C48.1 42.9002 46.6 41.5002 46.6 39.7002V41.2002C46.6 42.9002 48 44.4002 49.8 44.4002H51.9V42.9002H49.8Z" fill="#FCAD92"/>
<path d="M51.9 41.0999H50.3C49.5 41.0999 48.8 40.3999 48.8 39.5999V35.3999H49C50.6 35.3999 51.9 36.1999 51.9 37.7999V41.0999Z" fill="#FCAD92"/>
<path d="M51.7 41.5001C51.4 41.5001 51.2 41.3001 51.2 41.0001V37.5001C51.2 36.4001 50.3 35.6001 49.3 35.6001H49.2C48.9 35.6001 48.7 35.4001 48.7 35.1001C48.7 34.8001 48.9 34.6001 49.2 34.6001H49.3C50.9 34.6001 52.2 35.9001 52.2 37.5001V41.0001C52.2 41.3001 52 41.5001 51.7 41.5001Z" fill="#F99678"/>
<path d="M92 42.9002C93.7 42.9002 95.2 41.5002 95.2 39.7002V41.2002C95.2 42.9002 93.8 44.4002 92 44.4002H89.9V42.9002H92Z" fill="#FCAD92"/>
<path d="M89.9 41.0999H91.5C92.3 41.0999 93 40.3999 93 39.5999V35.3999H92.9C91.3 35.3999 90 36.1999 90 37.7999V41.0999H89.9Z" fill="#FCAD92"/>
<path d="M90.1 41.5001C90.4 41.5001 90.6 41.3001 90.6 41.0001V37.5001C90.6 36.4001 91.5 35.6001 92.5 35.6001H92.6C92.9 35.6001 93.1 35.4001 93.1 35.1001C93.1 34.8001 92.9 34.6001 92.6 34.6001H92.5C90.9 34.6001 89.6 35.9001 89.6 37.5001V41.0001C89.6 41.3001 89.8 41.5001 90.1 41.5001Z" fill="#F99678"/>
<path d="M63.9 50.1001C64.9 53.0001 67.7 55.1001 70.9 55.1001C74.1 55.1001 76.9 53.0001 77.9 50.1001H63.9Z" fill="white"/>
<path d="M80.4 45.3001C82.4987 45.3001 84.2 44.136 84.2 42.7001C84.2 41.2642 82.4987 40.1001 80.4 40.1001C78.3013 40.1001 76.6 41.2642 76.6 42.7001C76.6 44.136 78.3013 45.3001 80.4 45.3001Z" fill="#F99678"/>
<path d="M61.3 45.3001C63.3987 45.3001 65.1 44.136 65.1 42.7001C65.1 41.2642 63.3987 40.1001 61.3 40.1001C59.2013 40.1001 57.5 41.2642 57.5 42.7001C57.5 44.136 59.2013 45.3001 61.3 45.3001Z" fill="#F99678"/>
<path d="M81.1 34.9C81.4866 34.9 81.8 34.5866 81.8 34.2C81.8 33.8134 81.4866 33.5 81.1 33.5C80.7134 33.5 80.4 33.8134 80.4 34.2C80.4 34.5866 80.7134 34.9 81.1 34.9Z" fill="white"/>
<path d="M60.1 33.2002C60 34.0002 60.4 34.8002 61.2 35.4002C62 35.9002 62.9 36.0002 63.6 35.7002C63.3 36.6002 62.5 37.2002 61.5 37.2002C60.3 37.2002 59.3 36.2002 59.3 35.0002C59.2 34.2002 59.6 33.6002 60.1 33.2002Z" fill="#242424"/>
<path d="M62 34.9C62.3866 34.9 62.7 34.5866 62.7 34.2C62.7 33.8134 62.3866 33.5 62 33.5C61.6134 33.5 61.3 33.8134 61.3 34.2C61.3 34.5866 61.6134 34.9 62 34.9Z" fill="white"/>
<path d="M83.1 30.8998H77.7C76.7 30.8998 75.9 30.0998 75.9 29.0998C75.9 28.0998 76.7 27.2998 77.7 27.2998H83.1C84.1 27.2998 84.9 28.0998 84.9 29.0998C84.9 30.0998 84.1 30.8998 83.1 30.8998Z" fill="#603813"/>
<path d="M83.1 29.4998H77.7C76.9 29.4998 76.3 28.9998 76 28.2998C75.9 28.4998 75.9 28.6998 75.9 28.9998C75.9 29.9998 76.7 30.7998 77.7 30.7998H83.1C84.1 30.7998 84.9 29.9998 84.9 28.9998C84.9 28.7998 84.9 28.4998 84.8 28.2998C84.5 29.0998 83.9 29.4998 83.1 29.4998Z" fill="#542F10"/>
<path d="M58.6 30.8998H64C65 30.8998 65.8 30.0998 65.8 29.0998C65.8 28.0998 65 27.2998 64 27.2998H58.6C57.6 27.2998 56.8 28.0998 56.8 29.0998C56.8 30.0998 57.6 30.8998 58.6 30.8998Z" fill="#603813"/>
<path d="M58.6 29.4998H64C64.8 29.4998 65.4 28.9998 65.7 28.2998C65.8 28.4998 65.8 28.6998 65.8 28.9998C65.8 29.9998 65 30.7998 64 30.7998H58.6C57.6 30.7998 56.8 29.9998 56.8 28.9998C56.8 28.7998 56.8 28.4998 56.9 28.2998C57.2 29.0998 57.8 29.4998 58.6 29.4998Z" fill="#542F10"/>
<path d="M70.9 20.3999C75.9 20.3999 80.4 19.3999 83.9 17.7999C83.1 17.5999 82.3 17.3999 81.5 17.3999L75.1 18.8999C72.3 19.4999 69.4 19.4999 66.6 18.8999L60.2 17.3999C59.4 17.3999 58.6 17.4999 57.8 17.7999C61.4 19.3999 65.9 20.3999 70.9 20.3999Z" fill="#FCAD92"/>
<path d="M79 88.7002H78.6L78.3 89.3002L78 88.7002H77.6L78.1 89.6002V90.2002H78.4V89.6002L79 88.7002Z" fill="white"/>
<path d="M79.6 89.1003L79.8 89.5003H79.4L79.6 89.1003ZM78.8 90.2003H79.1L79.2 89.9003H79.9L80 90.2003H80.4L79.7 88.8003H79.4L78.8 90.2003Z" fill="white"/>
<path d="M81.6 88.7002H81.3L80.9 89.3002L80.6 88.7002H80.2L80.8 89.6002V90.2002H81.1V89.6002L81.6 88.7002Z" fill="white"/>
<path d="M82.2 89.1003L82.4 89.5003H82L82.2 89.1003ZM81.4 90.2003H81.7L81.8 89.9003H82.5L82.6 90.2003H83L82.3 88.8003H82L81.4 90.2003Z" fill="white"/>
<path d="M83.2 90.0003C83.2 90.1003 83.3 90.2003 83.4 90.2003C83.5 90.2003 83.6 90.1003 83.6 90.0003C83.6 89.9003 83.5 89.8003 83.4 89.8003C83.3 89.8003 83.2 89.9003 83.2 90.0003Z" fill="white"/>
<path d="M84.4 89.1002C84.6 89.1002 84.6 89.2002 84.6 89.2002C84.6 89.3002 84.5 89.4002 84.4 89.4002H84.2V89.1002C84.3 89.1002 84.4 89.1002 84.4 89.1002ZM84.2 90.2002V89.7002H84.4L84.6 90.0002C84.7 90.2002 85 90.3002 85.1 90.2002V89.9002C85 89.9002 84.9 89.9002 84.8 89.8002L84.6 89.6002C84.7 89.6002 84.9 89.5002 84.9 89.2002C84.9 88.9002 84.7 88.7002 84.3 88.7002C84.1 88.7002 83.8 88.7002 83.7 88.7002V90.1002L84.2 90.2002Z" fill="white"/>
<path d="M86.6 88.8003H86.3V89.6003C86.3 89.8003 86.2 90.0003 86 90.0003C85.7 90.0003 85.7 89.8003 85.7 89.6003V88.9003H85.4V89.7003C85.4 90.1003 85.7 90.3003 86.1 90.3003C86.4 90.3003 86.7 90.1003 86.7 89.7003L86.6 88.8003Z" fill="white"/>
<path d="M70.8 80.4002C71.4075 80.4002 71.9 79.9077 71.9 79.3002C71.9 78.6927 71.4075 78.2002 70.8 78.2002C70.1925 78.2002 69.7 78.6927 69.7 79.3002C69.7 79.9077 70.1925 80.4002 70.8 80.4002Z" fill="#111A2C"/>
<path d="M71.2 79.5001C71.3105 79.5001 71.4 79.4106 71.4 79.3001C71.4 79.1896 71.3105 79.1001 71.2 79.1001C71.0895 79.1001 71 79.1896 71 79.3001C71 79.4106 71.0895 79.5001 71.2 79.5001Z" fill="white"/>
<path d="M70.4 79.5001C70.5105 79.5001 70.6 79.4106 70.6 79.3001C70.6 79.1896 70.5105 79.1001 70.4 79.1001C70.2896 79.1001 70.2 79.1896 70.2 79.3001C70.2 79.4106 70.2896 79.5001 70.4 79.5001Z" fill="white"/>
<path d="M70.8 85.7C71.4075 85.7 71.9 85.2075 71.9 84.6C71.9 83.9925 71.4075 83.5 70.8 83.5C70.1925 83.5 69.7 83.9925 69.7 84.6C69.7 85.2075 70.1925 85.7 70.8 85.7Z" fill="#111A2C"/>
<path d="M71.2 84.7999C71.3105 84.7999 71.4 84.7104 71.4 84.5999C71.4 84.4894 71.3105 84.3999 71.2 84.3999C71.0895 84.3999 71 84.4894 71 84.5999C71 84.7104 71.0895 84.7999 71.2 84.7999Z" fill="white"/>
<path d="M70.4 84.7999C70.5105 84.7999 70.6 84.7104 70.6 84.5999C70.6 84.4894 70.5105 84.3999 70.4 84.3999C70.2896 84.3999 70.2 84.4894 70.2 84.5999C70.2 84.7104 70.2896 84.7999 70.4 84.7999Z" fill="white"/>
<path d="M70.8 90.9002C71.4075 90.9002 71.9 90.4077 71.9 89.8002C71.9 89.1927 71.4075 88.7002 70.8 88.7002C70.1925 88.7002 69.7 89.1927 69.7 89.8002C69.7 90.4077 70.1925 90.9002 70.8 90.9002Z" fill="#111A2C"/>
<path d="M71.2 90.0001C71.3105 90.0001 71.4 89.9106 71.4 89.8001C71.4 89.6896 71.3105 89.6001 71.2 89.6001C71.0895 89.6001 71 89.6896 71 89.8001C71 89.9106 71.0895 90.0001 71.2 90.0001Z" fill="white"/>
<path d="M70.4 90.0001C70.5105 90.0001 70.6 89.9106 70.6 89.8001C70.6 89.6896 70.5105 89.6001 70.4 89.6001C70.2896 89.6001 70.2 89.6896 70.2 89.8001C70.2 89.9106 70.2896 90.0001 70.4 90.0001Z" fill="white"/>
<path d="M39.6 100.3C39.2 99.8001 38.6 99.6001 38 99.6001C36.1 99.6001 35.1 101.9 36.4 103.3L58.8 128H64.7L39.6 100.3Z" fill="#DDDEE8"/>
<path d="M42 101.5H10.2L9.79999 102.5L34.7 130H66.5L66.9 129L42 101.5Z" fill="#BDC6DF"/>
<path d="M9.79999 102.5H42.9L42 101.5H10.2L9.79999 102.5Z" fill="#9098B1"/>
<path d="M42.4 101.5H40.6L66.5 130L66.9 129L42.4 101.5Z" fill="#9098B1"/>
<path opacity="0.3" d="M40.8 113.3C40.1 110.7 38.6 108 37.2 106.2H34.9L34.7 106C34.6 105.9 34.5 105.7 34.4 105.6L33.9 105L33.1 104.2C32.5 103.4 32.5 102.3 33.1 101.6H10.2L9.79999 102.6L26.1 120.5H44.3C42.6 118.3 41.5 115.9 40.8 113.3Z" fill="#9098B1"/>
<path d="M38 105.1L37.8 104.9C37.7 104.8 37.6 104.6 37.5 104.5L36.2 103.1C35.1 101.7 36.1 99.5 37.9 99.5H32.9H29.6H13.6C11.8 99.5 10.8 101.6 11.9 103C12 103.1 12.1 103.2 12.2 103.3C15.3 107.1 17 111.8 16.9 116.8V117.8H25.3H31.2H41.1V114.3C41.3 111 40.1 107.7 38 105.1Z" fill="white"/>
<path d="M38 105.1L37.8 104.9C37.7 104.8 37.6 104.6 37.5 104.5L36.2 103.1C35.1 101.7 36.1 99.5 37.9 99.5H32.9H29.6H13.6C11.8 99.5 10.8 101.6 11.9 103C12 103.1 12.1 103.2 12.2 103.3C15.3 107.1 17 111.8 16.9 116.8V117.8H25.3H31.2H41.1V114.3C41.3 111 40.1 107.7 38 105.1Z" fill="white"/>
<path d="M25.6 127.1L23.8 125.1C22.4 123.5 22.5 121.1 24 119.7C25.6 118.3 28 118.4 29.4 119.9L31.2 121.9C32.6 123.5 32.5 125.9 31 127.3C29.5 128.8 27 128.7 25.6 127.1Z" fill="#FCBAA4"/>
<path d="M75.9 97.3C76.7 97.1 77.5 97.5 77.7 98.2L79 102.2L76.3 103.1L75 99.1C74.7 98.3 75.2 97.5 75.9 97.3Z" fill="#FCBAA4"/>
<path d="M36 105.1L35.8 104.9C35.7 104.8 35.6 104.6 35.5 104.5C34.8 103.7 33.8 103.3 32.7 103.3H13.1L13.2 103.4C16.3 107.2 18 111.9 17.9 116.9H39.1V114.3C39.2 111 38.1 107.7 36 105.1Z" fill="#F6F5F9"/>
<path d="M79.3 94.8L79.7 96L79.6 96.3C79.6 96.4 79.5 96.6 79.3 96.6L69.6 100.2L59.1 103.8C59 103.9 58.8 103.9 58.7 103.9C57.7 104.2 56.7 104.4 55.6 104.6L55.3 103.9C56.2 103.4 57.1 102.9 58.1 102.4C58.2 102.3 58.4 102.3 58.5 102.2L68.9 98.2L78.6 94.6C78.7 94.5 78.9 94.6 79 94.7L79.3 94.8Z" fill="#F9E011"/>
<path d="M81.1 94.3001L81.4 95.0001C81.4 95.1001 81.4 95.2001 81.3 95.3001L79.8 95.8001L79.4 94.6001L80.9 94.1001C80.9 94.2001 81.1 94.2001 81.1 94.3001Z" fill="#FCC900"/>
<path d="M55.6 104.4L55.3 104.5L54.9 104.6C54.8 104.6 54.7 104.6 54.7 104.5C54.7 104.4 54.7 104.3 54.8 104.3L55.1 104.1L55.4 104L55.6 104.4Z" fill="#999999"/>
<path d="M68.4 97.5001C70.1 95.8001 72.7 95.8001 74.4 97.5001L91.5 114.6V96.7001H100V126C100 129.3 96 131 93.6 128.6L68.4 103.4C66.8 101.9 66.8 99.2001 68.4 97.5001Z" fill="#FCBAA4"/>
<path d="M67 96.1998C67.2 95.3998 68.1 94.9998 68.8 95.2998L72.8 96.5998L71.9 99.2998L67.9 97.9998C67.2 97.6998 66.8 96.8998 67 96.1998Z" fill="#FCBAA4"/>
<path d="M66 98.5001C66.2 97.7001 67.1 97.3001 67.8 97.6001L71.8 98.9001L70.9 101.6L66.9 100.3C66.1 100.1 65.7 99.3001 66 98.5001Z" fill="#FCBAA4"/>
<path d="M103.4 93.7002H91.5V97.4002H103.4V93.7002Z" fill="white"/>
<path d="M103.4 93.7002H91.5V94.2002H103.4V93.7002Z" fill="#F6F5F9"/>
<path d="M9.79999 82.8002H9.99999C12.9 83.5002 15.2 85.7002 15.9 88.7002V88.9002V88.7002C16.6 85.8002 18.8 83.5002 21.8 82.8002H22H21.8C18.9 82.1002 16.6 79.9002 15.9 76.9002V76.7002L15.8 77.1002C15 80.0002 12.7 82.3002 9.79999 82.8002Z" fill="white"/>
<path d="M0 113.8C1.6 114.1 2.7 115.3 3 116.8V116.9V116.8C3.3 115.3 4.5 114.2 5.9 113.9H6H5.9C4.4 113.6 3.3 112.4 3 111V110.9V111.1C2.6 112.4 1.5 113.5 0 113.8Z" fill="white"/>
</g>
<defs>
<clipPath id="clip0">
<rect width="103.4" height="130" fill="white"/>
</clipPath>
</defs>
</svg>
