<?xml version="1.0" encoding="utf-8"?>
<!-- Generator: Adobe Illustrator 22.0.0, SVG Export Plug-In . SVG Version: 6.00 Build 0)  -->
<svg version="1.1" id="Слой_1" xmlns="http://www.w3.org/2000/svg" xmlns:xlink="http://www.w3.org/1999/xlink" x="0px" y="0px"
	 width="120px" height="120px" viewBox="0 0 120 120" style="enable-background:new 0 0 120 120;" xml:space="preserve">
<style type="text/css">
	.st0{fill:#F9E011;}
	.st1{fill:#10192C;}
	.st2{fill:#FFFFFF;}
</style>
<path id="path0_fill" class="st0" d="M60,120c33.1,0,60-26.9,60-60S93.1,0,60,0S0,26.9,0,60S26.9,120,60,120z"/>
<path class="st1" d="M75.7,41.7L75,42.4l0,0L75.7,41.7c-1.5-1.5-2.9-2.9-4.4-4.4L70.6,38l0,0l0.7-0.7L71,37h-0.4H45h-1v1v42v1h1h30
	h1v-1v-9c0-0.6-0.4-1-1-1s-1,0.4-1,1v8H46V39h22v4v1v1h1h1h4v8c0,0.6,0.4,1,1,1s1-0.4,1-1V42.4V42L75.7,41.7z M70,43v-4h0.2
	c1.3,1.3,2.5,2.5,3.8,3.8V43H70z M69,50c0,0.6-0.4,1-1,1H52c-0.6,0-1-0.4-1-1s0.4-1,1-1h16C68.6,49,69,49.4,69,50z M68,57H52
	c-0.6,0-1-0.4-1-1s0.4-1,1-1h16c0.6,0,1,0.4,1,1S68.6,57,68,57z M67,63H52c-0.6,0-1-0.4-1-1s0.4-1,1-1h15c0.6,0,1,0.4,1,1
	S67.6,63,67,63z M60,67c0.6,0,1,0.4,1,1s-0.4,1-1,1h-8c-0.6,0-1-0.4-1-1s0.4-1,1-1H60z"/>
<path class="st2" d="M87.7,72.3L83.4,68c1.4-1.7,2.2-3.8,2.2-6.2c0-5.3-4.3-9.8-9.8-9.8c-5.3,0-9.8,4.3-9.8,9.8
	c0,5.3,4.3,9.8,9.8,9.8c2.3,0,4.5-0.8,6.2-2.2l4.3,4.3c0.4,0.4,1,0.4,1.4,0C88.1,73.3,88.1,72.7,87.7,72.3z M68,61.8
	c0-4.3,3.5-7.8,7.8-7.8c4.3,0,7.8,3.5,7.8,7.8c0,2.1-0.9,4-2.2,5.4c0,0-0.1,0-0.1,0.1c0,0,0,0.1-0.1,0.1c-1.4,1.4-3.3,2.2-5.4,2.2
	C71.5,69.6,68,66.1,68,61.8z"/>
</svg>
