<svg width="320" height="570" viewBox="0 0 320 570" fill="none" xmlns="http://www.w3.org/2000/svg">
<rect width="320" height="570" fill="#283142"/>
<mask id="mask0" mask-type="alpha" maskUnits="userSpaceOnUse" x="-151" y="0" width="602" height="570">
<rect x="-151" width="602" height="570" fill="#283142"/>
</mask>
<g mask="url(#mask0)">
<path d="M458.97 192.686C458.97 192.686 468.449 184.802 468.449 197.121V676.411C468.449 676.411 468.449 688.73 456.138 688.73H-156.138C-156.138 688.73 -168.449 688.73 -168.449 676.411V179.919C-168.449 179.919 -168.449 167.6 -157.123 172.446L-93.5562 199.712C-93.5562 199.712 -82.2299 204.557 -71.7244 198.151L28.2835 137.05C28.2835 137.05 38.789 130.644 49.787 136.187L239.543 244.959C239.543 244.959 250.541 250.503 261.745 245.452L284.849 235.022C284.849 235.022 296.093 229.971 307.419 234.735L363.107 266.788C363.107 266.788 374.474 271.552 383.954 263.668L458.97 192.686Z" fill="#10192C" fill-opacity="0.5"/>
</g>
<g clip-path="url(#clip0)">
<g style="mix-blend-mode:multiply">
<path d="M227.417 567.691L169.194 613.595C159.76 621.033 165.019 636.2 177.033 636.2H450.096C462.185 636.2 467.399 620.875 457.817 613.503L351.988 532.078C347.353 528.512 340.879 528.584 336.325 532.252L276.385 580.525C271.903 584.135 265.55 584.268 260.921 580.849L242.779 567.45C238.189 564.06 231.898 564.159 227.417 567.691Z" fill="#DBE1F0" fill-opacity="0.2"/>
</g>
<path d="M64.3241 528.238L19.8654 494.055C15.2417 490.501 8.78772 490.564 4.23466 494.209L-120.837 594.338C-130.179 601.816 -124.891 616.884 -112.924 616.884H362.428C374.348 616.884 379.664 601.913 370.413 594.396L283.506 523.773C278.817 519.963 272.09 519.996 267.439 523.852L235.894 550.006C231.311 553.805 224.701 553.899 220.012 550.232L142.677 489.752C138.023 486.112 131.47 486.175 126.887 489.904L80.0323 528.022C75.4792 531.726 68.9773 531.815 64.3241 528.238Z" fill="#DBE1F0" fill-opacity="0.1"/>
<path d="M-41.4767 557.512L-113.84 615.941C-123.13 623.442 -117.826 638.454 -105.886 638.454H257.532C269.54 638.454 274.804 623.3 265.381 615.857L144.06 520.011C139.55 516.448 133.207 516.37 128.61 519.82L126.401 521.478C121.845 524.898 115.567 524.854 111.059 521.372L87.1884 502.931C82.6005 499.387 76.1916 499.411 71.6308 502.99L-3.73116 562.131C-8.23204 565.663 -14.5423 565.738 -19.1259 562.314L-25.9445 557.22C-30.5804 553.756 -36.9744 553.877 -41.4767 557.512Z" fill="#DBE1F0" fill-opacity="0.15"/>
<path d="M52.6728 495.6L50.6592 497.615L52.6728 499.63L54.6865 497.615L52.6728 495.6Z" fill="#FFE67D"/>
<path d="M1.41355 512.7L-0.600098 514.715L1.41355 516.73L3.42721 514.715L1.41355 512.7Z" fill="#FFE67D"/>
<path d="M277.33 501.933L275.316 503.948L277.33 505.963L279.343 503.948L277.33 501.933Z" fill="#FFE67D"/>
<path d="M195.694 494.333L193.68 496.348L195.694 498.363L197.707 496.348L195.694 494.333Z" fill="#FFE67D"/>
<path d="M45.5967 549.94L54.9627 559.313L64.3286 549.94L54.9627 540.566L45.5967 549.94ZM61.734 549.94L54.9627 556.716L48.2546 549.94L54.9627 543.226L61.734 549.94Z" fill="#FFE67D"/>
<path d="M54.9625 556.717L61.6706 550.003L54.9625 543.227L48.2544 549.94L54.9625 556.717ZM50.9756 549.94L55.0258 545.887L59.0759 549.94L55.0258 553.993L50.9756 549.94Z" fill="#FFD400"/>
<path d="M250.002 531.573L259.368 540.946L268.734 531.573L259.368 522.2L250.002 531.573ZM266.14 531.573L259.368 538.35L252.66 531.573L259.368 524.86L266.14 531.573Z" fill="#FFE67D"/>
<path d="M259.368 538.35L266.076 531.637L259.368 524.86L252.66 531.573L259.368 538.35ZM255.382 531.573L259.432 527.52L263.482 531.573L259.432 535.627L255.382 531.573Z" fill="#FFD400"/>
<path d="M22.1816 523.466L27.8772 529.166L33.5727 523.466L27.8772 517.766L22.1816 523.466ZM31.9949 523.466L27.8772 527.587L23.7979 523.466L27.8772 519.384L31.9949 523.466Z" fill="#FFE67D"/>
<path d="M27.8774 527.588L31.9566 523.505L27.8774 519.384L23.7982 523.467L27.8774 527.588ZM25.453 523.467L27.9159 521.002L30.3788 523.467L27.9159 525.932L25.453 523.467Z" fill="#FFD400"/>
<path d="M301.895 521.566L305.692 525.366L309.489 521.566L305.692 517.766L301.895 521.566ZM308.437 521.566L305.692 524.313L302.973 521.566L305.692 518.844L308.437 521.566Z" fill="#FFE67D"/>
<path d="M305.692 524.314L308.411 521.592L305.692 518.845L302.973 521.566L305.692 524.314ZM304.076 521.566L305.718 519.923L307.36 521.566L305.718 523.21L304.076 521.566Z" fill="#FFD400"/>
<path d="M96.2236 488L100.021 491.8L103.818 488L100.021 484.2L96.2236 488ZM102.766 488L100.021 490.747L97.3012 488L100.021 485.278L102.766 488Z" fill="#FFE67D"/>
<path d="M100.02 490.747L102.74 488.026L100.02 485.278L97.3008 488L100.02 490.747ZM98.404 488L100.046 486.357L101.688 488L100.046 489.643L98.404 488Z" fill="#FFD400"/>
<path d="M284.176 547.533L289.871 553.233L295.567 547.533L289.871 541.833L284.176 547.533ZM293.989 547.533L289.871 551.654L285.792 547.533L289.871 543.451L293.989 547.533Z" fill="#FFE67D"/>
<path d="M289.872 551.654L293.951 547.572L289.872 543.451L285.792 547.533L289.872 551.654ZM287.447 547.533L289.91 545.068L292.373 547.533L289.91 549.998L287.447 547.533Z" fill="#FFD400"/>
<path d="M105.02 514.638H83.4577L90.5475 504.433C90.8673 504.003 91.4803 503.869 91.9334 504.191L92.9196 505.131C93.586 505.749 94.6254 505.776 95.2918 505.158L96.3313 504.218C96.7844 503.923 97.3707 504.03 97.6906 504.46L105.02 514.638Z" fill="#FCC900"/>
<path d="M106.753 576.085C106.593 576.085 106.407 576.058 106.22 576.031C105.154 575.789 104.408 574.849 104.408 573.748V564.617C104.408 563.623 105.207 562.791 106.22 562.791C107.233 562.791 108.032 563.597 108.032 564.617V568.081L114.669 553.955C115.096 553.042 116.162 552.666 117.068 553.096C117.974 553.525 118.347 554.6 117.921 555.513L108.885 574.769C108.459 575.574 107.633 576.085 106.753 576.085Z" fill="#FCBAA4"/>
<path d="M113.363 554.305C113.683 554.278 113.976 554.52 114.029 554.842L114.349 557.662C114.376 557.984 114.136 558.279 113.816 558.333C113.496 558.36 113.203 558.118 113.15 557.796L112.83 554.976C112.803 554.654 113.043 554.358 113.363 554.305Z" fill="#FCBAA4"/>
<path d="M108.06 564.617H80.1271V558.789C80.1271 553.66 84.2584 549.497 89.3492 549.497H98.8112C103.902 549.497 108.033 553.66 108.033 558.789V564.617H108.06Z" fill="#FCC900"/>
<path d="M104.57 583.444H83.62V559.73C83.62 556.668 104.49 556.668 104.49 559.73L104.57 583.444Z" fill="#F9E011"/>
<path d="M92.7081 549.471H89.3498C84.259 549.471 80.1277 553.633 80.1277 558.763V564.591H83.8325V559.381C83.8325 555.245 86.6311 551.888 90.7358 551.888H92.7081V549.471Z" fill="#F9E011"/>
<path d="M83.6712 564.617H80.1263V583.443H83.6712V564.617Z" fill="#FCBAA4"/>
<path d="M101.822 537.385H105.5C107.206 537.385 108.619 535.988 108.619 534.243V529.248H101.849V537.385H101.822Z" fill="black"/>
<path d="M102.808 560.293H97.5834V562.173H102.808V560.293Z" fill="white"/>
<path d="M85.9897 570.499C84.5504 570.499 83.3776 569.317 83.3776 567.867V564.94C83.3776 563.489 84.5504 562.308 85.9897 562.308C87.4289 562.308 88.6017 563.489 88.6017 564.94V567.867C88.6017 569.29 87.4289 570.499 85.9897 570.499Z" fill="black"/>
<path d="M85.0302 563.757C85.5632 564.295 86.4161 564.295 86.9225 563.757L89.1081 561.555C89.6412 561.018 89.6412 560.159 89.1081 559.648C88.5751 559.111 87.7221 559.111 87.2157 559.648L85.0302 561.851C84.5237 562.361 84.5237 563.22 85.0302 563.757Z" fill="black"/>
<path d="M86.9224 563.758C86.3894 564.295 85.5364 564.295 85.03 563.758L82.8445 561.556C82.3114 561.019 82.3114 560.159 82.8445 559.649C83.3775 559.112 84.2304 559.112 84.7368 559.649L86.9224 561.851C87.4555 562.361 87.4555 563.221 86.9224 563.758Z" fill="black"/>
<path d="M85.0302 560.857C85.5632 561.394 86.4161 561.394 86.9225 560.857L89.1081 558.655C89.6412 558.118 89.6412 557.258 89.1081 556.748C88.5751 556.211 87.7221 556.211 87.2157 556.748L85.0302 558.95C84.5237 559.461 84.5237 560.32 85.0302 560.857Z" fill="black"/>
<path d="M86.9224 560.857C86.3894 561.394 85.5364 561.394 85.03 560.857L82.8445 558.655C82.3114 558.118 82.3114 557.258 82.8445 556.748C83.3775 556.211 84.2304 556.211 84.7368 556.748L86.9224 558.95C87.4555 559.461 87.4555 560.32 86.9224 560.857Z" fill="#1A1A1A"/>
<path d="M85.0302 557.957C85.5632 558.494 86.4161 558.494 86.9225 557.957L89.1081 555.754C89.6412 555.217 89.6412 554.358 89.1081 553.848C88.5751 553.311 87.7221 553.311 87.2157 553.848L85.0302 556.05C84.5237 556.56 84.5237 557.42 85.0302 557.957Z" fill="black"/>
<path d="M86.9224 557.957C86.3894 558.494 85.5364 558.494 85.03 557.957L82.8445 555.755C82.3114 555.218 82.3114 554.358 82.8445 553.848C83.3775 553.311 84.2304 553.311 84.7368 553.848L86.9224 556.05C87.4555 556.561 87.4555 557.42 86.9224 557.957Z" fill="black"/>
<path d="M85.0302 555.03C85.5632 555.567 86.4161 555.567 86.9225 555.03L89.1081 552.828C89.6412 552.291 89.6412 551.431 89.1081 550.921C88.5751 550.384 87.7221 550.384 87.2157 550.921L85.0302 553.123C84.5237 553.66 84.5237 554.52 85.0302 555.03Z" fill="black"/>
<path d="M86.9224 555.03C86.3894 555.567 85.5364 555.567 85.03 555.03L82.8445 552.828C82.3114 552.291 82.3114 551.431 82.8445 550.921C83.3775 550.384 84.2304 550.384 84.7368 550.921L86.9224 553.123C87.4555 553.66 87.4555 554.52 86.9224 555.03Z" fill="#1A1A1A"/>
<path d="M85.0302 552.129C85.5632 552.667 86.4161 552.667 86.9225 552.129L89.1081 549.927C89.6412 549.39 89.6412 548.531 89.1081 548.021C88.5751 547.483 87.7221 547.483 87.2157 548.021L85.0302 550.223C84.5237 550.76 84.5237 551.619 85.0302 552.129Z" fill="black"/>
<path d="M86.9224 552.13C86.3894 552.667 85.5364 552.667 85.03 552.13L82.8445 549.928C82.3114 549.391 82.3114 548.531 82.8445 548.021C83.3775 547.484 84.2304 547.484 84.7368 548.021L86.9224 550.223C87.4555 550.76 87.4555 551.62 86.9224 552.13Z" fill="black"/>
<path d="M85.0302 549.229C85.5632 549.766 86.4161 549.766 86.9225 549.229L89.1081 547.027C89.6412 546.49 89.6412 545.63 89.1081 545.12C88.5751 544.583 87.7221 544.583 87.2157 545.12L85.0302 547.322C84.5237 547.833 84.5237 548.692 85.0302 549.229Z" fill="black"/>
<path d="M86.9224 549.23C86.3894 549.767 85.5364 549.767 85.03 549.23L82.8445 547.028C82.3114 546.491 82.3114 545.631 82.8445 545.121C83.3775 544.584 84.2304 544.584 84.7368 545.121L86.9224 547.323C87.4555 547.834 87.4555 548.693 86.9224 549.23Z" fill="#1A1A1A"/>
<path d="M85.0302 546.329C85.5632 546.866 86.4161 546.866 86.9225 546.329L89.1081 544.127C89.6412 543.589 89.6412 542.73 89.1081 542.22C88.5751 541.683 87.7221 541.683 87.2157 542.22L85.0302 544.422C84.5237 544.932 84.5237 545.792 85.0302 546.329Z" fill="black"/>
<path d="M86.9224 546.329C86.3894 546.866 85.5364 546.866 85.03 546.329L82.8445 544.127C82.3114 543.589 82.3114 542.73 82.8445 542.22C83.3775 541.683 84.2304 541.683 84.7368 542.22L86.9224 544.422C87.4555 544.932 87.4555 545.792 86.9224 546.329Z" fill="black"/>
<path d="M85.0304 543.428C85.5635 543.965 86.4164 543.965 86.9228 543.428L89.1084 541.226C89.6415 540.689 89.6415 539.829 89.1084 539.319C88.5753 538.782 87.7224 538.782 87.216 539.319L85.0304 541.521C84.524 542.031 84.524 542.891 85.0304 543.428Z" fill="black"/>
<path d="M86.9227 543.428C86.3896 543.965 85.5367 543.965 85.0303 543.428L82.8447 541.226C82.3117 540.689 82.3117 539.829 82.8447 539.319C83.3778 538.782 84.2307 538.782 84.7371 539.319L86.9227 541.521C87.4558 542.031 87.4558 542.891 86.9227 543.428Z" fill="#1A1A1A"/>
<path d="M100.809 532.74V540.555H85.4571C82.152 540.555 79.4867 537.869 79.4867 534.539V521.809C79.4867 517.781 82.7118 514.531 86.7098 514.531H101.369C105.367 514.531 108.592 517.781 108.592 521.809V533.008L100.809 532.74Z" fill="black"/>
<path d="M94.0664 553.311C92.1207 553.311 90.5482 551.727 90.5482 549.766V542.005H97.5847V549.766C97.5847 551.727 96.0121 553.311 94.0664 553.311Z" fill="#F99678"/>
<path d="M104.542 530.618H105.474C106.434 530.618 107.207 531.397 107.207 532.363V534.458C107.207 535.425 106.434 536.204 105.474 536.204H104.542V530.618Z" fill="#FCBAA4"/>
<path d="M83.6176 536.23H82.6847C81.7252 536.23 80.9523 535.451 80.9523 534.484V532.39C80.9523 531.423 81.7252 530.644 82.6847 530.644H83.6176V536.23Z" fill="#FCBAA4"/>
<path d="M95.8243 545.764H92.3327C87.5084 545.764 83.617 541.816 83.617 536.982V526.992C83.617 524.333 85.776 522.158 88.4147 522.158H99.769C102.408 522.158 104.567 524.333 104.567 526.992V536.982C104.567 541.843 100.649 545.764 95.8243 545.764Z" fill="#FCBAA4"/>
<path d="M101.715 528.442H97.2105C96.864 528.442 96.5974 528.173 96.5974 527.824V527.556C96.5974 527.207 96.864 526.938 97.2105 526.938H101.715C102.061 526.938 102.328 527.207 102.328 527.556V527.824C102.301 528.147 102.035 528.442 101.715 528.442Z" fill="black"/>
<path d="M90.9481 528.442H86.4436C86.0971 528.442 85.8306 528.173 85.8306 527.824V527.556C85.8306 527.207 86.0971 526.938 86.4436 526.938H90.9481C91.2946 526.938 91.5611 527.207 91.5611 527.556V527.824C91.5611 528.147 91.2679 528.442 90.9481 528.442Z" fill="black"/>
<path d="M99.3183 532.739C100.143 532.739 100.811 532.066 100.811 531.235C100.811 530.405 100.143 529.731 99.3183 529.731C98.494 529.731 97.8257 530.405 97.8257 531.235C97.8257 532.066 98.494 532.739 99.3183 532.739Z" fill="black"/>
<path d="M99.6913 531.074C99.8974 531.074 100.064 530.906 100.064 530.698C100.064 530.491 99.8974 530.322 99.6913 530.322C99.4853 530.322 99.3182 530.491 99.3182 530.698C99.3182 530.906 99.4853 531.074 99.6913 531.074Z" fill="white"/>
<path d="M88.8143 532.739C89.6386 532.739 90.3069 532.066 90.3069 531.235C90.3069 530.405 89.6386 529.731 88.8143 529.731C87.9899 529.731 87.3217 530.405 87.3217 531.235C87.3217 532.066 87.9899 532.739 88.8143 532.739Z" fill="black"/>
<path d="M89.1872 531.074C89.3933 531.074 89.5604 530.906 89.5604 530.698C89.5604 530.491 89.3933 530.322 89.1872 530.322C88.9811 530.322 88.8141 530.491 88.8141 530.698C88.8141 530.906 88.9811 531.074 89.1872 531.074Z" fill="white"/>
<path d="M94.0943 536.768C93.6146 536.768 93.1348 536.687 92.655 536.553C92.4151 536.472 92.3085 536.231 92.3885 535.989C92.4685 535.801 92.6817 535.694 92.8949 535.747C93.6679 535.989 94.5208 535.989 95.2937 535.747C95.5069 535.694 95.7202 535.801 95.8001 535.989C95.8801 536.204 95.7735 536.472 95.5336 536.553C95.0538 536.714 94.5741 536.768 94.0943 536.768Z" fill="#F99678"/>
<path d="M99.3172 537.385C100.48 537.385 101.423 536.748 101.423 535.962C101.423 535.176 100.48 534.539 99.3172 534.539C98.1543 534.539 97.2116 535.176 97.2116 535.962C97.2116 536.748 98.1543 537.385 99.3172 537.385Z" fill="#F99678"/>
<path d="M88.8153 537.385C89.9782 537.385 90.9209 536.748 90.9209 535.962C90.9209 535.176 89.9782 534.539 88.8153 534.539C87.6524 534.539 86.7097 535.176 86.7097 535.962C86.7097 536.748 87.6524 537.385 88.8153 537.385Z" fill="#F99678"/>
<path d="M97.9298 539.749C97.8498 539.561 97.6633 539.453 97.45 539.534H97.4234C96.7571 539.802 96.0641 539.99 95.3444 540.098C95.3444 540.098 95.3444 540.098 95.3178 540.098C95.1845 540.125 95.0512 540.125 94.918 540.152C94.8647 540.152 94.838 540.152 94.7847 540.152C94.6781 540.152 94.5981 540.178 94.4915 540.178C94.4382 540.178 94.3583 540.178 94.3049 540.178C94.225 540.178 94.145 540.178 94.0651 540.178C93.9851 540.178 93.9051 540.178 93.8252 540.178C93.7719 540.178 93.6919 540.178 93.6386 540.178C93.532 540.178 93.452 540.178 93.3454 540.152C93.2921 540.152 93.2655 540.152 93.2122 540.152C93.0789 540.152 92.9456 540.125 92.8124 540.098C92.8124 540.098 92.8124 540.098 92.7857 540.098C92.0927 539.99 91.3997 539.802 90.7067 539.534H90.6801C90.4935 539.48 90.2803 539.561 90.2003 539.749C90.1204 539.937 90.227 540.152 90.4136 540.232C91.4264 540.635 92.5192 540.877 93.5853 540.93C93.6386 540.93 93.6653 540.93 93.7186 540.93C93.8252 540.93 93.9318 540.93 94.0384 540.93C94.145 540.93 94.2516 540.93 94.3583 540.93C94.4116 540.93 94.4382 540.93 94.4915 540.93C95.5577 540.877 96.6238 540.635 97.6633 540.232C97.9032 540.152 98.0098 539.937 97.9298 539.749Z" fill="#F99678"/>
<path d="M95.1051 539.373C94.9185 539.319 94.7053 539.399 94.5987 539.561C94.4921 539.749 94.3055 539.856 94.0656 539.856C93.8258 539.856 93.6392 539.722 93.5326 539.561C93.426 539.399 93.2127 539.319 93.0262 539.373C92.1999 539.587 91.6135 540.044 91.6135 540.554C91.6135 541.279 92.7063 541.87 94.039 541.87C95.3717 541.87 96.4644 541.279 96.4644 540.554C96.5178 540.017 95.9314 539.561 95.1051 539.373Z" fill="#F99678"/>
<path d="M91.4275 524.172H82.0721V523.152C82.0721 521.755 83.5114 520.601 85.2706 520.601H94.3061C94.2794 522.212 93.4531 524.172 91.4275 524.172Z" fill="black"/>
<path d="M96.8383 524.172H105.927V523.152C105.927 521.755 104.488 520.601 102.729 520.601H93.6932C93.6932 522.212 94.786 524.172 96.8383 524.172Z" fill="black"/>
<path d="M98.3035 522.292H108.565V521.298C108.565 518.425 106.939 516.115 104.967 516.115H94.7586C94.7586 519.392 94.8119 522.292 98.3035 522.292Z" fill="#1A1A1A"/>
<path d="M89.7216 522.292H79.4867V521.298C79.4867 518.425 81.1126 516.115 83.0849 516.115H93.2665C93.2665 519.392 93.2132 522.292 89.7216 522.292Z" fill="#1A1A1A"/>
<path d="M83.5387 534.216C83.4055 534.216 83.2989 534.109 83.2989 533.975C83.2989 533.142 82.6325 532.471 81.8063 532.471C81.673 532.471 81.5664 532.363 81.5664 532.229C81.5664 532.095 81.673 531.987 81.8063 531.987C82.8991 531.987 83.8053 532.9 83.8053 534.002C83.7786 534.109 83.672 534.216 83.5387 534.216Z" fill="#F99678"/>
<path d="M104.701 534.216C104.568 534.216 104.461 534.109 104.461 533.975C104.461 532.874 105.368 531.96 106.46 531.96C106.594 531.96 106.7 532.068 106.7 532.202C106.7 532.336 106.594 532.444 106.46 532.444C105.634 532.444 104.968 533.115 104.968 533.948C104.941 534.109 104.835 534.216 104.701 534.216Z" fill="#F99678"/>
<path d="M85.9907 562.281V570.499C87.43 570.499 88.6027 569.317 88.6027 567.867V564.94C88.6027 563.462 87.43 562.281 85.9907 562.281Z" fill="#1A1A1A"/>
<path d="M86.842 565.369H85.1096C84.1234 565.369 83.3238 564.564 83.3238 563.57C83.3238 562.576 84.1234 561.771 85.1096 561.771H86.842C87.8282 561.771 88.6278 562.576 88.6278 563.57C88.6278 564.564 87.8282 565.369 86.842 565.369Z" fill="#F9E011"/>
<path d="M86.843 565.369H86.2833C85.2971 565.369 84.4975 564.564 84.4975 563.57C84.4975 562.576 85.2971 561.771 86.2833 561.771H86.843C87.8292 561.771 88.6288 562.576 88.6288 563.57C88.6288 564.564 87.8292 565.369 86.843 565.369Z" fill="#FCC900"/>
<path d="M106.512 516.626L94.1181 519.472L81.6443 516.626L85.0293 511.013H103.687L106.512 516.626Z" fill="#F9E011"/>
<path d="M76.4216 566.739H74.7691V570.902H76.4216V566.739Z" fill="#DBE1F0"/>
<path d="M75.1956 566.739H74.7691V570.902H75.1956V566.739Z" fill="#F5F4F9"/>
<path d="M80.1259 561.985H71.0638V567.142H80.1259V561.985Z" fill="#DBE1F0"/>
<path d="M71.4902 561.985H71.0638V567.142H71.4902V561.985Z" fill="#F5F4F9"/>
<path d="M79.1674 562.979H72.0243V566.202H79.1674V562.979Z" fill="#F5F4F9"/>
<path d="M76.4216 569.8H74.7691V570.901H76.4216V569.8Z" fill="#BDC5DF"/>
<path d="M90.8944 506.286L89.5617 505.856L86.1501 510.744H93.693V510.153C93.693 508.38 92.5469 506.823 90.8944 506.286Z" fill="#F9E011"/>
<path d="M166.399 530.396H143.801C134.215 530.396 126.452 538.116 126.452 547.649V564.575C126.452 570.99 131.664 576.173 138.115 576.173H172.048C178.5 576.173 183.712 570.99 183.712 564.575V547.649C183.712 538.116 175.948 530.396 166.399 530.396Z" fill="#F2F2F2"/>
<path d="M165.635 530.396H144.531C138.481 530.396 133.597 535.253 133.597 541.27V583.929H176.533V541.27C176.569 535.289 171.649 530.396 165.635 530.396Z" fill="#F9E011"/>
<path d="M163.592 516.659H146.608V528.04H163.592V516.659Z" fill="#F99678"/>
<path d="M160.421 520.901H149.814C143.545 520.901 138.442 515.827 138.442 509.593V487.593C138.442 485.128 140.484 483.062 142.999 483.062H167.273C169.751 483.062 171.829 485.092 171.829 487.593V509.593C171.792 515.827 166.69 520.901 160.421 520.901Z" fill="#FCBAA4"/>
<path d="M172.376 507.563H137.86C135.564 507.563 133.668 505.678 133.668 503.395V502.344C133.668 500.06 135.564 498.176 137.86 498.176H172.376C174.672 498.176 176.568 500.06 176.568 502.344V503.395C176.568 505.678 174.672 507.563 172.376 507.563Z" fill="#FCBAA4"/>
<path d="M168.949 486.07H141.285V472.188C141.285 470.449 142.707 468.999 144.493 468.999H165.742C167.491 468.999 168.949 470.413 168.949 472.188V486.07Z" fill="#F9E011"/>
<path d="M168.949 486.07H146.57V472.044C146.57 470.376 147.955 468.999 149.632 468.999H165.888C167.564 468.999 168.949 470.376 168.949 472.044V486.07Z" fill="#FCC900"/>
<path d="M167.018 530.433H143.363V523.474H152.366L155.1 528.585L157.287 523.474H167.018V530.433Z" fill="#FCC900"/>
<path d="M145.551 530.468L143.146 530.541V522.966H146.608V529.381C146.608 529.961 146.135 530.432 145.551 530.468Z" fill="#F9E011"/>
<path d="M171.792 489.332H138.442V474.399H142.488L155.099 477.516L167.965 474.399H171.792V489.332Z" fill="#FCC900"/>
<path d="M146.607 489.332H138.442V474.399H141.942L146.607 475.704V489.332Z" fill="#F9E011"/>
<path d="M168.949 473.892L155.099 475.74L141.285 473.892V474.399L155.099 477.806L168.949 474.399V473.892Z" fill="#F9E011"/>
<path d="M155.099 477.19L141.285 474.399L155.099 477.806L168.949 474.399L155.099 477.19Z" fill="#FCC900"/>
<path d="M155.099 528.548C154.917 528.548 154.735 528.439 154.662 528.294L152.074 523.474H143.144C142.852 523.474 142.634 523.256 142.634 522.966C142.634 522.676 142.852 522.459 143.144 522.459H152.329C152.511 522.459 152.693 522.568 152.766 522.713L154.99 526.881L156.776 522.749C156.849 522.568 157.031 522.459 157.249 522.459H166.981C167.273 522.459 167.491 522.676 167.491 522.966C167.491 523.256 167.273 523.474 166.981 523.474H157.65L155.573 528.258C155.463 528.403 155.281 528.548 155.099 528.548Z" fill="#660033"/>
<path d="M161.041 560.551C161.705 560.551 162.244 560.016 162.244 559.355C162.244 558.695 161.705 558.159 161.041 558.159C160.377 558.159 159.838 558.695 159.838 559.355C159.838 560.016 160.377 560.551 161.041 560.551Z" fill="#660033"/>
<path d="M149.121 560.551C149.785 560.551 150.324 560.016 150.324 559.355C150.324 558.695 149.785 558.159 149.121 558.159C148.457 558.159 147.918 558.695 147.918 559.355C147.918 560.016 148.457 560.551 149.121 560.551Z" fill="#660033"/>
<path d="M161.041 550.403C161.705 550.403 162.244 549.867 162.244 549.207C162.244 548.546 161.705 548.011 161.041 548.011C160.377 548.011 159.838 548.546 159.838 549.207C159.838 549.867 160.377 550.403 161.041 550.403Z" fill="#660033"/>
<path d="M149.121 550.403C149.785 550.403 150.324 549.867 150.324 549.207C150.324 548.546 149.785 548.011 149.121 548.011C148.457 548.011 147.918 548.546 147.918 549.207C147.918 549.867 148.457 550.403 149.121 550.403Z" fill="#660033"/>
<path d="M161.041 540.219C161.705 540.219 162.244 539.683 162.244 539.023C162.244 538.362 161.705 537.827 161.041 537.827C160.377 537.827 159.838 538.362 159.838 539.023C159.838 539.683 160.377 540.219 161.041 540.219Z" fill="#660033"/>
<path d="M149.121 540.219C149.785 540.219 150.324 539.683 150.324 539.023C150.324 538.362 149.785 537.827 149.121 537.827C148.457 537.827 147.918 538.362 147.918 539.023C147.918 539.683 148.457 540.219 149.121 540.219Z" fill="#660033"/>
<path d="M138.371 504.12C138.079 504.12 137.861 503.902 137.861 503.612C137.861 502.597 137.022 501.764 136.002 501.764C135.71 501.764 135.492 501.546 135.492 501.256C135.492 500.966 135.71 500.749 136.002 500.749C137.606 500.749 138.881 502.054 138.881 503.612C138.881 503.902 138.663 504.12 138.371 504.12Z" fill="#F99678"/>
<path d="M171.865 504.119C171.574 504.119 171.355 503.901 171.355 503.611C171.355 502.017 172.667 500.748 174.234 500.748C174.526 500.748 174.745 500.966 174.745 501.255C174.745 501.545 174.526 501.763 174.234 501.763C173.214 501.763 172.375 502.596 172.375 503.611C172.375 503.901 172.157 504.119 171.865 504.119Z" fill="#F99678"/>
<path d="M163.627 501.69C164.755 501.69 165.668 500.781 165.668 499.661C165.668 498.54 164.755 497.631 163.627 497.631C162.5 497.631 161.586 498.54 161.586 499.661C161.586 500.781 162.5 501.69 163.627 501.69Z" fill="black"/>
<path d="M164.139 499.443C164.421 499.443 164.649 499.215 164.649 498.935C164.649 498.655 164.421 498.428 164.139 498.428C163.857 498.428 163.628 498.655 163.628 498.935C163.628 499.215 163.857 499.443 164.139 499.443Z" fill="white"/>
<path d="M146.572 501.69C147.699 501.69 148.613 500.781 148.613 499.661C148.613 498.54 147.699 497.631 146.572 497.631C145.445 497.631 144.531 498.54 144.531 499.661C144.531 500.781 145.445 501.69 146.572 501.69Z" fill="black"/>
<path d="M147.083 499.443C147.365 499.443 147.593 499.215 147.593 498.935C147.593 498.655 147.365 498.428 147.083 498.428C146.801 498.428 146.573 498.655 146.573 498.935C146.573 499.215 146.801 499.443 147.083 499.443Z" fill="white"/>
<path d="M143.363 495.603H149.778C150.398 495.603 150.944 495.095 150.944 494.443V493.682C150.944 493.066 150.434 492.522 149.778 492.522H143.363C142.743 492.522 142.197 493.029 142.197 493.682V494.443C142.197 495.095 142.743 495.603 143.363 495.603Z" fill="black"/>
<path d="M166.836 492.558H166.545V493.537C166.545 493.754 166.362 493.972 166.107 493.972C165.852 493.972 165.67 493.79 165.67 493.537V492.558H160.421C159.802 492.558 159.255 493.066 159.255 493.718V494.479C159.255 495.095 159.765 495.639 160.421 495.639H166.836C167.456 495.639 168.003 495.131 168.003 494.479V493.718C167.966 493.066 167.456 492.558 166.836 492.558Z" fill="black"/>
<path d="M155.098 507.998C154.26 507.998 153.421 507.889 152.583 507.635C152.219 507.527 152.036 507.128 152.182 506.765C152.292 506.475 152.656 506.294 152.948 506.403C154.333 506.838 155.827 506.838 157.212 506.403C157.54 506.294 157.868 506.475 157.978 506.765C158.123 507.128 157.941 507.527 157.577 507.635C156.775 507.889 155.936 507.998 155.098 507.998Z" fill="#F99678"/>
<path d="M160.276 512.239C156.923 513.58 153.205 513.58 149.852 512.239" stroke="#FCBAA4" stroke-width="6.51216" stroke-miterlimit="10" stroke-linecap="round"/>
<path d="M155.099 513.905C153.24 513.905 151.418 513.543 149.632 512.854C149.304 512.709 149.122 512.347 149.231 512.02C149.341 511.658 149.741 511.477 150.106 511.586H150.142C153.35 512.854 156.849 512.854 160.056 511.586H160.093C160.457 511.477 160.822 511.658 160.967 512.02C161.077 512.383 160.895 512.745 160.567 512.854C158.781 513.579 156.922 513.905 155.099 513.905Z" fill="white"/>
<path d="M146.242 508.722C148.155 508.722 149.705 507.7 149.705 506.439C149.705 505.178 148.155 504.156 146.242 504.156C144.33 504.156 142.78 505.178 142.78 506.439C142.78 507.7 144.33 508.722 146.242 508.722Z" fill="#F99678"/>
<path d="M163.957 508.722C165.87 508.722 167.42 507.7 167.42 506.439C167.42 505.178 165.87 504.156 163.957 504.156C162.045 504.156 160.495 505.178 160.495 506.439C160.495 507.7 162.045 508.722 163.957 508.722Z" fill="#F99678"/>
<path d="M171.792 489.332H138.442V490.6H171.792V489.332Z" fill="#F99678"/>
<path d="M134.106 562.4C133.268 560.407 132.065 558.631 130.534 557.145C128.748 555.405 128.712 552.505 130.461 550.729C132.211 548.953 135.127 548.917 136.913 550.657C139.318 553.013 141.214 555.804 142.526 558.921C146.827 569.25 136.986 569.25 134.106 562.4Z" fill="#FCBAA4"/>
<path d="M138.225 560.733L144.02 558.304C146.645 564.429 153.424 566.35 160.896 566.35C162.317 566.35 163.739 566.205 165.087 565.915C169.097 565.082 171.976 561.494 171.976 557.434V543.988C171.976 542.647 171.794 541.342 171.393 540.11C170.737 537.935 169.534 535.978 167.967 534.383C166.946 533.368 166.472 531.955 166.8 530.541L166.837 530.433C176.24 530.868 183.749 538.624 183.749 548.083V566.677C183.749 570.953 181.489 574.686 178.099 576.789C177.99 576.861 177.844 576.934 177.735 577.006C175.985 578.021 173.944 578.565 171.794 578.565H153.205C148.467 578.565 143.802 577.042 140.047 574.143C139.756 573.889 139.464 573.672 139.209 573.454C136.148 570.663 133.669 567.293 131.992 563.415L138.225 560.733Z" fill="#F9E011"/>
<path d="M170.809 538.587C171.028 539.059 171.21 539.566 171.356 540.073C171.72 541.306 171.939 542.61 171.939 543.952V557.398C171.939 561.494 169.096 565.045 165.05 565.879C163.702 566.169 162.317 566.314 160.859 566.314C153.387 566.314 146.608 564.393 143.983 558.268L140.12 559.899C141.286 562.363 142.89 564.538 144.895 566.314C145.077 566.459 145.259 566.64 145.478 566.785C148.102 568.815 151.346 569.866 154.663 569.866H167.638C169.133 569.866 170.554 569.467 171.793 568.779C171.866 568.742 171.976 568.67 172.049 568.634C174.418 567.184 175.985 564.574 175.985 561.566V548.591C176.021 544.495 173.98 540.835 170.809 538.587Z" fill="#FCC900"/>
<path d="M132.066 563.487L144.021 558.485C144.276 558.376 144.385 558.087 144.276 557.833C144.167 557.579 143.875 557.47 143.62 557.579L131.665 562.581C131.41 562.689 131.301 562.979 131.41 563.233C131.519 563.451 131.811 563.596 132.066 563.487Z" fill="#660033"/>
<path d="M173.905 554.425C173.103 554.243 172.593 553.446 172.812 552.649L177.477 533.766L179.628 534.237L175.655 553.301C175.473 554.098 174.707 554.606 173.905 554.425Z" fill="#DBE1F0"/>
<path d="M179.591 534.273L179.226 534.201L175.326 552.903C175.144 553.7 174.379 554.207 173.577 554.026C173.285 553.954 173.067 553.809 172.884 553.627C173.067 553.99 173.431 554.316 173.869 554.389C174.67 554.57 175.472 554.062 175.618 553.265L179.591 534.273Z" fill="#BDC5DF"/>
<path d="M184.522 531.371C185.328 527.817 183.69 524.422 180.862 523.787C178.034 523.153 175.088 525.52 174.282 529.074C173.476 532.627 175.114 536.023 177.942 536.657C180.77 537.291 183.716 534.925 184.522 531.371Z" fill="#DBE1F0"/>
<path d="M179.774 533.948C177.879 533.513 176.749 531.23 177.296 528.837C177.806 526.554 179.665 524.996 181.487 525.213C181.196 525.068 180.904 524.959 180.612 524.887C178.28 524.379 175.838 526.3 175.182 529.236C174.526 532.172 175.874 534.963 178.207 535.506C180.139 535.941 182.107 534.709 183.127 532.643C182.216 533.658 180.977 534.202 179.774 533.948Z" fill="#BDC5DF"/>
<path d="M167.966 559.101C168.804 557.108 169.241 555.006 169.241 552.867C169.241 550.367 171.282 548.337 173.797 548.337C176.312 548.337 178.353 550.367 178.353 552.867C178.353 556.238 177.697 559.536 176.349 562.617C171.938 572.947 165.05 565.951 167.966 559.101Z" fill="#FCBAA4"/>
<path d="M171.939 560.769L166.144 558.34C163.519 564.466 156.74 566.386 149.268 566.386C147.847 566.386 146.425 566.242 145.077 565.952C141.067 565.118 138.188 561.53 138.188 557.47V544.024C138.188 542.683 138.37 541.378 138.771 540.146C139.427 537.971 140.63 536.014 142.197 534.419C143.218 533.405 143.692 531.991 143.364 530.577L143.327 530.469C133.96 530.904 126.452 538.66 126.452 548.12V566.713C126.452 570.989 128.711 574.723 132.101 576.825C132.21 576.897 132.356 576.97 132.466 577.042C134.215 578.057 136.256 578.601 138.407 578.601H156.995C161.733 578.601 166.399 577.078 170.153 574.179C170.445 573.925 170.736 573.708 170.991 573.49C174.053 570.7 176.531 567.329 178.208 563.451L171.939 560.769Z" fill="#F9E011"/>
<path d="M139.318 538.587C139.099 539.059 138.917 539.566 138.771 540.073C138.407 541.306 138.188 542.61 138.188 543.952V557.398C138.188 561.494 141.031 565.045 145.077 565.879C146.425 566.169 147.81 566.314 149.268 566.314C156.74 566.314 163.519 564.393 166.144 558.268L170.007 559.899C168.841 562.363 167.237 564.538 165.232 566.314C165.05 566.459 164.868 566.64 164.649 566.785C162.025 568.815 158.781 569.866 155.464 569.866H142.489C140.994 569.866 139.573 569.467 138.334 568.779C138.261 568.742 138.151 568.67 138.079 568.634C135.709 567.184 134.142 564.574 134.142 561.566V548.591C134.142 544.495 136.183 540.835 139.318 538.587Z" fill="#FCC900"/>
<path d="M178.098 563.523L166.144 558.521C165.888 558.413 165.779 558.123 165.888 557.869C165.998 557.615 166.289 557.506 166.544 557.615L178.499 562.617C178.755 562.726 178.864 563.016 178.755 563.269C178.645 563.523 178.354 563.632 178.098 563.523Z" fill="#660033"/>
<path d="M239.244 566.366H203.275V555.335C203.275 549.805 207.789 545.346 213.323 545.346H229.196C234.758 545.346 239.244 549.833 239.244 555.335V566.366Z" fill="#FCC900"/>
<path d="M233.799 584.664H208.752V556.029C208.752 552.729 233.799 552.729 233.799 556.029V584.664Z" fill="#F9E011"/>
<path d="M208.721 569.985H203.275V572.012H208.721V569.985Z" fill="white"/>
<path d="M230.741 531.477H211.781C208.985 531.477 206.743 529.219 206.743 526.468V512.831C206.743 508.198 210.529 504.435 215.189 504.435H227.334C231.994 504.435 235.78 508.198 235.78 512.831V526.468C235.78 529.219 233.537 531.477 230.741 531.477Z" fill="#381A0A"/>
<path d="M234.09 532.172H208.431C206.479 532.172 204.878 530.579 204.878 528.639V526.844C204.878 524.904 206.479 523.312 208.431 523.312H234.09C236.041 523.312 237.643 524.904 237.643 526.844V528.639C237.672 530.579 236.07 532.172 234.09 532.172Z" fill="#FCBAA4"/>
<path d="M221.508 549.486H220.984C218.712 549.486 216.877 547.662 216.877 545.404V537.297H225.614V545.404C225.585 547.662 223.75 549.486 221.508 549.486Z" fill="#F99678"/>
<path d="M216.41 547.836H217.691C217.167 547.17 216.876 546.33 216.876 545.404V545.346H213.323C207.76 545.346 203.275 549.833 203.275 555.335V566.366H207.527V556.637C207.527 551.773 211.488 547.836 216.41 547.836Z" fill="#F9E011"/>
<path d="M224.158 541.35H218.363C213.062 541.35 208.752 537.065 208.752 531.795V517.406C208.752 515.611 210.499 514.366 212.217 514.945L214.081 515.582C218.683 517.116 223.692 517.029 228.265 515.292L230.216 514.539C231.935 513.902 233.77 515.147 233.77 516.971V531.795C233.77 537.065 229.459 541.35 224.158 541.35Z" fill="#FCBAA4"/>
<path d="M230.012 522.704H225.323C224.944 522.704 224.624 522.385 224.624 522.009V521.314C224.624 520.938 224.944 520.619 225.323 520.619H230.012C230.391 520.619 230.711 520.938 230.711 521.314V522.009C230.711 522.385 230.391 522.704 230.012 522.704Z" fill="#42210B"/>
<path d="M217.139 522.704H212.479C212.101 522.704 211.78 522.385 211.78 522.009V521.314C211.78 520.938 212.101 520.619 212.479 520.619H217.168C217.547 520.619 217.867 520.938 217.867 521.314V522.009C217.838 522.385 217.547 522.704 217.139 522.704Z" fill="#42210B"/>
<path d="M227.536 527.337C228.437 527.337 229.167 526.611 229.167 525.716C229.167 524.82 228.437 524.094 227.536 524.094C226.636 524.094 225.905 524.82 225.905 525.716C225.905 526.611 226.636 527.337 227.536 527.337Z" fill="black"/>
<path d="M227.945 525.542C228.171 525.542 228.353 525.36 228.353 525.136C228.353 524.912 228.171 524.731 227.945 524.731C227.72 524.731 227.538 524.912 227.538 525.136C227.538 525.36 227.72 525.542 227.945 525.542Z" fill="white"/>
<path d="M214.953 527.337C215.854 527.337 216.584 526.611 216.584 525.716C216.584 524.82 215.854 524.094 214.953 524.094C214.052 524.094 213.322 524.82 213.322 525.716C213.322 526.611 214.052 527.337 214.953 527.337Z" fill="black"/>
<path d="M215.362 525.542C215.587 525.542 215.769 525.36 215.769 525.136C215.769 524.912 215.587 524.731 215.362 524.731C215.136 524.731 214.954 524.912 214.954 525.136C214.954 525.36 215.136 525.542 215.362 525.542Z" fill="white"/>
<path d="M221.274 532.172C220.691 532.172 220.109 532.085 219.555 531.911C219.264 531.824 219.118 531.535 219.235 531.245C219.322 531.014 219.584 530.898 219.817 530.956C220.749 531.245 221.769 531.245 222.701 530.956C222.934 530.869 223.196 531.014 223.283 531.245C223.4 531.506 223.254 531.824 222.963 531.911C222.409 532.085 221.856 532.172 221.274 532.172Z" fill="#F99678"/>
<path d="M227.536 531.795C228.807 531.795 229.837 531.108 229.837 530.261C229.837 529.413 228.807 528.726 227.536 528.726C226.266 528.726 225.235 529.413 225.235 530.261C225.235 531.108 226.266 531.795 227.536 531.795Z" fill="#F99678"/>
<path d="M214.955 531.795C216.226 531.795 217.256 531.108 217.256 530.261C217.256 529.413 216.226 528.726 214.955 528.726C213.685 528.726 212.654 529.413 212.654 530.261C212.654 531.108 213.685 531.795 214.955 531.795Z" fill="#F99678"/>
<path d="M221.275 565.497C221.806 565.497 222.236 565.069 222.236 564.541C222.236 564.014 221.806 563.586 221.275 563.586C220.744 563.586 220.314 564.014 220.314 564.541C220.314 565.069 220.744 565.497 221.275 565.497Z" fill="white"/>
<path d="M221.275 557.39C221.806 557.39 222.236 556.963 222.236 556.435C222.236 555.907 221.806 555.479 221.275 555.479C220.744 555.479 220.314 555.907 220.314 556.435C220.314 556.963 220.744 557.39 221.275 557.39Z" fill="white"/>
<path d="M221.275 537.21C220.022 537.21 218.799 536.978 217.605 536.515L217.547 536.486C217.11 536.283 216.935 535.762 217.168 535.328C217.372 534.923 217.867 534.749 218.275 534.923C220.226 535.704 222.352 535.675 224.275 534.923C224.682 534.749 225.177 534.923 225.381 535.328C225.585 535.762 225.41 536.283 225.003 536.486L224.944 536.515C223.75 536.978 222.498 537.21 221.275 537.21Z" fill="white"/>
<path d="M208.49 528.35C208.257 528.35 208.082 528.177 208.082 527.945C208.082 527.134 207.412 526.468 206.596 526.468C206.363 526.468 206.189 526.295 206.189 526.063C206.189 525.831 206.363 525.658 206.596 525.658C207.878 525.658 208.897 526.7 208.897 527.945C208.897 528.177 208.693 528.35 208.49 528.35Z" fill="#F99678"/>
<path d="M234.06 528.35C233.827 528.35 233.652 528.176 233.652 527.945C233.652 526.671 234.7 525.657 235.953 525.657C236.186 525.657 236.361 525.831 236.361 526.063C236.361 526.294 236.215 526.468 235.982 526.468C235.166 526.468 234.497 527.134 234.497 527.945C234.497 528.176 234.293 528.35 234.06 528.35Z" fill="#F99678"/>
<path d="M215.363 557.854H194.859V585.475H215.363V557.854Z" fill="#F5F4F9"/>
<path d="M213.905 559.301H196.314V584.027H213.905V559.301Z" fill="#DBE1F0"/>
<path d="M211.167 561.936H199.051V562.775H211.167V561.936Z" fill="#BDC5DF"/>
<path d="M211.167 565.67H199.051V566.51H211.167V565.67Z" fill="#BDC5DF"/>
<path d="M211.167 569.376H199.051V570.216H211.167V569.376Z" fill="#BDC5DF"/>
<path d="M233.886 585.533C233.303 585.533 232.691 585.417 232.109 585.186C232.08 585.186 232.051 585.157 232.022 585.157L210.266 575.255C209.13 574.734 208.547 573.46 208.984 572.302C209.479 571.028 210.906 570.478 212.129 571.028L233.886 580.901V566.164H238.546V580.785C238.546 582.377 237.788 583.883 236.478 584.752C235.691 585.273 234.788 585.533 233.886 585.533Z" fill="#FCBAA4"/>
<path d="M199.14 563.325C197.859 563.325 196.81 562.283 196.81 561.009V557.882C196.81 556.608 197.859 555.566 199.14 555.566C200.422 555.566 201.47 556.608 201.47 557.882V561.009C201.47 562.283 200.422 563.325 199.14 563.325Z" fill="#FCBAA4"/>
<path d="M239.245 565.063H233.799V567.09H239.245V565.063Z" fill="white"/>
<path d="M221.275 499.831C214.314 499.831 208.664 503.161 208.664 507.272C208.664 509.183 209.858 510.92 211.838 512.223C211.955 511.123 212.275 510.109 212.741 509.183C212.741 509.328 212.741 509.444 212.741 509.588V509.617C212.741 511.76 214.256 513.642 216.353 514.163C217.867 514.539 219.498 514.742 221.246 514.742C221.333 514.742 221.42 514.742 221.537 514.742C221.391 514.337 221.275 513.873 221.246 513.439C221.653 513.96 222.178 514.395 222.789 514.713C225.119 514.539 227.245 514.018 228.993 513.207C229.517 512.426 229.837 511.499 229.837 510.486C229.837 510.37 229.837 510.254 229.808 510.167C230.274 510.746 230.595 511.441 230.769 512.223C232.692 510.92 233.827 509.212 233.827 507.359C233.856 503.161 228.206 499.831 221.275 499.831Z" fill="#512B15"/>
<rect y="1.85195" width="6.94715" height="6.94715" transform="translate(283.762 463) scale(0.999684 1.00032) rotate(45 0 1.85195)" stroke="#FFE682" stroke-width="2.61822"/>
<rect y="1.85195" width="3.75869" height="3.75869" transform="translate(283.762 465.255) scale(0.999684 1.00032) rotate(45 0 1.85195)" stroke="#FCC900" stroke-width="2.61822"/>
</g>
<rect y="0.925973" width="1.31365" height="1.31365" transform="translate(284.132 80.7539) scale(0.999684 1.00032) rotate(45 0 0.925973)" stroke="#FFE682" stroke-width="1.30911"/>
<rect y="0.925973" width="1.31365" height="1.31365" transform="translate(290.104 272.817) scale(0.999684 1.00032) rotate(45 0 0.925973)" stroke="#FFE682" stroke-width="1.30911"/>
<rect y="0.925973" width="1.31365" height="1.31365" transform="translate(245.104 478.81) scale(0.999684 1.00032) rotate(45 0 0.925973)" stroke="#FFE682" stroke-width="1.30911"/>
<rect y="1.85195" width="3.55298" height="3.55298" transform="translate(28.3622 27) scale(0.999684 1.00032) rotate(45 0 1.85195)" stroke="#FFE682" stroke-width="2.61822"/>
<rect y="1.45503" width="2.05707" height="2.05707" transform="translate(28.3622 28.4546) scale(0.999684 1.00032) rotate(45 0 1.45503)" stroke="#FCC900" stroke-width="2.05707"/>
<rect y="1.85195" width="6.94715" height="6.94715" transform="translate(66.7617 86) scale(0.999684 1.00032) rotate(45 0 1.85195)" stroke="#FFE682" stroke-width="2.61822"/>
<rect y="1.85195" width="3.75869" height="3.75869" transform="translate(66.7617 88.2549) scale(0.999684 1.00032) rotate(45 0 1.85195)" stroke="#FCC900" stroke-width="2.61822"/>
<rect y="0.925973" width="1.31365" height="1.31365" transform="translate(14.854 323) scale(0.999684 1.00032) rotate(45 0 0.925973)" stroke="#FFE682" stroke-width="1.30911"/>
<rect y="1.85195" width="6.94715" height="6.94715" transform="translate(249.762 34) scale(0.999684 1.00032) rotate(45 0 1.85195)" stroke="#FFE682" stroke-width="2.61822"/>
<rect y="1.85195" width="3.75869" height="3.75869" transform="translate(249.762 36.2549) scale(0.999684 1.00032) rotate(45 0 1.85195)" stroke="#FCC900" stroke-width="2.61822"/>
<defs>
<clipPath id="clip0">
<rect width="636" height="114" fill="white" transform="translate(-149 456)"/>
</clipPath>
</defs>
</svg>
