<?xml version="1.0" encoding="utf-8"?>
<!-- Generator: Adobe Illustrator 22.0.1, SVG Export Plug-In . SVG Version: 6.00 Build 0)  -->
<svg version="1.1" id="Layer_1" xmlns="http://www.w3.org/2000/svg" xmlns:xlink="http://www.w3.org/1999/xlink" x="0px" y="0px"
	 viewBox="0 0 104 62" style="enable-background:new 0 0 104 62;" xml:space="preserve">
<style type="text/css">
	.st0{fill:#F9E011;}
	.st1{fill:#FCC900;}
	.st2{fill:#FFFFFF;}
</style>
<g>
	<g>
		<polygon class="st0" points="68.6,24.2 68.6,0 35.6,0 35.6,33 59.8,33 		"/>
		<polygon class="st1" points="59.8,24.2 68.6,24.2 59.8,33 		"/>
		<g>
			<path d="M49.6,22.5V10.7c0-0.5,0.6-0.9,1.1-0.6l9.9,6c0.5,0.3,0.5,0.9,0,1.2l-9.9,5.9C50.2,23.5,49.6,23.1,49.6,22.5z"/>
			<path d="M47.2,11.5l-2.3-1.3c-0.5-0.3-1.1,0.1-1.1,0.6v11.9c0,0.5,0.6,0.9,1.1,0.6l2.3-1.3c0.1-0.1,0.2-0.2,0.2-0.4V12
				C47.4,11.7,47.3,11.6,47.2,11.5z"/>
		</g>
	</g>
	<polygon class="st2" points="16.5,45.6 16.5,45.6 12.2,45.6 8.4,51.6 4.5,45.6 0,45.6 6.3,55.1 6.3,61.7 10.1,61.7 10.1,55.1 	"/>
	<path class="st2" d="M23.2,49.9L23.2,49.9l2.2,5H21L23.2,49.9z M14.2,61.7L14.2,61.7H18l1.5-3.3h7.5l1.5,3.3h3.9L25,45.6h-3.3
		L14.2,61.7z"/>
	<polygon class="st2" points="46.7,45.6 46.7,45.6 42.5,45.6 38.5,51.6 34.8,45.6 30.3,45.6 36.6,55.1 36.6,61.7 40.3,61.7 
		40.3,55.1 	"/>
	<path class="st2" d="M53.4,49.9L53.4,49.9l2.2,5h-4.4L53.4,49.9z M44.3,61.7L44.3,61.7h3.8l1.5-3.3h7.5l1.5,3.3h4l-7.5-16.1H52
		L44.3,61.7z"/>
	<path class="st2" d="M64.4,59.3L64.4,59.3c0,1.2,0.9,2.5,2.5,2.5c1.3,0,2.3-1.2,2.3-2.5c0-1-0.9-2.3-2.3-2.3
		C65.3,57,64.4,58.3,64.4,59.3"/>
	<path class="st2" d="M78.5,49L78.5,49c2,0,2.6,0.8,2.6,1.7c0,1.2-1.1,1.9-2.8,1.9h-2.2V49C77,49.1,77.9,49,78.5,49 M76.1,61.7
		L76.1,61.7v-5.6h2.3l2.5,3.4c1.7,2.3,4.2,2.9,6.1,2.2v-3.3c-1,0.4-2.3-0.1-3-0.8L82,55.4c1.1-0.5,3-1.8,3-4.7c0-3-1.9-5.2-6.4-5.2
		c-2,0-5.4,0.1-6.3,0.1v16.1h3.7V61.7z"/>
	<path class="st2" d="M103.8,45.6H100v8.7c0,2.6-0.9,4.1-3.5,4.1c-3,0-4-2-4-4.3v-8.5h-3.8v9.3c0,4.8,3.2,7.1,7.8,7.1
		c3.8,0,7.3-2.1,7.3-6.9v-9.5H103.8z"/>
</g>
</svg>
