<svg width="75" height="87" viewBox="0 0 75 87" fill="none" xmlns="http://www.w3.org/2000/svg">
<path d="M60.0184 61.2714L55.1752 70.7646L54.9587 67.6725C54.6881 63.6582 50.9813 60.5391 46.4898 60.5391H10.206C5.71452 60.5391 2.00767 63.6582 1.7371 67.6725L1.00656 81.7495C0.871271 84.2177 2.84645 86.3062 5.33572 86.3062H19.8384C19.8384 81.5325 23.7076 77.6539 28.4697 77.6539C33.2317 77.6539 37.1009 81.5325 37.1009 86.3062H47.2203H56.2304C59.1255 86.3062 61.7501 84.5161 62.8324 81.8038L70.9225 61.2714C71.0578 60.9188 70.8142 60.5391 70.4084 60.5391H61.2089C60.6948 60.5391 60.2349 60.8103 60.0184 61.2714Z" fill="white" stroke="black" stroke-width="0.79426" stroke-miterlimit="10"/>
<path d="M28.4697 77.6543C23.7076 77.6543 19.8384 81.5329 19.8384 86.3066H37.1009C37.1009 81.5329 33.2317 77.6543 28.4697 77.6543Z" fill="white" stroke="black" stroke-width="0.79426" stroke-miterlimit="10"/>
<path d="M26.7921 58.9388H29.6872C32.8529 58.9388 35.748 57.6911 37.9667 55.7383C38.102 55.6298 38.102 55.4399 37.9667 55.3314C35.748 53.4057 32.8529 52.1309 29.6872 52.1309H26.7921C23.6264 52.1309 20.7313 53.3785 18.5126 55.3314C18.3773 55.4399 18.3773 55.6298 18.5126 55.7383C20.7313 57.664 23.6264 58.9388 26.7921 58.9388Z" fill="white" stroke="black" stroke-width="0.79426" stroke-miterlimit="10"/>
<path d="M28.2532 63.1701C24.1946 63.1701 20.8936 59.8611 20.8936 55.7926V46.4893H35.6398V55.7926C35.6128 59.8611 32.3118 63.1701 28.2532 63.1701Z" fill="white" stroke="black" stroke-width="0.79426" stroke-miterlimit="10"/>
<path d="M29.579 58.5592H26.9004C23.9782 58.5592 21.2725 57.3929 19.2432 55.6028C18.7291 55.1417 17.8903 55.5214 17.8903 56.2266V59.9154C17.8903 65.6384 22.5171 70.2765 28.2262 70.2765C33.9353 70.2765 38.562 65.6384 38.562 59.9154V56.2266C38.562 55.5214 37.7503 55.1688 37.2092 55.6028C35.1799 57.3929 32.5012 58.5592 29.579 58.5592Z" fill="white" stroke="black" stroke-width="0.79426" stroke-miterlimit="10"/>
<path d="M30.5801 3.82422C41.1595 3.82422 49.6554 11.1475 49.3849 20.044L49.0872 29.8626L12.4247 30.0254L12.6682 18.5793C12.8847 10.3881 20.8395 3.82422 30.5801 3.82422Z" fill="black"/>
<path d="M21.7324 5.31641C13.3717 5.31641 6.63446 12.2329 6.85091 20.614L7.09443 29.863L36.0998 30.0258L35.8833 19.2307C35.748 11.5005 29.4437 5.31641 21.7324 5.31641Z" fill="black"/>
<path d="M49.7096 29.2391C48.6003 28.1271 47.085 27.6931 45.651 27.9101C45.6781 28.0999 45.6781 28.3169 45.6781 28.5068C45.6781 28.6967 45.7051 28.8594 45.7051 29.0493V37.3219C45.7051 37.9186 45.6781 38.5153 45.624 39.0849C45.5969 39.3019 45.5698 39.5189 45.5428 39.7359C46.598 39.7359 47.6262 39.329 48.4379 38.5424C49.0602 37.9186 49.439 37.1049 49.5743 36.2641C49.6014 36.1285 49.6555 36.02 49.7367 35.9386C51.5495 34.1213 51.5495 31.0835 49.7096 29.2391Z" fill="white" stroke="black" stroke-width="0.79426" stroke-miterlimit="10"/>
<path d="M45.678 28.5336C45.3804 20.5864 38.8055 14.1582 30.8236 14.1582H25.6827C17.4844 14.1582 10.8013 20.8848 10.8013 29.076V37.3487C10.8013 46.9774 18.6479 54.8432 28.2532 54.8432C37.2632 54.8432 44.731 47.9268 45.6239 39.1117C45.678 38.5421 45.7051 37.9454 45.7051 37.3487V29.076C45.7051 28.8862 45.678 28.6963 45.678 28.5336Z" fill="white" stroke="black" stroke-width="0.79426" stroke-miterlimit="10"/>
<path d="M47.1932 30.8936C48.3567 32.0599 48.3567 33.9585 47.1932 35.1248" stroke="black" stroke-width="0.79426" stroke-miterlimit="10" stroke-linecap="round"/>
<path d="M6.76975 29.2391C7.8791 28.1271 9.3943 27.6931 10.8283 27.9101C10.8013 28.0999 10.8013 28.3169 10.8013 28.5068C10.8013 28.6967 10.7742 28.8594 10.7742 29.0493V37.3219C10.7742 37.9186 10.8013 38.5153 10.8554 39.0849C10.8824 39.3019 10.9095 39.5189 10.9366 39.7359C9.88133 39.7359 8.85316 39.329 8.04144 38.5424C7.41912 37.9186 7.04032 37.1049 6.90504 36.2641C6.87798 36.1285 6.82386 36.02 6.74269 35.9386C4.92986 34.1213 4.92986 31.0835 6.76975 29.2391Z" fill="white" stroke="black" stroke-width="0.79426" stroke-miterlimit="10"/>
<path d="M9.31315 30.8936C8.14969 32.0599 8.14969 33.9585 9.31315 35.1248" stroke="black" stroke-width="0.79426" stroke-miterlimit="10" stroke-linecap="round"/>
<path d="M36.5598 34.3651C35.3693 34.3651 34.3952 33.3887 34.3952 32.1952V31.1103C34.3952 29.9169 35.3693 28.9404 36.5598 28.9404C37.7503 28.9404 38.7244 29.9169 38.7244 31.1103V32.1952C38.7244 33.3887 37.7503 34.3651 36.5598 34.3651Z" fill="black"/>
<path d="M36.8575 31.707C37.3058 31.707 37.6692 31.3427 37.6692 30.8933C37.6692 30.4439 37.3058 30.0796 36.8575 30.0796C36.4092 30.0796 36.0458 30.4439 36.0458 30.8933C36.0458 31.3427 36.4092 31.707 36.8575 31.707Z" fill="white"/>
<path d="M39.4008 27.1774H33.9352C33.5023 27.1774 33.1776 26.8248 33.1776 26.4179V25.2516C33.1776 24.8177 33.5294 24.4922 33.9352 24.4922H39.4008C40.1584 24.4922 40.7536 25.116 40.7536 25.8484C40.7536 26.5536 40.1584 27.1774 39.4008 27.1774Z" fill="black"/>
<path d="M32.3659 24.3296C32.5824 24.3296 32.7718 24.5195 32.7718 24.7364V26.6351C32.7718 26.8521 32.5824 27.0419 32.3659 27.0419C32.1495 27.0419 31.9601 26.8521 31.9601 26.6351V24.7364C31.9601 24.5195 32.1495 24.3296 32.3659 24.3296Z" fill="black"/>
<path d="M20.7313 34.3651C19.5408 34.3651 18.5667 33.3887 18.5667 32.1952V31.1103C18.5667 29.9169 19.5408 28.9404 20.7313 28.9404C21.9218 28.9404 22.8959 29.9169 22.8959 31.1103V32.1952C22.8959 33.3887 21.9218 34.3651 20.7313 34.3651Z" fill="black"/>
<path d="M21.0289 31.707C21.4772 31.707 21.8406 31.3427 21.8406 30.8933C21.8406 30.4439 21.4772 30.0796 21.0289 30.0796C20.5806 30.0796 20.2172 30.4439 20.2172 30.8933C20.2172 31.3427 20.5806 31.707 21.0289 31.707Z" fill="white"/>
<path d="M17.8902 27.1774H23.3558C23.7887 27.1774 24.1134 26.8248 24.1134 26.4179V25.2516C24.1134 24.8177 23.7617 24.4922 23.3558 24.4922H17.8902C17.1326 24.4922 16.5374 25.116 16.5374 25.8484C16.5374 26.5536 17.1597 27.1774 17.8902 27.1774Z" fill="black"/>
<path d="M24.9251 24.3296C24.7087 24.3296 24.5193 24.5195 24.5193 24.7364V26.6351C24.5193 26.8521 24.7087 27.0419 24.9251 27.0419C25.1416 27.0419 25.331 26.8521 25.331 26.6351V24.7364C25.331 24.5195 25.1416 24.3296 24.9251 24.3296Z" fill="black"/>
<path d="M21.7865 37.9186L22.6253 37.4575" stroke="black" stroke-width="0.812708" stroke-miterlimit="10" stroke-linecap="round" stroke-linejoin="round"/>
<path d="M18.8102 37.9186L19.649 37.4575" stroke="black" stroke-width="0.812708" stroke-miterlimit="10" stroke-linecap="round" stroke-linejoin="round"/>
<path d="M38.1832 37.9186L39.022 37.4575" stroke="black" stroke-width="0.812708" stroke-miterlimit="10" stroke-linecap="round" stroke-linejoin="round"/>
<path d="M35.2069 37.9186L36.0187 37.4575" stroke="black" stroke-width="0.812708" stroke-miterlimit="10" stroke-linecap="round" stroke-linejoin="round"/>
<path d="M24.8981 5.09919C24.8981 2.54959 26.7651 0.433973 29.2273 0.0542459C28.9297 0.0271225 28.632 0 28.3344 0C25.764 0 23.5453 1.43754 22.4089 3.55316C21.2725 2.65809 19.8114 2.11562 18.242 2.11562C17.9444 2.11562 17.6468 2.14274 17.3492 2.16987C19.5678 2.49535 21.3266 4.25836 21.6242 6.5096C21.6242 6.59097 21.6242 6.67234 21.6242 6.75371C21.6242 6.88933 21.6242 7.02495 21.6513 7.16056H25.3852C25.0605 6.53673 24.8981 5.83152 24.8981 5.09919Z" fill="black"/>
<path d="M36.4245 56.4707V66.3707" stroke="black" stroke-width="0.79426" stroke-miterlimit="10"/>
<path d="M20.0007 56.0098V66.181" stroke="black" stroke-width="0.79426" stroke-miterlimit="10"/>
<path d="M33.1776 57.9624V68.9474" stroke="black" stroke-width="0.79426" stroke-miterlimit="10"/>
<path d="M29.7143 58.5049V70.3035" stroke="black" stroke-width="0.79426" stroke-miterlimit="10"/>
<path d="M23.0312 57.854V68.839" stroke="black" stroke-width="0.79426" stroke-miterlimit="10"/>
<path d="M26.278 58.5049V69.8424" stroke="black" stroke-width="0.79426" stroke-miterlimit="10"/>
<path d="M45.4345 86.3064V73.4229" stroke="black" stroke-width="0.79426" stroke-miterlimit="10" stroke-linecap="round"/>
<path d="M45.4345 75.8099L47.6262 73.5044" stroke="black" stroke-width="0.79426" stroke-miterlimit="10" stroke-linecap="round"/>
<path d="M11.613 86.3064V73.4229" stroke="black" stroke-width="0.79426" stroke-miterlimit="10" stroke-linecap="round"/>
<path d="M11.613 75.8099L9.39429 73.5044" stroke="black" stroke-width="0.79426" stroke-miterlimit="10" stroke-linecap="round"/>
<path d="M51.6577 77.6541L58.5302 64.1738" stroke="black" stroke-width="0.79426" stroke-miterlimit="10" stroke-linecap="round"/>
<path d="M68.9202 66.3706H57.4209L60.0184 61.2714C60.2619 60.8103 60.7219 60.5391 61.236 60.5391H70.4354C70.8142 60.5391 71.0848 60.9188 70.9495 61.2714L68.9202 66.3706Z" fill="white" stroke="black" stroke-width="0.79426" stroke-miterlimit="10" stroke-linecap="round"/>
<path d="M67.4051 60.729L65.2135 66.3435" stroke="black" stroke-width="0.79426" stroke-miterlimit="10" stroke-linecap="round"/>
<path d="M63.9418 60.729L61.7231 66.3435" stroke="black" stroke-width="0.79426" stroke-miterlimit="10" stroke-linecap="round"/>
<path d="M68.1897 52.1313H61.4254C60.2349 52.1313 59.2608 51.1549 59.2608 49.9614V33.145C59.2608 31.9515 60.2349 30.9751 61.4254 30.9751H68.1897C69.3802 30.9751 70.3543 31.9515 70.3543 33.145V49.9614C70.3543 51.1549 69.3802 52.1313 68.1897 52.1313Z" fill="white" stroke="black" stroke-width="0.79426" stroke-miterlimit="10"/>
<path d="M66.025 35.5588C66.025 35.5317 66.025 35.5046 66.025 35.4774C65.6462 35.4232 65.2404 35.5317 64.9427 35.83L64.8074 35.9656L64.6722 35.83C64.1851 35.3418 63.4005 35.3418 62.9134 35.83C62.4264 36.3183 62.4264 37.1048 62.9134 37.593L64.8074 39.4917L66.7014 37.593C66.8908 37.4032 67.0261 37.132 67.0532 36.8878C66.4579 36.7251 66.025 36.1826 66.025 35.5588Z" fill="white" stroke="black" stroke-width="0.651006" stroke-miterlimit="10"/>
<path d="M71.0848 43.6416H68.2979C66.0792 43.6416 64.1852 45.2148 63.7523 47.3846L61.1819 60.5394H70.3543L72.8977 54.0027C73.3847 52.7279 73.6553 51.3446 73.6553 49.9613V46.2454C73.6823 44.8079 72.5189 43.6416 71.0848 43.6416Z" fill="white" stroke="black" stroke-width="0.79426" stroke-miterlimit="10"/>
<path d="M49.6826 48.5236L48.0862 46.9233" stroke="black" stroke-width="0.79426" stroke-miterlimit="10"/>
<path d="M48.0863 43.8044L49.6827 42.2041" stroke="black" stroke-width="0.79426" stroke-miterlimit="10"/>
<path d="M50.7108 45.2964H48.4651" stroke="black" stroke-width="0.794287" stroke-miterlimit="10"/>
<path d="M21.9489 43.2617C22.5171 45.5943 25.1146 47.3845 28.2262 47.3845C31.3377 47.3845 33.9352 45.6214 34.5034 43.2617H21.9489Z" fill="white" stroke="black" stroke-width="0.79426" stroke-miterlimit="10"/>
</svg>
