<svg width="1380" height="1260" viewBox="0 0 1380 1260" fill="none" xmlns="http://www.w3.org/2000/svg">
<rect width="1380" height="1260" fill="#283142"/>
<mask id="mask0" mask-type="alpha" maskUnits="userSpaceOnUse" x="0" y="0" width="1380" height="1260">
<rect width="1380" height="1260" fill="#283142"/>
</mask>
<g mask="url(#mask0)">
<path d="M1398.27 395.608C1398.27 395.608 1420 377.546 1420 405.767V1503.78C1420 1503.78 1420 1532 1391.78 1532H-11.7784C-11.7784 1532 -40 1532 -40 1503.78V366.36C-40 366.36 -40 338.139 -14.0361 349.239L131.682 411.703C131.682 411.703 157.646 422.803 181.728 408.128L410.982 268.15C410.982 268.15 435.064 253.474 460.276 266.174L895.266 515.361C895.266 515.361 920.477 528.06 946.159 516.49L999.121 492.595C999.121 492.595 1024.9 481.025 1050.86 491.937L1178.52 565.37C1178.52 565.37 1204.57 576.282 1226.31 558.22L1398.27 395.608Z" fill="#10192C" fill-opacity="0.5"/>
<rect x="144.5" y="893.243" width="15.9203" height="15.9203" transform="rotate(45 144.5 893.243)" stroke="#FFE682" stroke-width="6"/>
<rect x="144.5" y="898.408" width="8.61354" height="8.61354" transform="rotate(45 144.5 898.408)" stroke="#FCC900" stroke-width="6"/>
<rect x="1315.5" y="583.243" width="15.9203" height="15.9203" transform="rotate(45 1315.5 583.243)" stroke="#FFE682" stroke-width="6"/>
<rect x="1315.5" y="588.408" width="8.61354" height="8.61354" transform="rotate(45 1315.5 588.408)" stroke="#FCC900" stroke-width="6"/>
<rect x="1245.5" y="1058.24" width="15.9203" height="15.9203" transform="rotate(45 1245.5 1058.24)" stroke="#FFE682" stroke-width="6"/>
<rect x="1245.5" y="1063.41" width="8.61354" height="8.61354" transform="rotate(45 1245.5 1063.41)" stroke="#FCC900" stroke-width="6"/>
<rect x="33" y="997.728" width="85.2376" height="85.2376" transform="rotate(45 33 997.728)" stroke="#FFE682" stroke-width="18"/>
<rect x="33" y="1022.06" width="50.8251" height="50.8251" transform="rotate(45 33 1022.06)" stroke="#FCC900" stroke-width="18"/>
<rect x="1115.5" y="135.243" width="15.9203" height="15.9203" transform="rotate(45 1115.5 135.243)" stroke="#FFE682" stroke-width="6"/>
<rect x="1115.5" y="140.408" width="8.61354" height="8.61354" transform="rotate(45 1115.5 140.408)" stroke="#FCC900" stroke-width="6"/>
</g>
<g clip-path="url(#clip0)">
<g style="mix-blend-mode:multiply">
<path d="M792.821 1235.82L700.83 1308.29C685.92 1320.04 694.226 1344 713.207 1344H1144.67C1163.77 1344 1172 1319.79 1156.86 1308.14L989.644 1179.59C982.325 1173.96 972.107 1174.08 964.915 1179.86L870.178 1256.1C863.1 1261.8 853.073 1262.01 845.763 1256.61L817.073 1235.44C809.826 1230.09 799.897 1230.25 792.821 1235.82Z" fill="#DBE1F0" fill-opacity="0.2"/>
</g>
<path d="M535.104 1173.54L464.828 1119.55C457.527 1113.94 447.34 1114.04 440.15 1119.79L242.526 1277.88C227.762 1289.69 236.113 1313.5 255.019 1313.5H1006.14C1024.97 1313.5 1033.37 1289.85 1018.75 1277.97L881.429 1166.47C874.026 1160.46 863.407 1160.51 856.063 1166.6L806.194 1207.91C798.958 1213.91 788.524 1214.06 781.12 1208.27L658.894 1112.76C651.545 1107.01 641.201 1107.11 633.964 1113L559.904 1173.2C552.714 1179.04 542.451 1179.19 535.104 1173.54Z" fill="#DBE1F0" fill-opacity="0.1"/>
<path d="M367.918 1219.75L253.583 1311.99C238.901 1323.84 247.277 1347.56 266.141 1347.56H840.385C859.356 1347.56 867.668 1323.61 852.778 1311.86L661.08 1160.54C653.959 1154.91 643.946 1154.79 636.688 1160.23L633.174 1162.87C625.981 1168.26 616.071 1168.2 608.953 1162.7L571.212 1133.57C563.967 1127.97 553.851 1128.01 546.65 1133.66L427.542 1227.06C420.435 1232.63 410.475 1232.75 403.237 1227.35L392.44 1219.29C385.12 1213.82 375.027 1214.01 367.918 1219.75Z" fill="#DBE1F0" fill-opacity="0.15"/>
<path d="M516.682 1122L513.5 1125.18L516.682 1128.36L519.864 1125.18L516.682 1122Z" fill="#FFE67D"/>
<path d="M435.682 1149L432.5 1152.18L435.682 1155.36L438.864 1152.18L435.682 1149Z" fill="#FFE67D"/>
<path d="M956.682 1212L953.5 1215.18L956.682 1218.36L959.864 1215.18L956.682 1212Z" fill="#FFE67D"/>
<path d="M871.682 1132L868.5 1135.18L871.682 1138.36L874.864 1135.18L871.682 1132Z" fill="#FFE67D"/>
<path d="M742.682 1120L739.5 1123.18L742.682 1126.36L745.864 1123.18L742.682 1120Z" fill="#FFE67D"/>
<path d="M505.5 1207.8L520.3 1222.6L535.1 1207.8L520.3 1193L505.5 1207.8ZM531 1207.8L520.3 1218.5L509.7 1207.8L520.3 1197.2L531 1207.8Z" fill="#FFE67D"/>
<path d="M520.299 1218.5L530.899 1207.9L520.299 1197.2L509.699 1207.8L520.299 1218.5ZM513.999 1207.8L520.399 1201.4L526.799 1207.8L520.399 1214.2L513.999 1207.8Z" fill="#FFD400"/>
<path d="M828.5 1178.8L843.3 1193.6L858.1 1178.8L843.3 1164L828.5 1178.8ZM854 1178.8L843.3 1189.5L832.7 1178.8L843.3 1168.2L854 1178.8Z" fill="#FFE67D"/>
<path d="M843.299 1189.5L853.899 1178.9L843.299 1168.2L832.699 1178.8L843.299 1189.5ZM836.999 1178.8L843.399 1172.4L849.799 1178.8L843.399 1185.2L836.999 1178.8Z" fill="#FFD400"/>
<path d="M468.5 1166L477.5 1175L486.5 1166L477.5 1157L468.5 1166ZM484.007 1166L477.5 1172.51L471.054 1166L477.5 1159.55L484.007 1166Z" fill="#FFE67D"/>
<path d="M477.5 1172.51L483.945 1166.06L477.5 1159.55L471.054 1166L477.5 1172.51ZM473.668 1166L477.56 1162.11L481.452 1166L477.56 1169.89L473.668 1166Z" fill="#FFD400"/>
<path d="M910.5 1163L916.5 1169L922.5 1163L916.5 1157L910.5 1163ZM920.838 1163L916.5 1167.34L912.203 1163L916.5 1158.7L920.838 1163Z" fill="#FFE67D"/>
<path d="M916.5 1167.34L920.797 1163.04L916.5 1158.7L912.202 1163L916.5 1167.34ZM913.946 1163L916.54 1160.41L919.135 1163L916.54 1165.59L913.946 1163Z" fill="#FFD400"/>
<path d="M585.5 1110L591.5 1116L597.5 1110L591.5 1104L585.5 1110ZM595.838 1110L591.5 1114.34L587.203 1110L591.5 1105.7L595.838 1110Z" fill="#FFE67D"/>
<path d="M591.5 1114.34L595.797 1110.04L591.5 1105.7L587.202 1110L591.5 1114.34ZM588.946 1110L591.54 1107.41L594.135 1110L591.54 1112.59L588.946 1110Z" fill="#FFD400"/>
<path d="M414.5 1203L420.5 1209L426.5 1203L420.5 1197L414.5 1203ZM424.838 1203L420.5 1207.34L416.203 1203L420.5 1198.7L424.838 1203Z" fill="#FFE67D"/>
<path d="M420.5 1207.34L424.797 1203.04L420.5 1198.7L416.202 1203L420.5 1207.34ZM417.946 1203L420.54 1200.41L423.135 1203L420.54 1205.59L417.946 1203Z" fill="#FFD400"/>
<path d="M882.5 1204L891.5 1213L900.5 1204L891.5 1195L882.5 1204ZM898.007 1204L891.5 1210.51L885.054 1204L891.5 1197.55L898.007 1204Z" fill="#FFE67D"/>
<path d="M891.5 1210.51L897.945 1204.06L891.5 1197.55L885.054 1204L891.5 1210.51ZM887.668 1204L891.56 1200.11L895.452 1204L891.56 1207.89L887.668 1204Z" fill="#FFD400"/>
<path d="M599.4 1152.06H565.328L576.531 1135.95C577.036 1135.27 578.005 1135.06 578.721 1135.56L580.279 1137.05C581.332 1138.02 582.975 1138.07 584.028 1137.09L585.67 1135.61C586.386 1135.14 587.313 1135.31 587.818 1135.99L599.4 1152.06Z" fill="#FCC900"/>
<path d="M602.139 1249.08C601.886 1249.08 601.592 1249.04 601.297 1249C599.612 1248.61 598.433 1247.13 598.433 1245.39V1230.97C598.433 1229.4 599.696 1228.09 601.297 1228.09C602.897 1228.09 604.161 1229.36 604.161 1230.97V1236.44L614.648 1214.14C615.322 1212.7 617.007 1212.1 618.439 1212.78C619.87 1213.46 620.46 1215.16 619.786 1216.6L605.508 1247C604.835 1248.27 603.529 1249.08 602.139 1249.08Z" fill="#FCBAA4"/>
<path d="M612.583 1214.69C613.088 1214.65 613.552 1215.03 613.636 1215.54L614.141 1219.99C614.184 1220.5 613.805 1220.97 613.299 1221.05C612.794 1221.09 612.33 1220.71 612.246 1220.2L611.741 1215.75C611.699 1215.24 612.078 1214.78 612.583 1214.69Z" fill="#FCBAA4"/>
<path d="M604.203 1230.97H560.064V1221.77C560.064 1213.67 566.592 1207.1 574.636 1207.1H589.588C597.632 1207.1 604.161 1213.67 604.161 1221.77V1230.97H604.203Z" fill="#FCC900"/>
<path d="M598.687 1260.7H565.583V1223.26C565.583 1218.42 598.56 1218.42 598.56 1223.26L598.687 1260.7Z" fill="#F9E011"/>
<path d="M579.944 1207.06H574.637C566.593 1207.06 560.064 1213.63 560.064 1221.73V1230.93H565.919V1222.71C565.919 1216.18 570.341 1210.87 576.827 1210.87H579.944V1207.06Z" fill="#F9E011"/>
<path d="M565.665 1230.97H560.063V1260.7H565.665V1230.97Z" fill="#FCBAA4"/>
<path d="M594.347 1187.98H600.159C602.855 1187.98 605.087 1185.77 605.087 1183.01V1175.13H594.389V1187.98H594.347Z" fill="black"/>
<path d="M595.904 1224.15H587.649V1227.12H595.904V1224.15Z" fill="white"/>
<path d="M569.329 1240.26C567.055 1240.26 565.201 1238.39 565.201 1236.11V1231.48C565.201 1229.19 567.055 1227.33 569.329 1227.33C571.603 1227.33 573.456 1229.19 573.456 1231.48V1236.11C573.456 1238.35 571.603 1240.26 569.329 1240.26Z" fill="black"/>
<path d="M567.812 1229.62C568.655 1230.47 570.002 1230.47 570.803 1229.62L574.256 1226.14C575.099 1225.29 575.099 1223.93 574.256 1223.13C573.414 1222.28 572.066 1222.28 571.266 1223.13L567.812 1226.61C567.012 1227.41 567.012 1228.77 567.812 1229.62Z" fill="black"/>
<path d="M570.803 1229.62C569.96 1230.47 568.612 1230.47 567.812 1229.62L564.359 1226.14C563.516 1225.29 563.516 1223.93 564.359 1223.13C565.201 1222.28 566.549 1222.28 567.349 1223.13L570.803 1226.61C571.645 1227.41 571.645 1228.77 570.803 1229.62Z" fill="black"/>
<path d="M567.812 1225.04C568.655 1225.89 570.002 1225.89 570.803 1225.04L574.256 1221.56C575.099 1220.71 575.099 1219.35 574.256 1218.55C573.414 1217.7 572.066 1217.7 571.266 1218.55L567.812 1222.03C567.012 1222.83 567.012 1224.19 567.812 1225.04Z" fill="black"/>
<path d="M570.803 1225.04C569.96 1225.89 568.612 1225.89 567.812 1225.04L564.359 1221.56C563.516 1220.71 563.516 1219.35 564.359 1218.55C565.201 1217.7 566.549 1217.7 567.349 1218.55L570.803 1222.03C571.645 1222.83 571.645 1224.19 570.803 1225.04Z" fill="#1A1A1A"/>
<path d="M567.812 1220.46C568.655 1221.31 570.002 1221.31 570.803 1220.46L574.256 1216.98C575.099 1216.13 575.099 1214.78 574.256 1213.97C573.414 1213.12 572.066 1213.12 571.266 1213.97L567.812 1217.45C567.012 1218.25 567.012 1219.61 567.812 1220.46Z" fill="black"/>
<path d="M570.803 1220.46C569.96 1221.31 568.612 1221.31 567.812 1220.46L564.359 1216.98C563.516 1216.13 563.516 1214.78 564.359 1213.97C565.201 1213.12 566.549 1213.12 567.349 1213.97L570.803 1217.45C571.645 1218.25 571.645 1219.61 570.803 1220.46Z" fill="black"/>
<path d="M567.812 1215.84C568.655 1216.68 570.002 1216.68 570.803 1215.84L574.256 1212.36C575.099 1211.51 575.099 1210.15 574.256 1209.35C573.414 1208.5 572.066 1208.5 571.266 1209.35L567.812 1212.83C567.012 1213.67 567.012 1215.03 567.812 1215.84Z" fill="black"/>
<path d="M570.803 1215.84C569.96 1216.68 568.612 1216.68 567.812 1215.84L564.359 1212.36C563.516 1211.51 563.516 1210.15 564.359 1209.35C565.201 1208.5 566.549 1208.5 567.349 1209.35L570.803 1212.83C571.645 1213.67 571.645 1215.03 570.803 1215.84Z" fill="#1A1A1A"/>
<path d="M567.812 1211.26C568.655 1212.1 570.002 1212.1 570.803 1211.26L574.256 1207.78C575.099 1206.93 575.099 1205.57 574.256 1204.77C573.414 1203.92 572.066 1203.92 571.266 1204.77L567.812 1208.25C567.012 1209.09 567.012 1210.45 567.812 1211.26Z" fill="black"/>
<path d="M570.803 1211.26C569.96 1212.1 568.612 1212.1 567.812 1211.26L564.359 1207.78C563.516 1206.93 563.516 1205.57 564.359 1204.77C565.201 1203.92 566.549 1203.92 567.349 1204.77L570.803 1208.25C571.645 1209.09 571.645 1210.45 570.803 1211.26Z" fill="black"/>
<path d="M567.812 1206.68C568.655 1207.52 570.002 1207.52 570.803 1206.68L574.256 1203.2C575.099 1202.35 575.099 1200.99 574.256 1200.19C573.414 1199.34 572.066 1199.34 571.266 1200.19L567.812 1203.67C567.012 1204.47 567.012 1205.83 567.812 1206.68Z" fill="black"/>
<path d="M570.803 1206.68C569.96 1207.52 568.612 1207.52 567.812 1206.68L564.359 1203.2C563.516 1202.35 563.516 1200.99 564.359 1200.19C565.201 1199.34 566.549 1199.34 567.349 1200.19L570.803 1203.67C571.645 1204.47 571.645 1205.83 570.803 1206.68Z" fill="#1A1A1A"/>
<path d="M567.812 1202.1C568.655 1202.95 570.002 1202.95 570.803 1202.1L574.256 1198.62C575.099 1197.77 575.099 1196.41 574.256 1195.61C573.414 1194.76 572.066 1194.76 571.266 1195.61L567.812 1199.09C567.012 1199.89 567.012 1201.25 567.812 1202.1Z" fill="black"/>
<path d="M570.803 1202.1C569.96 1202.95 568.612 1202.95 567.812 1202.1L564.359 1198.62C563.516 1197.77 563.516 1196.41 564.359 1195.61C565.201 1194.76 566.549 1194.76 567.349 1195.61L570.803 1199.09C571.645 1199.89 571.645 1201.25 570.803 1202.1Z" fill="black"/>
<path d="M567.812 1197.52C568.655 1198.37 570.003 1198.37 570.803 1197.52L574.256 1194.04C575.099 1193.19 575.099 1191.84 574.256 1191.03C573.414 1190.18 572.066 1190.18 571.266 1191.03L567.812 1194.51C567.012 1195.31 567.012 1196.67 567.812 1197.52Z" fill="black"/>
<path d="M570.803 1197.52C569.961 1198.37 568.613 1198.37 567.813 1197.52L564.359 1194.04C563.517 1193.19 563.517 1191.84 564.359 1191.03C565.201 1190.18 566.549 1190.18 567.349 1191.03L570.803 1194.51C571.645 1195.31 571.645 1196.67 570.803 1197.52Z" fill="#1A1A1A"/>
<path d="M592.746 1180.64V1192.98H568.487C563.264 1192.98 559.052 1188.74 559.052 1183.48V1163.38C559.052 1157.02 564.148 1151.89 570.466 1151.89H593.631C599.948 1151.89 605.044 1157.02 605.044 1163.38V1181.06L592.746 1180.64Z" fill="black"/>
<path d="M582.091 1213.12C579.017 1213.12 576.532 1210.62 576.532 1207.52V1195.27H587.651V1207.52C587.651 1210.62 585.166 1213.12 582.091 1213.12Z" fill="#F99678"/>
<path d="M598.643 1177.29H600.118C601.634 1177.29 602.855 1178.52 602.855 1180.05V1183.35C602.855 1184.88 601.634 1186.11 600.118 1186.11H598.643V1177.29Z" fill="#FCBAA4"/>
<path d="M565.58 1186.15H564.106C562.59 1186.15 561.368 1184.92 561.368 1183.4V1180.09C561.368 1178.56 562.59 1177.33 564.106 1177.33H565.58V1186.15Z" fill="#FCBAA4"/>
<path d="M584.869 1201.21H579.352C571.729 1201.21 565.58 1194.97 565.58 1187.34V1171.57C565.58 1167.37 568.991 1163.93 573.161 1163.93H591.103C595.272 1163.93 598.684 1167.37 598.684 1171.57V1187.34C598.684 1195.01 592.493 1201.21 584.869 1201.21Z" fill="#FCBAA4"/>
<path d="M594.177 1173.86H587.06C586.512 1173.86 586.091 1173.43 586.091 1172.88V1172.46C586.091 1171.9 586.512 1171.48 587.06 1171.48H594.177C594.725 1171.48 595.146 1171.9 595.146 1172.46V1172.88C595.104 1173.39 594.683 1173.86 594.177 1173.86Z" fill="black"/>
<path d="M577.164 1173.86H570.046C569.498 1173.86 569.077 1173.43 569.077 1172.88V1172.46C569.077 1171.9 569.498 1171.48 570.046 1171.48H577.164C577.711 1171.48 578.132 1171.9 578.132 1172.46V1172.88C578.132 1173.39 577.669 1173.86 577.164 1173.86Z" fill="black"/>
<path d="M590.39 1180.64C591.692 1180.64 592.748 1179.58 592.748 1178.27C592.748 1176.95 591.692 1175.89 590.39 1175.89C589.087 1175.89 588.031 1176.95 588.031 1178.27C588.031 1179.58 589.087 1180.64 590.39 1180.64Z" fill="black"/>
<path d="M590.979 1178.01C591.305 1178.01 591.569 1177.75 591.569 1177.42C591.569 1177.09 591.305 1176.82 590.979 1176.82C590.654 1176.82 590.39 1177.09 590.39 1177.42C590.39 1177.75 590.654 1178.01 590.979 1178.01Z" fill="white"/>
<path d="M573.791 1180.64C575.094 1180.64 576.15 1179.58 576.15 1178.27C576.15 1176.95 575.094 1175.89 573.791 1175.89C572.489 1175.89 571.433 1176.95 571.433 1178.27C571.433 1179.58 572.489 1180.64 573.791 1180.64Z" fill="black"/>
<path d="M574.381 1178.01C574.707 1178.01 574.971 1177.75 574.971 1177.42C574.971 1177.09 574.707 1176.82 574.381 1176.82C574.056 1176.82 573.792 1177.09 573.792 1177.42C573.792 1177.75 574.056 1178.01 574.381 1178.01Z" fill="white"/>
<path d="M582.135 1187C581.377 1187 580.619 1186.87 579.86 1186.66C579.481 1186.53 579.313 1186.15 579.439 1185.77C579.566 1185.47 579.903 1185.3 580.24 1185.39C581.461 1185.77 582.809 1185.77 584.03 1185.39C584.367 1185.3 584.704 1185.47 584.83 1185.77C584.957 1186.11 584.788 1186.53 584.409 1186.66C583.651 1186.92 582.893 1187 582.135 1187Z" fill="#F99678"/>
<path d="M590.388 1187.98C592.226 1187.98 593.716 1186.97 593.716 1185.73C593.716 1184.49 592.226 1183.48 590.388 1183.48C588.551 1183.48 587.061 1184.49 587.061 1185.73C587.061 1186.97 588.551 1187.98 590.388 1187.98Z" fill="#F99678"/>
<path d="M573.793 1187.98C575.631 1187.98 577.12 1186.97 577.12 1185.73C577.12 1184.49 575.631 1183.48 573.793 1183.48C571.956 1183.48 570.466 1184.49 570.466 1185.73C570.466 1186.97 571.956 1187.98 573.793 1187.98Z" fill="#F99678"/>
<path d="M588.197 1191.71C588.07 1191.41 587.775 1191.24 587.438 1191.37H587.396C586.343 1191.79 585.248 1192.09 584.111 1192.26C584.111 1192.26 584.111 1192.26 584.069 1192.26C583.858 1192.3 583.648 1192.3 583.437 1192.34C583.353 1192.34 583.311 1192.34 583.227 1192.34C583.058 1192.34 582.932 1192.39 582.763 1192.39C582.679 1192.39 582.553 1192.39 582.469 1192.39C582.342 1192.39 582.216 1192.39 582.09 1192.39C581.963 1192.39 581.837 1192.39 581.71 1192.39C581.626 1192.39 581.5 1192.39 581.416 1192.39C581.247 1192.39 581.121 1192.39 580.952 1192.34C580.868 1192.34 580.826 1192.34 580.742 1192.34C580.531 1192.34 580.321 1192.3 580.11 1192.26C580.11 1192.26 580.11 1192.26 580.068 1192.26C578.973 1192.09 577.878 1191.79 576.783 1191.37H576.741C576.446 1191.28 576.109 1191.41 575.983 1191.71C575.856 1192 576.025 1192.34 576.319 1192.47C577.92 1193.11 579.647 1193.49 581.331 1193.57C581.416 1193.57 581.458 1193.57 581.542 1193.57C581.71 1193.57 581.879 1193.57 582.047 1193.57C582.216 1193.57 582.384 1193.57 582.553 1193.57C582.637 1193.57 582.679 1193.57 582.763 1193.57C584.448 1193.49 586.133 1193.11 587.775 1192.47C588.154 1192.34 588.323 1192 588.197 1191.71Z" fill="#F99678"/>
<path d="M583.733 1191.11C583.438 1191.03 583.101 1191.16 582.933 1191.41C582.764 1191.71 582.469 1191.88 582.09 1191.88C581.711 1191.88 581.416 1191.67 581.248 1191.41C581.079 1191.16 580.742 1191.03 580.448 1191.11C579.142 1191.45 578.215 1192.17 578.215 1192.98C578.215 1194.12 579.942 1195.06 582.048 1195.06C584.154 1195.06 585.881 1194.12 585.881 1192.98C585.965 1192.13 585.038 1191.41 583.733 1191.11Z" fill="#F99678"/>
<path d="M577.921 1167.11H563.138V1165.5C563.138 1163.3 565.412 1161.47 568.192 1161.47H582.469C582.427 1164.02 581.122 1167.11 577.921 1167.11Z" fill="black"/>
<path d="M586.471 1167.11H600.833V1165.5C600.833 1163.3 598.559 1161.47 595.779 1161.47H581.501C581.501 1164.02 583.228 1167.11 586.471 1167.11Z" fill="black"/>
<path d="M588.787 1164.14H605.002V1162.58C605.002 1158.04 602.433 1154.39 599.316 1154.39H583.185C583.185 1159.56 583.269 1164.14 588.787 1164.14Z" fill="#1A1A1A"/>
<path d="M575.225 1164.14H559.052V1162.58C559.052 1158.04 561.621 1154.39 564.738 1154.39H580.827C580.827 1159.56 580.743 1164.14 575.225 1164.14Z" fill="#1A1A1A"/>
<path d="M565.455 1182.97C565.244 1182.97 565.076 1182.8 565.076 1182.59C565.076 1181.28 564.023 1180.22 562.717 1180.22C562.507 1180.22 562.338 1180.05 562.338 1179.83C562.338 1179.62 562.507 1179.45 562.717 1179.45C564.444 1179.45 565.876 1180.89 565.876 1182.63C565.834 1182.8 565.666 1182.97 565.455 1182.97Z" fill="#F99678"/>
<path d="M598.897 1182.97C598.686 1182.97 598.518 1182.8 598.518 1182.59C598.518 1180.85 599.95 1179.41 601.676 1179.41C601.887 1179.41 602.055 1179.58 602.055 1179.79C602.055 1180 601.887 1180.17 601.676 1180.17C600.371 1180.17 599.318 1181.23 599.318 1182.55C599.276 1182.8 599.107 1182.97 598.897 1182.97Z" fill="#F99678"/>
<path d="M569.329 1227.28V1240.26C571.604 1240.26 573.457 1238.39 573.457 1236.11V1231.48C573.457 1229.15 571.604 1227.28 569.329 1227.28Z" fill="#1A1A1A"/>
<path d="M570.675 1232.16H567.938C566.379 1232.16 565.116 1230.89 565.116 1229.32C565.116 1227.75 566.379 1226.48 567.938 1226.48H570.675C572.234 1226.48 573.497 1227.75 573.497 1229.32C573.497 1230.89 572.234 1232.16 570.675 1232.16Z" fill="#F9E011"/>
<path d="M570.677 1232.16H569.792C568.234 1232.16 566.971 1230.89 566.971 1229.32C566.971 1227.75 568.234 1226.48 569.792 1226.48H570.677C572.235 1226.48 573.499 1227.75 573.499 1229.32C573.499 1230.89 572.235 1232.16 570.677 1232.16Z" fill="#FCC900"/>
<path d="M601.758 1155.2L582.173 1159.69L562.462 1155.2L567.811 1146.34H597.293L601.758 1155.2Z" fill="#F9E011"/>
<path d="M587.144 1257.82H542.5V1260.7H587.144V1257.82Z" fill="#BDC5DF"/>
<path d="M543.89 1257.82H542.5V1260.7H543.89V1257.82Z" fill="#DBE1F0"/>
<path d="M581.838 1240.9H547.808C546.67 1240.9 545.786 1241.83 545.786 1242.93V1257.77H583.86V1242.93C583.86 1241.79 582.976 1240.9 581.838 1240.9Z" fill="#DBE1F0"/>
<path d="M548.481 1240.9H547.808C546.67 1240.9 545.786 1241.83 545.786 1242.93V1257.77H548.524V1240.9H548.481Z" fill="#F5F4F9"/>
<path d="M560.189 1243.44H547.301V1244.63H560.189V1243.44Z" fill="#BDC5DF"/>
<path d="M560.189 1245.82H547.301V1247H560.189V1245.82Z" fill="#BDC5DF"/>
<path d="M560.189 1248.15H547.301V1249.34H560.189V1248.15Z" fill="#BDC5DF"/>
<path d="M582.343 1243.44H577.036V1249.55H582.343V1243.44Z" fill="#BDC5DF"/>
<path d="M582.343 1250.73H577.036V1251.92H582.343V1250.73Z" fill="#BDC5DF"/>
<path d="M554.209 1234.32H551.598V1240.9H554.209V1234.32Z" fill="#DBE1F0"/>
<path d="M552.272 1234.32H551.598V1240.9H552.272V1234.32Z" fill="#F5F4F9"/>
<path d="M560.063 1226.82H545.743V1234.96H560.063V1226.82Z" fill="#DBE1F0"/>
<path d="M546.417 1226.82H545.743V1234.96H546.417V1226.82Z" fill="#F5F4F9"/>
<path d="M558.548 1228.39H547.26V1233.48H558.548V1228.39Z" fill="#F5F4F9"/>
<path d="M554.209 1239.16H551.598V1240.9H554.209V1239.16Z" fill="#BDC5DF"/>
<path d="M577.078 1138.87L574.973 1138.19L569.582 1145.91H581.501V1144.98C581.501 1142.18 579.69 1139.72 577.078 1138.87Z" fill="#F9E011"/>
<path d="M696.391 1176.94H660.682C645.535 1176.94 633.267 1189.13 633.267 1204.18V1230.91C633.267 1241.04 641.503 1249.22 651.697 1249.22H705.318C715.512 1249.22 723.748 1241.04 723.748 1230.91V1204.18C723.748 1189.13 711.481 1176.94 696.391 1176.94Z" fill="#F2F2F2"/>
<path d="M695.183 1176.94H661.836C652.275 1176.94 644.557 1184.61 644.557 1194.11V1261.47H712.404V1194.11C712.462 1184.67 704.686 1176.94 695.183 1176.94Z" fill="#F9E011"/>
<path d="M691.956 1155.25H665.117V1173.22H691.956V1155.25Z" fill="#F99678"/>
<path d="M686.944 1161.95H670.184C660.278 1161.95 652.215 1153.94 652.215 1144.09V1109.36C652.215 1105.47 655.44 1102.2 659.414 1102.2H697.772C701.689 1102.2 704.971 1105.41 704.971 1109.36V1144.09C704.914 1153.94 696.851 1161.95 686.944 1161.95Z" fill="#FCBAA4"/>
<path d="M705.836 1140.89H651.293C647.665 1140.89 644.67 1137.91 644.67 1134.31V1132.65C644.67 1129.04 647.665 1126.07 651.293 1126.07H705.836C709.464 1126.07 712.459 1129.04 712.459 1132.65V1134.31C712.459 1137.91 709.464 1140.89 705.836 1140.89Z" fill="#FCBAA4"/>
<path d="M700.421 1106.95H656.707V1085.04C656.707 1082.29 658.953 1080 661.775 1080H695.353C698.118 1080 700.421 1082.23 700.421 1085.04V1106.95Z" fill="#F9E011"/>
<path d="M700.421 1106.95H665.058V1084.81C665.058 1082.17 667.246 1080 669.896 1080H695.583C698.232 1080 700.421 1082.17 700.421 1084.81V1106.95Z" fill="#FCC900"/>
<path d="M697.369 1177H659.99V1166.01H674.216L678.536 1174.08L681.992 1166.01H697.369V1177Z" fill="#FCC900"/>
<path d="M663.448 1177.06L659.647 1177.17V1165.21H665.118V1175.34C665.118 1176.26 664.369 1177 663.448 1177.06Z" fill="#F9E011"/>
<path d="M704.914 1112.1H652.215V1088.53H658.608L678.535 1093.45L698.866 1088.53H704.914V1112.1Z" fill="#FCC900"/>
<path d="M665.116 1112.1H652.215V1088.53H657.744L665.116 1090.59V1112.1Z" fill="#F9E011"/>
<path d="M700.421 1087.73L678.535 1090.64L656.707 1087.73V1088.53L678.535 1093.91L700.421 1088.53V1087.73Z" fill="#F9E011"/>
<path d="M678.535 1092.93L656.707 1088.53L678.535 1093.91L700.421 1088.53L678.535 1092.93Z" fill="#FCC900"/>
<path d="M712.404 1250.88H644.557V1261.52H712.404V1250.88Z" fill="#FCC900"/>
<path d="M651.699 1250.88H644.557V1261.52H651.699V1250.88Z" fill="#F9E011"/>
<path d="M678.535 1174.02C678.247 1174.02 677.959 1173.85 677.844 1173.62L673.755 1166.01H659.644C659.183 1166.01 658.838 1165.67 658.838 1165.21C658.838 1164.75 659.183 1164.41 659.644 1164.41H674.158C674.446 1164.41 674.734 1164.58 674.849 1164.81L678.362 1171.39L681.184 1164.87C681.3 1164.58 681.588 1164.41 681.933 1164.41H697.311C697.772 1164.41 698.117 1164.75 698.117 1165.21C698.117 1165.67 697.772 1166.01 697.311 1166.01H682.567L679.284 1173.57C679.111 1173.8 678.823 1174.02 678.535 1174.02Z" fill="#660033"/>
<path d="M687.924 1224.56C688.974 1224.56 689.825 1223.71 689.825 1222.67C689.825 1221.62 688.974 1220.78 687.924 1220.78C686.874 1220.78 686.023 1221.62 686.023 1222.67C686.023 1223.71 686.874 1224.56 687.924 1224.56Z" fill="#660033"/>
<path d="M669.089 1224.56C670.139 1224.56 670.99 1223.71 670.99 1222.67C670.99 1221.62 670.139 1220.78 669.089 1220.78C668.039 1220.78 667.188 1221.62 667.188 1222.67C667.188 1223.71 668.039 1224.56 669.089 1224.56Z" fill="#660033"/>
<path d="M687.924 1208.53C688.974 1208.53 689.825 1207.69 689.825 1206.64C689.825 1205.6 688.974 1204.76 687.924 1204.76C686.874 1204.76 686.023 1205.6 686.023 1206.64C686.023 1207.69 686.874 1208.53 687.924 1208.53Z" fill="#660033"/>
<path d="M669.089 1208.53C670.139 1208.53 670.99 1207.69 670.99 1206.64C670.99 1205.6 670.139 1204.76 669.089 1204.76C668.039 1204.76 667.188 1205.6 667.188 1206.64C667.188 1207.69 668.039 1208.53 669.089 1208.53Z" fill="#660033"/>
<path d="M687.924 1192.45C688.974 1192.45 689.825 1191.61 689.825 1190.56C689.825 1189.52 688.974 1188.67 687.924 1188.67C686.874 1188.67 686.023 1189.52 686.023 1190.56C686.023 1191.61 686.874 1192.45 687.924 1192.45Z" fill="#660033"/>
<path d="M669.089 1192.45C670.139 1192.45 670.99 1191.61 670.99 1190.56C670.99 1189.52 670.139 1188.67 669.089 1188.67C668.039 1188.67 667.188 1189.52 667.188 1190.56C667.188 1191.61 668.039 1192.45 669.089 1192.45Z" fill="#660033"/>
<path d="M652.101 1135.45C651.641 1135.45 651.295 1135.11 651.295 1134.65C651.295 1133.05 649.97 1131.73 648.358 1131.73C647.897 1131.73 647.551 1131.39 647.551 1130.93C647.551 1130.47 647.897 1130.13 648.358 1130.13C650.892 1130.13 652.908 1132.19 652.908 1134.65C652.908 1135.11 652.562 1135.45 652.101 1135.45Z" fill="#F99678"/>
<path d="M705.029 1135.45C704.568 1135.45 704.222 1135.11 704.222 1134.65C704.222 1132.13 706.296 1130.13 708.772 1130.13C709.233 1130.13 709.579 1130.47 709.579 1130.93C709.579 1131.39 709.233 1131.73 708.772 1131.73C707.16 1131.73 705.835 1133.05 705.835 1134.65C705.835 1135.11 705.489 1135.45 705.029 1135.45Z" fill="#F99678"/>
<path d="M692.012 1131.62C693.793 1131.62 695.237 1130.18 695.237 1128.41C695.237 1126.64 693.793 1125.21 692.012 1125.21C690.23 1125.21 688.786 1126.64 688.786 1128.41C688.786 1130.18 690.23 1131.62 692.012 1131.62Z" fill="black"/>
<path d="M692.82 1128.07C693.265 1128.07 693.626 1127.71 693.626 1127.27C693.626 1126.83 693.265 1126.47 692.82 1126.47C692.374 1126.47 692.013 1126.83 692.013 1127.27C692.013 1127.71 692.374 1128.07 692.82 1128.07Z" fill="white"/>
<path d="M665.061 1131.62C666.842 1131.62 668.286 1130.18 668.286 1128.41C668.286 1126.64 666.842 1125.21 665.061 1125.21C663.279 1125.21 661.835 1126.64 661.835 1128.41C661.835 1130.18 663.279 1131.62 665.061 1131.62Z" fill="black"/>
<path d="M665.869 1128.07C666.314 1128.07 666.675 1127.71 666.675 1127.27C666.675 1126.83 666.314 1126.47 665.869 1126.47C665.423 1126.47 665.062 1126.83 665.062 1127.27C665.062 1127.71 665.423 1128.07 665.869 1128.07Z" fill="white"/>
<path d="M659.99 1122H670.127C671.106 1122 671.97 1121.2 671.97 1120.17V1118.97C671.97 1118 671.164 1117.14 670.127 1117.14H659.99C659.011 1117.14 658.147 1117.94 658.147 1118.97V1120.17C658.147 1121.2 659.011 1122 659.99 1122Z" fill="black"/>
<path d="M697.082 1117.2H696.621V1118.74C696.621 1119.09 696.333 1119.43 695.93 1119.43C695.527 1119.43 695.239 1119.14 695.239 1118.74V1117.2H686.945C685.966 1117.2 685.102 1118 685.102 1119.03V1120.23C685.102 1121.2 685.908 1122.06 686.945 1122.06H697.082C698.061 1122.06 698.925 1121.26 698.925 1120.23V1119.03C698.867 1118 698.061 1117.2 697.082 1117.2Z" fill="black"/>
<path d="M678.534 1141.58C677.209 1141.58 675.885 1141.4 674.56 1141C673.984 1140.83 673.696 1140.2 673.927 1139.63C674.099 1139.17 674.675 1138.89 675.136 1139.06C677.325 1139.75 679.686 1139.75 681.875 1139.06C682.393 1138.89 682.911 1139.17 683.084 1139.63C683.315 1140.2 683.027 1140.83 682.451 1141C681.184 1141.4 679.859 1141.58 678.534 1141.58Z" fill="#F99678"/>
<path d="M686.716 1148.27C681.417 1150.39 675.542 1150.39 670.244 1148.27" stroke="#FCBAA4" stroke-width="10.2864" stroke-miterlimit="10" stroke-linecap="round"/>
<path d="M678.535 1150.9C675.598 1150.9 672.718 1150.33 669.896 1149.25C669.378 1149.02 669.09 1148.44 669.263 1147.93C669.435 1147.36 670.069 1147.07 670.645 1147.24H670.703C675.771 1149.25 681.3 1149.25 686.368 1147.24H686.426C687.002 1147.07 687.578 1147.36 687.808 1147.93C687.981 1148.5 687.693 1149.07 687.175 1149.25C684.352 1150.39 681.415 1150.9 678.535 1150.9Z" fill="white"/>
<path d="M664.54 1142.72C667.562 1142.72 670.012 1141.11 670.012 1139.12C670.012 1137.12 667.562 1135.51 664.54 1135.51C661.519 1135.51 659.069 1137.12 659.069 1139.12C659.069 1141.11 661.519 1142.72 664.54 1142.72Z" fill="#F99678"/>
<path d="M692.532 1142.72C695.554 1142.72 698.004 1141.11 698.004 1139.12C698.004 1137.12 695.554 1135.51 692.532 1135.51C689.51 1135.51 687.061 1137.12 687.061 1139.12C687.061 1141.11 689.51 1142.72 692.532 1142.72Z" fill="#F99678"/>
<path d="M704.914 1112.1H652.215V1114.11H704.914V1112.1Z" fill="#F99678"/>
<path d="M645.362 1227.47C644.037 1224.33 642.136 1221.52 639.717 1219.18C636.895 1216.43 636.838 1211.85 639.602 1209.05C642.367 1206.24 646.974 1206.19 649.796 1208.93C653.598 1212.65 656.593 1217.06 658.666 1221.98C665.462 1238.29 649.912 1238.29 645.362 1227.47Z" fill="#FCBAA4"/>
<path d="M651.87 1224.84L661.027 1221.01C665.174 1230.68 675.887 1233.71 687.694 1233.71C689.94 1233.71 692.186 1233.48 694.317 1233.03C700.653 1231.71 705.203 1226.04 705.203 1219.63V1198.4C705.203 1196.29 704.915 1194.23 704.281 1192.28C703.245 1188.85 701.344 1185.76 698.867 1183.24C697.255 1181.64 696.506 1179.4 697.024 1177.17L697.082 1177C711.941 1177.69 723.806 1189.93 723.806 1204.87V1234.23C723.806 1240.98 720.235 1246.87 714.879 1250.19C714.706 1250.31 714.476 1250.42 714.303 1250.54C711.538 1252.14 708.313 1253 704.915 1253H675.541C668.054 1253 660.682 1250.59 654.75 1246.02C654.289 1245.62 653.828 1245.27 653.425 1244.93C648.587 1240.52 644.671 1235.2 642.021 1229.08L651.87 1224.84Z" fill="#F9E011"/>
<path d="M703.359 1189.88C703.705 1190.62 703.993 1191.42 704.223 1192.22C704.799 1194.17 705.145 1196.23 705.145 1198.35V1219.58C705.145 1226.04 700.652 1231.65 694.259 1232.97C692.128 1233.43 689.939 1233.66 687.636 1233.66C675.829 1233.66 665.116 1230.62 660.969 1220.95L654.864 1223.53C656.707 1227.42 659.241 1230.85 662.409 1233.66C662.697 1233.88 662.985 1234.17 663.331 1234.4C667.477 1237.6 672.603 1239.26 677.845 1239.26H698.348C700.71 1239.26 702.956 1238.63 704.914 1237.55C705.029 1237.49 705.202 1237.38 705.317 1237.32C709.061 1235.03 711.538 1230.91 711.538 1226.16V1205.67C711.595 1199.21 708.37 1193.43 703.359 1189.88Z" fill="#FCC900"/>
<path d="M642.138 1229.19L661.029 1221.29C661.432 1221.12 661.605 1220.66 661.432 1220.26C661.259 1219.86 660.798 1219.69 660.395 1219.86L641.504 1227.76C641.101 1227.93 640.928 1228.39 641.101 1228.79C641.274 1229.13 641.735 1229.36 642.138 1229.19Z" fill="#660033"/>
<path d="M708.253 1214.88C706.986 1214.6 706.18 1213.34 706.525 1212.08L713.898 1182.26L717.296 1183.01L711.018 1213.11C710.73 1214.37 709.52 1215.17 708.253 1214.88Z" fill="#DBE1F0"/>
<path d="M717.238 1183.07L716.662 1182.95L710.5 1212.48C710.212 1213.74 709.002 1214.54 707.735 1214.25C707.274 1214.14 706.929 1213.91 706.641 1213.62C706.929 1214.2 707.505 1214.71 708.196 1214.83C709.463 1215.11 710.73 1214.31 710.96 1213.05L717.238 1183.07Z" fill="#BDC5DF"/>
<path d="M725.029 1178.48C726.303 1172.87 723.714 1167.51 719.246 1166.51C714.777 1165.51 710.122 1169.24 708.848 1174.85C707.574 1180.47 710.163 1185.83 714.631 1186.83C719.1 1187.83 723.755 1184.09 725.029 1178.48Z" fill="#DBE1F0"/>
<path d="M717.527 1182.55C714.532 1181.86 712.746 1178.26 713.61 1174.48C714.417 1170.88 717.354 1168.42 720.234 1168.76C719.773 1168.53 719.312 1168.36 718.852 1168.24C715.165 1167.44 711.307 1170.48 710.27 1175.11C709.233 1179.75 711.364 1184.15 715.05 1185.01C718.103 1185.7 721.213 1183.75 722.826 1180.49C721.386 1182.09 719.427 1182.95 717.527 1182.55Z" fill="#BDC5DF"/>
<path d="M698.867 1222.27C700.191 1219.12 700.883 1215.8 700.883 1212.42C700.883 1208.48 704.108 1205.27 708.082 1205.27C712.056 1205.27 715.281 1208.48 715.281 1212.42C715.281 1217.75 714.245 1222.95 712.114 1227.82C705.145 1244.13 694.259 1233.08 698.867 1222.27Z" fill="#FCBAA4"/>
<path d="M705.145 1224.9L695.988 1221.06C691.841 1230.74 681.128 1233.77 669.321 1233.77C667.075 1233.77 664.829 1233.54 662.698 1233.08C656.362 1231.77 651.812 1226.1 651.812 1219.69V1198.46C651.812 1196.34 652.1 1194.28 652.734 1192.34C653.771 1188.9 655.671 1185.81 658.148 1183.29C659.76 1181.69 660.509 1179.46 659.991 1177.23L659.933 1177.06C645.131 1177.74 633.267 1189.99 633.267 1204.93V1234.28C633.267 1241.04 636.838 1246.93 642.194 1250.25C642.367 1250.37 642.597 1250.48 642.77 1250.59C645.535 1252.2 648.76 1253.05 652.158 1253.05H681.531C689.019 1253.05 696.391 1250.65 702.323 1246.07C702.784 1245.67 703.245 1245.33 703.648 1244.99C708.486 1240.58 712.402 1235.26 715.052 1229.13L705.145 1224.9Z" fill="#F9E011"/>
<path d="M653.598 1189.88C653.252 1190.62 652.964 1191.42 652.734 1192.22C652.158 1194.17 651.813 1196.23 651.813 1198.35V1219.58C651.813 1226.04 656.305 1231.65 662.698 1232.97C664.829 1233.43 667.018 1233.66 669.321 1233.66C681.128 1233.66 691.841 1230.62 695.988 1220.95L702.093 1223.53C700.25 1227.42 697.716 1230.85 694.548 1233.66C694.26 1233.88 693.972 1234.17 693.626 1234.4C689.48 1237.6 684.354 1239.26 679.113 1239.26H658.609C656.247 1239.26 654.001 1238.63 652.043 1237.55C651.928 1237.49 651.755 1237.38 651.64 1237.32C647.896 1235.03 645.42 1230.91 645.42 1226.16V1205.67C645.42 1199.2 648.645 1193.42 653.598 1189.88Z" fill="#FCC900"/>
<path d="M714.879 1229.25L695.988 1221.35C695.585 1221.18 695.412 1220.72 695.585 1220.32C695.758 1219.92 696.218 1219.75 696.621 1219.92L715.513 1227.82C715.916 1227.99 716.088 1228.45 715.916 1228.85C715.743 1229.25 715.282 1229.42 714.879 1229.25Z" fill="#660033"/>
<path d="M811.498 1233.74H754.661V1216.32C754.661 1207.59 761.794 1200.55 770.538 1200.55H795.621C804.411 1200.55 811.498 1207.63 811.498 1216.32V1233.74Z" fill="#FCC900"/>
<path d="M802.894 1262.63H763.315V1217.42C763.315 1212.2 802.894 1212.2 802.894 1217.42V1262.63Z" fill="#F9E011"/>
<path d="M763.267 1239.45H754.661V1242.65H763.267V1239.45Z" fill="white"/>
<path d="M783.104 1245.21C783.943 1245.21 784.623 1244.54 784.623 1243.7C784.623 1242.87 783.943 1242.19 783.104 1242.19C782.265 1242.19 781.585 1242.87 781.585 1243.7C781.585 1244.54 782.265 1245.21 783.104 1245.21Z" fill="white"/>
<path d="M798.063 1178.65H768.102C763.684 1178.65 760.14 1175.08 760.14 1170.74V1149.21C760.14 1141.89 766.123 1135.95 773.487 1135.95H792.678C800.041 1135.95 806.024 1141.89 806.024 1149.21V1170.74C806.024 1175.08 802.481 1178.65 798.063 1178.65Z" fill="#381A0A"/>
<path d="M803.353 1179.75H762.807C759.724 1179.75 757.193 1177.23 757.193 1174.17V1171.33C757.193 1168.27 759.724 1165.76 762.807 1165.76H803.353C806.437 1165.76 808.968 1168.27 808.968 1171.33V1174.17C809.014 1177.23 806.483 1179.75 803.353 1179.75Z" fill="#FCBAA4"/>
<path d="M783.472 1207.08H782.644C779.054 1207.08 776.154 1204.2 776.154 1200.64V1187.84H789.961V1200.64C789.915 1204.2 787.016 1207.08 783.472 1207.08Z" fill="#F99678"/>
<path d="M775.417 1204.48H777.442C776.613 1203.43 776.153 1202.1 776.153 1200.64V1200.55H770.538C761.748 1200.55 754.661 1207.63 754.661 1216.32V1233.74H761.38V1218.38C761.38 1210.7 767.639 1204.48 775.417 1204.48Z" fill="#F9E011"/>
<path d="M787.661 1194.24H778.503C770.126 1194.24 763.315 1187.47 763.315 1179.15V1156.43C763.315 1153.6 766.077 1151.63 768.792 1152.55L771.737 1153.55C779.009 1155.97 786.925 1155.84 794.15 1153.09L797.234 1151.91C799.949 1150.9 802.848 1152.87 802.848 1155.75V1179.15C802.848 1187.47 796.037 1194.24 787.661 1194.24Z" fill="#FCBAA4"/>
<path d="M796.911 1164.8H789.502C788.903 1164.8 788.397 1164.29 788.397 1163.7V1162.6C788.397 1162.01 788.903 1161.51 789.502 1161.51H796.911C797.51 1161.51 798.016 1162.01 798.016 1162.6V1163.7C798.016 1164.29 797.51 1164.8 796.911 1164.8Z" fill="#42210B"/>
<path d="M776.569 1164.8H769.205C768.607 1164.8 768.101 1164.29 768.101 1163.7V1162.6C768.101 1162.01 768.607 1161.51 769.205 1161.51H776.615C777.213 1161.51 777.72 1162.01 777.72 1162.6V1163.7C777.674 1164.29 777.213 1164.8 776.569 1164.8Z" fill="#42210B"/>
<path d="M792.999 1172.11C794.423 1172.11 795.577 1170.97 795.577 1169.55C795.577 1168.14 794.423 1166.99 792.999 1166.99C791.576 1166.99 790.422 1168.14 790.422 1169.55C790.422 1170.97 791.576 1172.11 792.999 1172.11Z" fill="black"/>
<path d="M793.645 1169.28C794.001 1169.28 794.289 1168.99 794.289 1168.64C794.289 1168.28 794.001 1168 793.645 1168C793.289 1168 793.001 1168.28 793.001 1168.64C793.001 1168.99 793.289 1169.28 793.645 1169.28Z" fill="white"/>
<path d="M773.114 1172.11C774.538 1172.11 775.691 1170.97 775.691 1169.55C775.691 1168.14 774.538 1166.99 773.114 1166.99C771.691 1166.99 770.537 1168.14 770.537 1169.55C770.537 1170.97 771.691 1172.11 773.114 1172.11Z" fill="black"/>
<path d="M773.76 1169.28C774.116 1169.28 774.404 1168.99 774.404 1168.64C774.404 1168.28 774.116 1168 773.76 1168C773.404 1168 773.115 1168.28 773.115 1168.64C773.115 1168.99 773.404 1169.28 773.76 1169.28Z" fill="white"/>
<path d="M783.102 1179.75C782.182 1179.75 781.261 1179.61 780.387 1179.33C779.927 1179.2 779.697 1178.74 779.881 1178.28C780.019 1177.92 780.433 1177.73 780.801 1177.83C782.274 1178.28 783.885 1178.28 785.357 1177.83C785.725 1177.69 786.14 1177.92 786.278 1178.28C786.462 1178.69 786.232 1179.2 785.771 1179.33C784.897 1179.61 784.023 1179.75 783.102 1179.75Z" fill="#F99678"/>
<path d="M792.999 1179.15C795.006 1179.15 796.634 1178.07 796.634 1176.73C796.634 1175.39 795.006 1174.31 792.999 1174.31C790.991 1174.31 789.363 1175.39 789.363 1176.73C789.363 1178.07 790.991 1179.15 792.999 1179.15Z" fill="#F99678"/>
<path d="M773.118 1179.15C775.126 1179.15 776.753 1178.07 776.753 1176.73C776.753 1175.39 775.126 1174.31 773.118 1174.31C771.11 1174.31 769.482 1175.39 769.482 1176.73C769.482 1178.07 771.11 1179.15 773.118 1179.15Z" fill="#F99678"/>
<path d="M783.104 1232.36C783.943 1232.36 784.623 1231.69 784.623 1230.86C784.623 1230.02 783.943 1229.35 783.104 1229.35C782.265 1229.35 781.585 1230.02 781.585 1230.86C781.585 1231.69 782.265 1232.36 783.104 1232.36Z" fill="white"/>
<path d="M783.104 1219.56C783.943 1219.56 784.623 1218.89 784.623 1218.06C784.623 1217.22 783.943 1216.55 783.104 1216.55C782.265 1216.55 781.585 1217.22 781.585 1218.06C781.585 1218.89 782.265 1219.56 783.104 1219.56Z" fill="white"/>
<path d="M783.104 1187.7C781.125 1187.7 779.192 1187.34 777.305 1186.6L777.213 1186.56C776.523 1186.24 776.247 1185.42 776.615 1184.73C776.937 1184.09 777.72 1183.82 778.364 1184.09C781.447 1185.32 784.807 1185.28 787.844 1184.09C788.489 1183.82 789.271 1184.09 789.593 1184.73C789.916 1185.42 789.639 1186.24 788.995 1186.56L788.903 1186.6C787.016 1187.34 785.037 1187.7 783.104 1187.7Z" fill="white"/>
<path d="M762.901 1173.71C762.533 1173.71 762.257 1173.44 762.257 1173.07C762.257 1171.79 761.198 1170.74 759.91 1170.74C759.541 1170.74 759.265 1170.47 759.265 1170.1C759.265 1169.73 759.541 1169.46 759.91 1169.46C761.934 1169.46 763.545 1171.11 763.545 1173.07C763.545 1173.44 763.223 1173.71 762.901 1173.71Z" fill="#F99678"/>
<path d="M803.307 1173.71C802.938 1173.71 802.662 1173.44 802.662 1173.07C802.662 1171.06 804.319 1169.46 806.298 1169.46C806.666 1169.46 806.942 1169.73 806.942 1170.1C806.942 1170.47 806.712 1170.74 806.344 1170.74C805.055 1170.74 803.997 1171.79 803.997 1173.07C803.997 1173.44 803.675 1173.71 803.307 1173.71Z" fill="#F99678"/>
<path d="M773.762 1220.3H741.362V1263.91H773.762V1220.3Z" fill="#F5F4F9"/>
<path d="M771.459 1222.58H743.662V1261.62H771.459V1222.58Z" fill="#DBE1F0"/>
<path d="M767.133 1226.74H747.988V1228.07H767.133V1226.74Z" fill="#BDC5DF"/>
<path d="M767.133 1232.64H747.988V1233.96H767.133V1232.64Z" fill="#BDC5DF"/>
<path d="M767.133 1238.49H747.988V1239.82H767.133V1238.49Z" fill="#BDC5DF"/>
<path d="M767.133 1244.39H747.988V1245.71H767.133V1244.39Z" fill="#BDC5DF"/>
<path d="M767.133 1250.24H747.988V1251.57H767.133V1250.24Z" fill="#BDC5DF"/>
<path d="M767.133 1256.14H747.988V1257.46H767.133V1256.14Z" fill="#BDC5DF"/>
<path d="M803.032 1264C802.111 1264 801.145 1263.82 800.225 1263.45C800.178 1263.45 800.132 1263.41 800.086 1263.41L765.708 1247.77C763.913 1246.95 762.992 1244.94 763.683 1243.11C764.465 1241.1 766.72 1240.23 768.653 1241.1L803.032 1256.69V1233.42H810.395V1256.5C810.395 1259.02 809.199 1261.39 807.128 1262.77C805.885 1263.59 804.459 1264 803.032 1264Z" fill="#FCBAA4"/>
<path d="M748.127 1228.94C746.102 1228.94 744.445 1227.29 744.445 1225.28V1220.34C744.445 1218.33 746.102 1216.68 748.127 1216.68C750.152 1216.68 751.809 1218.33 751.809 1220.34V1225.28C751.809 1227.29 750.152 1228.94 748.127 1228.94Z" fill="#FCBAA4"/>
<path d="M811.5 1231.68H802.894V1234.88H811.5V1231.68Z" fill="white"/>
<path d="M773.762 1246.26C773.117 1246.54 772.381 1246.26 772.105 1245.62L770.448 1241.97C770.172 1241.33 770.448 1240.59 771.092 1240.32C771.737 1240.05 772.473 1240.32 772.749 1240.96L774.406 1244.62C774.682 1245.26 774.406 1245.99 773.762 1246.26Z" fill="#FCBAA4"/>
<path d="M783.104 1128.68C772.104 1128.68 763.176 1133.94 763.176 1140.43C763.176 1143.45 765.063 1146.19 768.192 1148.25C768.377 1146.51 768.883 1144.91 769.619 1143.45C769.619 1143.68 769.619 1143.86 769.619 1144.09V1144.13C769.619 1147.52 772.012 1150.49 775.326 1151.31C777.719 1151.91 780.296 1152.23 783.058 1152.23C783.196 1152.23 783.334 1152.23 783.518 1152.23C783.288 1151.59 783.104 1150.85 783.058 1150.17C783.702 1150.99 784.53 1151.68 785.497 1152.18C789.179 1151.91 792.538 1151.08 795.3 1149.8C796.128 1148.57 796.634 1147.11 796.634 1145.51C796.634 1145.32 796.634 1145.14 796.588 1145C797.325 1145.92 797.831 1147.01 798.107 1148.25C801.145 1146.19 802.939 1143.49 802.939 1140.57C802.985 1133.94 794.057 1128.68 783.104 1128.68Z" fill="#512B15"/>
</g>
<rect x="86.25" y="827.121" width="3.01041" height="3.01041" transform="rotate(45 86.25 827.121)" stroke="#FFE682" stroke-width="3"/>
<rect x="1066.25" y="187.121" width="3.01041" height="3.01041" transform="rotate(45 1066.25 187.121)" stroke="#FFE682" stroke-width="3"/>
<rect x="1286.25" y="627.121" width="3.01041" height="3.01041" transform="rotate(45 1286.25 627.121)" stroke="#FFE682" stroke-width="3"/>
<rect x="1137.25" y="1076.12" width="3.01041" height="3.01041" transform="rotate(45 1137.25 1076.12)" stroke="#FFE682" stroke-width="3"/>
<rect x="573" y="1048.24" width="8.14214" height="8.14214" transform="rotate(45 573 1048.24)" stroke="#FFE682" stroke-width="6"/>
<rect x="573" y="1050.67" width="4.71405" height="4.71405" transform="rotate(45 573 1050.67)" stroke="#FCC900" stroke-width="4.71405"/>
<rect x="1187.5" y="1101.24" width="47.033" height="47.033" transform="rotate(45 1187.5 1101.24)" stroke="#FFE682" stroke-width="6"/>
<rect x="1187.5" y="1113.74" width="29.3553" height="29.3553" transform="rotate(45 1187.5 1113.74)" stroke="#FCC900" stroke-width="6"/>
<defs>
<clipPath id="clip0">
<rect width="1005" height="180" fill="white" transform="translate(198 1080)"/>
</clipPath>
</defs>
</svg>
