<svg width="16" height="16" viewBox="0 0 16 16" fill="none" xmlns="http://www.w3.org/2000/svg">
<path fill-rule="evenodd" clip-rule="evenodd" d="M7.96021 0.0795898C5.81104 0.0795898 5.49243 0.0795898 4.69653 0.15921C3.8208 0.15921 3.26367 0.31842 2.78613 0.55722C2.22876 0.716431 1.75122 0.955231 1.35327 1.43283C0.875732 1.83084 0.636719 2.30847 0.397949 2.86566C0.23877 3.34329 0.0795898 3.90051 0.0795898 4.77612C0 5.57214 0 5.89053 0 8.03979C0 10.1891 0 10.5075 0.0795898 11.3035C0.0795898 12.1791 0.23877 12.7363 0.477539 13.2139C0.716309 13.7711 0.955322 14.1692 1.43286 14.6468C1.9104 15.1244 2.30835 15.3632 2.86572 15.602C3.34326 15.7612 3.97998 15.9204 4.77612 16H7.96021C10.1094 16 10.428 16 11.2239 15.9204C12.0996 15.9204 12.6567 15.7612 13.1343 15.5224C13.6917 15.2836 14.0896 15.0448 14.5671 14.5672C15.0447 14.0895 15.2837 13.6915 15.5225 13.1343C15.6816 12.6567 15.8408 12.0199 15.9204 11.2239C15.9204 10.8827 15.9324 10.6382 15.9473 10.3398C15.9705 9.87219 16 9.27209 16 7.96021C16 5.81094 16 5.49252 15.9204 4.6965C15.9204 3.82089 15.7612 3.26367 15.5225 2.78607C15.2837 2.22885 15.0447 1.83084 14.5671 1.35324C14.0896 0.87561 13.6917 0.63681 13.1343 0.39801C12.6567 0.2388 12.02 0.0795898 11.2239 0C10.428 0.0795898 10.1094 0.0795898 7.96021 0.0795898ZM7.96021 1.51245C10.1094 1.51245 10.3481 1.51245 11.1443 1.59204C11.9402 1.59204 12.3384 1.75125 12.6567 1.83084C13.0547 1.99005 13.2935 2.14926 13.5322 2.46765C13.585 2.53793 13.6377 2.60434 13.6887 2.66858C13.8689 2.89536 14.0276 3.09515 14.0896 3.34329C14.2488 3.66168 14.408 4.05969 14.408 4.85571C14.408 5.20081 14.4202 5.44699 14.4351 5.7453C14.4583 6.20395 14.4875 6.7858 14.4875 8.03979C14.4875 10.1095 14.4875 10.4279 14.408 11.2239C14.408 12.0199 14.2488 12.4179 14.1692 12.7363C14.01 13.1343 13.8508 13.3731 13.6121 13.6915C13.373 13.9304 13.0547 14.1692 12.7363 14.2487C12.6809 14.2626 12.623 14.2789 12.561 14.2963C12.2673 14.379 11.8813 14.4875 11.2239 14.4875C10.8787 14.4875 10.6326 14.4999 10.3342 14.5149C9.87573 14.5379 9.2937 14.5672 8.03979 14.5672C5.97021 14.5672 5.65186 14.5672 4.85571 14.4875C4.53174 14.4875 4.27368 14.4612 4.06006 14.4246C3.84033 14.3868 3.66748 14.3382 3.51855 14.2963C3.45654 14.2789 3.39868 14.2626 3.34326 14.2487C2.86572 14.0895 2.62695 13.9304 2.38794 13.6119C2.34497 13.5545 2.302 13.4997 2.25977 13.446C2.06836 13.2022 1.896 12.9829 1.83081 12.6567C1.67163 12.4179 1.51245 12.0199 1.51245 11.2239C1.51245 10.8788 1.50024 10.6326 1.48535 10.3343C1.46216 9.87567 1.43286 9.29382 1.43286 8.03979C1.43286 5.97015 1.43286 5.65173 1.51245 4.85571C1.51245 4.19836 1.62085 3.81244 1.70361 3.51862C1.72095 3.45663 1.7373 3.39874 1.75122 3.34329C1.9104 2.94528 2.06958 2.70648 2.38794 2.46765C2.62695 2.14926 2.94531 1.99005 3.34326 1.91046C3.58203 1.75125 3.97998 1.59204 4.77612 1.59204C5.57202 1.51245 5.81104 1.51245 7.96021 1.51245ZM7.96021 10.6667C6.52734 10.6667 5.33325 9.47263 5.33325 8.03979C5.33325 6.60696 6.52734 5.41293 7.96021 5.41293C9.39282 5.41293 10.5869 6.60696 10.5869 8.03979C10.5869 9.47263 9.39282 10.6667 7.96021 10.6667ZM7.96021 3.9801C5.7312 3.9801 3.90039 5.81094 3.90039 8.03979C3.90039 10.2686 5.7312 12.0995 7.96021 12.0995C10.189 12.0995 12.0198 10.2686 12.0198 8.03979C12.0198 5.81094 10.189 3.9801 7.96021 3.9801ZM12.1792 4.77612C12.7363 4.77612 13.1343 4.37811 13.1343 3.82089C13.1343 3.26367 12.7363 2.86566 12.1792 2.86566C11.6218 2.86566 11.2239 3.26367 11.2239 3.82089C11.2239 4.37811 11.6218 4.77612 12.1792 4.77612Z" fill="#5B657C"/>
</svg>
