<svg width="156" height="38" viewBox="0 0 156 38" fill="none" xmlns="http://www.w3.org/2000/svg">
<path d="M68.3 11.0996H64.1L60.3 17.0996L56.5 11.0996H52L58.3 20.5996V27.0996H62V20.5996L68.3 11.0996Z" fill="#10192C"/>
<path d="M75 15.4L77.2 20.3H72.8L75 15.4ZM66 27.1H69.8L71.3 23.8H78.8L80.3 27.1H84.3L76.8 11H73.5L66 27.1Z" fill="#10192C"/>
<path d="M98.3 11.0996H94.1L90.3 17.0996L86.5 11.0996H82L88.3 20.5996V27.0996H92V20.5996L98.3 11.0996Z" fill="#10192C"/>
<path d="M105 15.4L107.2 20.3H102.8L105 15.4ZM96 27.1H99.8L101.3 23.8H108.8L110.3 27.1H114.3L106.8 11H103.5L96 27.1Z" fill="#10192C"/>
<path d="M115.898 24.8C115.898 26.1 116.798 27.2 118.298 27.2C119.598 27.2 120.498 26 120.498 24.8C120.498 23.7 119.598 22.5 118.298 22.5C116.798 22.5 115.898 23.7 115.898 24.8Z" fill="#10192C"/>
<path d="M129.901 14.5004C131.901 14.5004 132.501 15.3004 132.501 16.2004C132.501 17.4004 131.301 18.0004 129.701 18.0004H127.501V14.6004C128.401 14.5004 129.301 14.5004 129.901 14.5004ZM127.501 27.1004V21.5004H129.801L132.301 24.8004C134.001 27.1004 136.501 27.7004 138.301 27.0004V23.7004C137.301 24.1004 136.001 23.6004 135.401 22.9004L133.601 20.7004C134.701 20.2004 136.501 19.0004 136.501 16.1004C136.501 13.1004 134.601 10.9004 130.101 10.9004C128.201 10.9004 124.801 11.0004 123.801 11.0004V27.0004H127.501V27.1004Z" fill="#10192C"/>
<path d="M155.1 11.0996H151.3V19.7996C151.3 22.2996 150.4 23.9996 147.8 23.9996C144.9 23.9996 143.8 22.0996 143.8 19.5996V11.0996H140V20.3996C140 25.0996 143.2 27.4996 147.7 27.4996C151.5 27.4996 155 25.4996 155 20.5996V11.0996H155.1Z" fill="#10192C"/>
<path d="M8 30H0V38H8V30Z" fill="#F9E011"/>
<path d="M18 30H10V38H18V30Z" fill="#F9E011"/>
<path d="M28 30H20V38H28V30Z" fill="#F9E011"/>
<path d="M30 30V38L38 30H30Z" fill="#FCC900"/>
<path d="M38 0H0V30H38V0Z" fill="#F9E011"/>
<path d="M30 8H8V10H30V8Z" fill="#10192C"/>
<path d="M30 14H8V16H30V14Z" fill="#10192C"/>
<path d="M21 20H8V22H21V20Z" fill="#10192C"/>
</svg>
