<svg width="341" height="603" viewBox="0 0 341 603" version="1.1" xmlns="http://www.w3.org/2000/svg" xmlns:xlink="http://www.w3.org/1999/xlink">
<title>phone</title>
<desc>Created using Figma</desc>
<g id="Canvas" transform="translate(46367 16620)">
<g id="phone" filter="url(#filter0_d)">
<g id="Vector">
<use xlink:href="#path0_fill" transform="translate(-46314 -16589)" fill="#F9F9FB"/>
</g>
<g id="Vector">
<use xlink:href="#path1_fill" transform="translate(-46316 -16523)" fill="#FFFFFF"/>
</g>
<g id="Vector">
<use xlink:href="#path2_stroke" transform="translate(-46316 -16523)" fill="#DBE1F0"/>
</g>
<g id="Vector">
<use xlink:href="#path3_fill" transform="translate(-46316 -16478)" fill="#FFFFFF"/>
</g>
<g id="Vector">
<use xlink:href="#path4_stroke" transform="translate(-46316 -16478)" fill="#DBE1F0"/>
</g>
<g id="Vector">
<use xlink:href="#path3_fill" transform="translate(-46316 -16430)" fill="#FFFFFF"/>
</g>
<g id="Vector">
<use xlink:href="#path4_stroke" transform="translate(-46316 -16430)" fill="#DBE1F0"/>
</g>
<g id="Vector">
<use xlink:href="#path3_fill" transform="translate(-46061 -16477)" fill="#FFFFFF"/>
</g>
<g id="Vector">
<use xlink:href="#path4_stroke" transform="translate(-46061 -16477)" fill="#DBE1F0"/>
</g>
<g id="Vector">
<use xlink:href="#path5_stroke" transform="translate(-46314 -16589)" fill="#DBE1F0"/>
</g>
<g id="Vector">
<use xlink:href="#path6_stroke" transform="translate(-46204.5 -16119.5)" fill="#DBE1F0"/>
</g>
<g id="Vector">
<use xlink:href="#path7_stroke" transform="translate(-46206.5 -16555.5)" fill="#DBE1F0"/>
</g>
<g id="Vector">
<use xlink:href="#path8_fill" transform="translate(-46311.5 -16586.5)" fill="#FFFFFF"/>
</g>
<g id="Vector">
<use xlink:href="#path9_fill" transform="translate(-46299.5 -16527.5)" fill="#111A2C"/>
</g>
<g id="Vector">
<use xlink:href="#path10_fill" transform="translate(-46102.5 -16586.5)" fill="#FFFFFF"/>
</g>
</g>
</g>
<defs>
<filter id="filter0_d" filterUnits="userSpaceOnUse" x="-46367" y="-16620" width="341" height="603" color-interpolation-filters="sRGB">
<feFlood flood-opacity="0" result="BackgroundImageFix"/>
<feColorMatrix in="SourceAlpha" type="matrix" values="0 0 0 0 0 0 0 0 0 0 0 0 0 0 0 0 0 0 255 0"/>
<feOffset dx="-10" dy="10"/>
<feGaussianBlur stdDeviation="20"/>
<feColorMatrix type="matrix" values="0 0 0 0 0 0 0 0 0 0 0 0 0 0 0 0 0 0 0.2 0"/>
<feBlend mode="normal" in2="BackgroundImageFix" result="effect1_dropShadow"/>
<feBlend mode="normal" in="SourceGraphic" in2="effect1_dropShadow" result="shape"/>
</filter>
<path id="path0_fill" d="M 40 0C 40 0 0 0 0 40L 0 481C 0 481 0 521 40 521L 215 521C 215 521 255 521 255 481L 255 40C 255 40 255 0 215 0L 40 0Z"/>
<path id="path1_fill" d="M 1 0C 1 0 0 0 0 1L 0 20C 0 20 0 21 1 21L 3 21C 3 21 4 21 4 20L 4 1C 4 1 4 0 3 0L 1 0Z"/>
<path id="path2_stroke" d="M 1 0C 1 -0.5 0.999752 -0.5 0.999499 -0.5C 0.99941 -0.5 0.999153 -0.499999 0.998974 -0.499999C 0.998779 -0.499999 0.99824 -0.499997 0.997849 -0.499996C 0.997397 -0.499994 0.996216 -0.499987 0.995307 -0.49998C 0.994151 -0.499971 0.991386 -0.49994 0.989068 -0.499904C 0.985774 -0.499849 0.978669 -0.499688 0.972112 -0.499478C 0.961764 -0.499124 0.941537 -0.498172 0.921408 -0.496776C 0.886995 -0.494268 0.824614 -0.487811 0.76155 -0.477572C 0.648185 -0.458274 0.451527 -0.406442 0.276393 -0.322214C -0.118198 -0.124918 -0.5 0.284389 -0.5 1L 0.5 1C 0.5 0.715611 0.618198 0.624918 0.723607 0.572214C 0.798473 0.531443 0.851815 0.520774 0.92595 0.508822C 0.956636 0.503436 0.97238 0.50208 0.992655 0.500682C 0.999869 0.500125 1.00113 0.500101 1.00543 0.499967C 1.00619 0.499933 1.00569 0.49996 1.00519 0.499965C 1.00562 0.499961 1.00305 0.49999 1.00324 0.499988C 1.00367 0.499985 1.00158 0.499998 1.00179 0.499997C 1.00206 0.499996 1.0008 0.499999 1.00093 0.499999C 1.00079 0.499999 1.00055 0.5 1.00048 0.5C 1.00024 0.5 1 0.5 1 0ZM -0.5 1L -0.5 20L 0.5 20L 0.5 1L -0.5 1ZM 0 20C -0.5 20 -0.5 20.0002 -0.5 20.0005C -0.5 20.0006 -0.499999 20.0008 -0.499999 20.001C -0.499999 20.0012 -0.499997 20.0018 -0.499996 20.0022C -0.499994 20.0026 -0.499987 20.0038 -0.49998 20.0047C -0.499971 20.0058 -0.49994 20.0086 -0.499904 20.0109C -0.499849 20.0142 -0.499688 20.0213 -0.499478 20.0279C -0.499124 20.0382 -0.498172 20.0585 -0.496776 20.0786C -0.494268 20.113 -0.487811 20.1754 -0.477572 20.2384C -0.458274 20.3518 -0.406442 20.5485 -0.322214 20.7236C -0.124918 21.1182 0.284389 21.5 1 21.5L 1 20.5C 0.715611 20.5 0.624918 20.3818 0.572214 20.2764C 0.531443 20.2015 0.520774 20.1482 0.508822 20.0741C 0.503436 20.0434 0.50208 20.0276 0.500682 20.0073C 0.500125 20.0001 0.500101 19.9989 0.499967 19.9946C 0.499933 19.9938 0.49996 19.9943 0.499965 19.9948C 0.499961 19.9944 0.49999 19.997 0.499988 19.9968C 0.499985 19.9963 0.499998 19.9984 0.499997 19.9982C 0.499996 19.9979 0.499999 19.9992 0.499999 19.9991C 0.499999 19.9992 0.5 19.9994 0.5 19.9995C 0.5 19.9998 0.5 20 0 20ZM 1 21.5L 3 21.5L 3 20.5L 1 20.5L 1 21.5ZM 3 21C 3 21.5 3.00025 21.5 3.0005 21.5C 3.00059 21.5 3.00085 21.5 3.00103 21.5C 3.00122 21.5 3.00176 21.5 3.00215 21.5C 3.0026 21.5 3.00378 21.5 3.00469 21.5C 3.00585 21.5 3.00861 21.4999 3.01093 21.4999C 3.01423 21.4998 3.02133 21.4997 3.02789 21.4995C 3.03824 21.4991 3.05846 21.4982 3.07859 21.4968C 3.113 21.4943 3.17539 21.4878 3.23845 21.4776C 3.35181 21.4583 3.54847 21.4064 3.72361 21.3222C 4.1182 21.1249 4.5 20.7156 4.5 20L 3.5 20C 3.5 20.2844 3.3818 20.3751 3.27639 20.4278C 3.20153 20.4686 3.14819 20.4792 3.07405 20.4912C 3.04336 20.4966 3.02762 20.4979 3.00735 20.4993C 3.00013 20.4999 2.99887 20.4999 2.99457 20.5C 2.99381 20.5001 2.99431 20.5 2.99481 20.5C 2.99438 20.5 2.99695 20.5 2.99676 20.5C 2.99633 20.5 2.99842 20.5 2.99821 20.5C 2.99794 20.5 2.9992 20.5 2.99907 20.5C 2.99921 20.5 2.99945 20.5 2.99952 20.5C 2.99976 20.5 3 20.5 3 21ZM 4.5 20L 4.5 1L 3.5 1L 3.5 20L 4.5 20ZM 4 1C 4.5 1 4.5 0.999752 4.5 0.999499C 4.5 0.99941 4.5 0.999153 4.5 0.998974C 4.5 0.998779 4.5 0.99824 4.5 0.997849C 4.49999 0.997397 4.49999 0.996216 4.49998 0.995307C 4.49997 0.994151 4.49994 0.991386 4.4999 0.989068C 4.49985 0.985774 4.49969 0.978669 4.49948 0.972112C 4.49912 0.961764 4.49817 0.941537 4.49678 0.921408C 4.49427 0.886995 4.48781 0.824614 4.47757 0.76155C 4.45827 0.648185 4.40644 0.451527 4.32221 0.276393C 4.12492 -0.118198 3.71561 -0.5 3 -0.5L 3 0.5C 3.28439 0.5 3.37508 0.618198 3.42779 0.723607C 3.46856 0.798473 3.47923 0.851815 3.49118 0.92595C 3.49656 0.956636 3.49792 0.97238 3.49932 0.992655C 3.49987 0.999869 3.4999 1.00113 3.50003 1.00543C 3.50007 1.00619 3.50004 1.00569 3.50003 1.00519C 3.50004 1.00562 3.50001 1.00305 3.50001 1.00324C 3.50001 1.00367 3.5 1.00158 3.5 1.00179C 3.5 1.00206 3.5 1.0008 3.5 1.00093C 3.5 1.00079 3.5 1.00055 3.5 1.00048C 3.5 1.00024 3.5 1 4 1ZM 3 -0.5L 1 -0.5L 1 0.5L 3 0.5L 3 -0.5Z"/>
<path id="path3_fill" d="M 1 0C 1 0 0 0 0 1L 0 36C 0 36 0 37 1 37L 3 37C 3 37 4 37 4 36L 4 1C 4 1 4 0 3 0L 1 0Z"/>
<path id="path4_stroke" d="M 1 0C 1 -0.5 0.999752 -0.5 0.999499 -0.5C 0.99941 -0.5 0.999153 -0.499999 0.998974 -0.499999C 0.998779 -0.499999 0.99824 -0.499997 0.997849 -0.499996C 0.997397 -0.499994 0.996216 -0.499987 0.995307 -0.49998C 0.994151 -0.499971 0.991386 -0.49994 0.989068 -0.499904C 0.985774 -0.499849 0.978669 -0.499688 0.972112 -0.499478C 0.961764 -0.499124 0.941537 -0.498172 0.921408 -0.496776C 0.886995 -0.494268 0.824614 -0.487811 0.76155 -0.477572C 0.648185 -0.458274 0.451527 -0.406442 0.276393 -0.322214C -0.118198 -0.124918 -0.5 0.284389 -0.5 1L 0.5 1C 0.5 0.715611 0.618198 0.624918 0.723607 0.572214C 0.798473 0.531443 0.851815 0.520774 0.92595 0.508822C 0.956636 0.503436 0.97238 0.50208 0.992655 0.500682C 0.999869 0.500125 1.00113 0.500101 1.00543 0.499967C 1.00619 0.499933 1.00569 0.49996 1.00519 0.499965C 1.00562 0.499961 1.00305 0.49999 1.00324 0.499988C 1.00367 0.499985 1.00158 0.499998 1.00179 0.499997C 1.00206 0.499996 1.0008 0.499999 1.00093 0.499999C 1.00079 0.499999 1.00055 0.5 1.00048 0.5C 1.00024 0.5 1 0.5 1 0ZM -0.5 1L -0.5 36L 0.5 36L 0.5 1L -0.5 1ZM 0 36C -0.5 36 -0.5 36.0002 -0.5 36.0005C -0.5 36.0006 -0.499999 36.0008 -0.499999 36.001C -0.499999 36.0012 -0.499997 36.0018 -0.499996 36.0022C -0.499994 36.0026 -0.499987 36.0038 -0.49998 36.0047C -0.499971 36.0058 -0.49994 36.0086 -0.499904 36.0109C -0.499849 36.0142 -0.499688 36.0213 -0.499478 36.0279C -0.499124 36.0382 -0.498172 36.0585 -0.496776 36.0786C -0.494268 36.113 -0.487811 36.1754 -0.477572 36.2384C -0.458274 36.3518 -0.406442 36.5485 -0.322214 36.7236C -0.124918 37.1182 0.284389 37.5 1 37.5L 1 36.5C 0.715611 36.5 0.624918 36.3818 0.572214 36.2764C 0.531443 36.2015 0.520774 36.1482 0.508822 36.0741C 0.503436 36.0434 0.50208 36.0276 0.500682 36.0073C 0.500125 36.0001 0.500101 35.9989 0.499967 35.9946C 0.499933 35.9938 0.49996 35.9943 0.499965 35.9948C 0.499961 35.9944 0.49999 35.997 0.499988 35.9968C 0.499985 35.9963 0.499998 35.9984 0.499997 35.9982C 0.499996 35.9979 0.499999 35.9992 0.499999 35.9991C 0.499999 35.9992 0.5 35.9994 0.5 35.9995C 0.5 35.9998 0.5 36 0 36ZM 1 37.5L 3 37.5L 3 36.5L 1 36.5L 1 37.5ZM 3 37C 3 37.5 3.00025 37.5 3.0005 37.5C 3.00059 37.5 3.00085 37.5 3.00103 37.5C 3.00122 37.5 3.00176 37.5 3.00215 37.5C 3.0026 37.5 3.00378 37.5 3.00469 37.5C 3.00585 37.5 3.00861 37.4999 3.01093 37.4999C 3.01423 37.4999 3.02133 37.4997 3.02789 37.4995C 3.03824 37.4991 3.05846 37.4982 3.07859 37.4968C 3.113 37.4943 3.17539 37.4878 3.23845 37.4776C 3.35181 37.4583 3.54847 37.4064 3.72361 37.3222C 4.1182 37.1249 4.5 36.7156 4.5 36L 3.5 36C 3.5 36.2844 3.3818 36.3751 3.27639 36.4278C 3.20153 36.4686 3.14819 36.4792 3.07405 36.4912C 3.04336 36.4966 3.02762 36.4979 3.00735 36.4993C 3.00013 36.4999 2.99887 36.4999 2.99457 36.5C 2.99381 36.5001 2.99431 36.5 2.99481 36.5C 2.99438 36.5 2.99695 36.5 2.99676 36.5C 2.99633 36.5 2.99842 36.5 2.99821 36.5C 2.99794 36.5 2.9992 36.5 2.99907 36.5C 2.99921 36.5 2.99945 36.5 2.99952 36.5C 2.99976 36.5 3 36.5 3 37ZM 4.5 36L 4.5 1L 3.5 1L 3.5 36L 4.5 36ZM 4 1C 4.5 1 4.5 0.999752 4.5 0.999499C 4.5 0.99941 4.5 0.999153 4.5 0.998974C 4.5 0.998779 4.5 0.99824 4.5 0.997849C 4.49999 0.997397 4.49999 0.996216 4.49998 0.995307C 4.49997 0.994151 4.49994 0.991386 4.4999 0.989068C 4.49985 0.985774 4.49969 0.978669 4.49948 0.972112C 4.49912 0.961764 4.49817 0.941537 4.49678 0.921408C 4.49427 0.886995 4.48781 0.824614 4.47757 0.76155C 4.45827 0.648185 4.40644 0.451527 4.32221 0.276393C 4.12492 -0.118198 3.71561 -0.5 3 -0.5L 3 0.5C 3.28439 0.5 3.37508 0.618198 3.42779 0.723607C 3.46856 0.798473 3.47923 0.851815 3.49118 0.92595C 3.49656 0.956636 3.49792 0.97238 3.49932 0.992655C 3.49987 0.999869 3.4999 1.00113 3.50003 1.00543C 3.50007 1.00619 3.50004 1.00569 3.50003 1.00519C 3.50004 1.00562 3.50001 1.00305 3.50001 1.00324C 3.50001 1.00367 3.5 1.00158 3.5 1.00179C 3.5 1.00206 3.5 1.0008 3.5 1.00093C 3.5 1.00079 3.5 1.00055 3.5 1.00048C 3.5 1.00024 3.5 1 4 1ZM 3 -0.5L 1 -0.5L 1 0.5L 3 0.5L 3 -0.5Z"/>
<path id="path5_stroke" d="M 40 0C 40 -0.5 39.9996 -0.5 39.9991 -0.499999C 39.9987 -0.499999 39.998 -0.499998 39.9972 -0.499997C 39.9958 -0.499994 39.9935 -0.499988 39.9907 -0.499977C 39.9856 -0.499957 39.9773 -0.499913 39.967 -0.499832C 39.9471 -0.499673 39.9164 -0.499345 39.8772 -0.498714C 39.8001 -0.497469 39.6835 -0.494928 39.5341 -0.489957C 39.2381 -0.480081 38.799 -0.460086 38.2456 -0.420604C 37.1448 -0.341924 35.559 -0.183123 33.6678 0.131803C 29.8982 0.760476 24.8265 2.03106 19.7764 4.55279C 9.6318 9.62508 -0.5 19.7844 -0.5 40L 0.5 40C 0.5 20.2156 10.3682 10.3749 20.2236 5.44721C 25.1735 2.96894 30.1018 1.73952 33.8322 1.1182C 35.691 0.808123 37.2302 0.654424 38.3169 0.576854C 38.8573 0.538211 39.2775 0.519144 39.5674 0.509488C 39.711 0.504693 39.819 0.502352 39.8933 0.501156C 39.9298 0.500566 39.9564 0.500284 39.975 0.500137C 39.9839 0.500065 39.9902 0.500033 39.9947 0.500015C 39.9968 0.500007 39.9981 0.500003 39.9992 0.500001C 39.9996 0.500001 39.9998 0.5 40 0.5C 40.0001 0.5 40 0.5 40 0ZM -0.5 40L -0.5 481L 0.5 481L 0.5 40L -0.5 40ZM 0 481C -0.5 481 -0.5 481 -0.499999 481.001C -0.499999 481.001 -0.499998 481.002 -0.499997 481.003C -0.499994 481.004 -0.499988 481.007 -0.499977 481.009C -0.499957 481.014 -0.499913 481.023 -0.499832 481.033C -0.499673 481.053 -0.499345 481.084 -0.498714 481.123C -0.497469 481.2 -0.494928 481.316 -0.489957 481.466C -0.480081 481.762 -0.460086 482.201 -0.420604 482.754C -0.341924 483.855 -0.183123 485.441 0.131803 487.332C 0.760476 491.102 2.03106 496.173 4.55279 501.224C 9.62508 511.368 19.7844 521.5 40 521.5L 40 520.5C 20.2156 520.5 10.3749 510.632 5.44721 500.776C 2.96894 495.827 1.73952 490.898 1.1182 487.168C 0.808123 485.309 0.654424 483.77 0.576854 482.683C 0.538211 482.143 0.519144 481.723 0.509488 481.433C 0.504693 481.289 0.502352 481.181 0.501156 481.107C 0.500566 481.07 0.500284 481.044 0.500137 481.025C 0.500065 481.016 0.500033 481.01 0.500015 481.005C 0.500007 481.003 0.500003 481.002 0.500001 481.001C 0.500001 481 0.5 481 0.5 481C 0.5 481 0.5 481 0 481ZM 40 521.5L 215 521.5L 215 520.5L 40 520.5L 40 521.5ZM 215 521C 215 521.5 215 521.5 215.001 521.5C 215.001 521.5 215.002 521.5 215.003 521.5C 215.004 521.5 215.007 521.5 215.009 521.5C 215.014 521.5 215.023 521.5 215.033 521.5C 215.053 521.5 215.084 521.499 215.123 521.499C 215.2 521.497 215.316 521.495 215.466 521.49C 215.762 521.48 216.201 521.46 216.754 521.421C 217.855 521.342 219.441 521.183 221.332 520.868C 225.102 520.24 230.173 518.969 235.224 516.447C 245.368 511.375 255.5 501.216 255.5 481L 254.5 481C 254.5 500.784 244.632 510.625 234.776 515.553C 229.827 518.031 224.898 519.26 221.168 519.882C 219.309 520.192 217.77 520.346 216.683 520.423C 216.143 520.462 215.723 520.481 215.433 520.491C 215.289 520.495 215.181 520.498 215.107 520.499C 215.07 520.499 215.044 520.5 215.025 520.5C 215.016 520.5 215.01 520.5 215.005 520.5C 215.003 520.5 215.002 520.5 215.001 520.5C 215 520.5 215 520.5 215 520.5C 215 520.5 215 520.5 215 521ZM 255.5 481L 255.5 40L 254.5 40L 254.5 481L 255.5 481ZM 255 40C 255.5 40 255.5 39.9996 255.5 39.9991C 255.5 39.9987 255.5 39.998 255.5 39.9972C 255.5 39.9958 255.5 39.9935 255.5 39.9907C 255.5 39.9856 255.5 39.9773 255.5 39.967C 255.5 39.9471 255.499 39.9164 255.499 39.8772C 255.497 39.8001 255.495 39.6835 255.49 39.5341C 255.48 39.2381 255.46 38.799 255.421 38.2456C 255.342 37.1448 255.183 35.559 254.868 33.6678C 254.24 29.8982 252.969 24.8265 250.447 19.7764C 245.375 9.6318 235.216 -0.5 215 -0.5L 215 0.5C 234.784 0.5 244.625 10.3682 249.553 20.2236C 252.031 25.1735 253.26 30.1018 253.882 33.8322C 254.192 35.691 254.346 37.2302 254.423 38.3169C 254.462 38.8573 254.481 39.2775 254.491 39.5674C 254.495 39.711 254.498 39.819 254.499 39.8933C 254.499 39.9298 254.5 39.9564 254.5 39.975C 254.5 39.9839 254.5 39.9902 254.5 39.9947C 254.5 39.9968 254.5 39.9981 254.5 39.9992C 254.5 39.9996 254.5 39.9998 254.5 40C 254.5 40.0001 254.5 40 255 40ZM 215 -0.5L 40 -0.5L 40 0.5L 215 0.5L 215 -0.5Z"/>
<path id="path6_stroke" d="M 34.5 18C 34.5 27.1127 27.1127 34.5 18 34.5L 18 37.5C 28.7696 37.5 37.5 28.7696 37.5 18L 34.5 18ZM 18 34.5C 8.8873 34.5 1.5 27.1127 1.5 18L -1.5 18C -1.5 28.7696 7.23045 37.5 18 37.5L 18 34.5ZM 1.5 18C 1.5 8.8873 8.8873 1.5 18 1.5L 18 -1.5C 7.23045 -1.5 -1.5 7.23045 -1.5 18L 1.5 18ZM 18 1.5C 27.1127 1.5 34.5 8.8873 34.5 18L 37.5 18C 37.5 7.23045 28.7696 -1.5 18 -1.5L 18 1.5Z"/>
<path id="path7_stroke" d="M 0 -2C -1.10457 -2 -2 -1.10457 -2 0C -2 1.10457 -1.10457 2 0 2L 0 -2ZM 40 2C 41.1046 2 42 1.10457 42 0C 42 -1.10457 41.1046 -2 40 -2L 40 2ZM 0 2L 40 2L 40 -2L 0 -2L 0 2Z"/>
<path id="path8_fill" d="M 41 0L 38 0C 38 0 0 0 0 38L 0 478C 0 478 0 516 38 516L 41 516C 5 516 5 480 5 480L 5 36C 5 0 41 0 41 0Z"/>
<path id="path9_fill" d="M 2 0C 2 0 0 0 0 2L 0 396C 0 396 0 398 2 398L 224 398C 224 398 226 398 226 396L 226 2C 226 2 226 0 224 0L 2 0Z"/>
<path id="path10_fill" d="M 0 0L 3 0C 3 0 41 0 41 38L 41 478C 41 478 41 516 3 516L 0 516C 36 516 36 480 36 480L 36 36C 36 0 0 0 0 0Z"/>
</defs>
</svg>
