<?xml version="1.0" encoding="utf-8"?>
<!-- Generator: Adobe Illustrator 22.0.0, SVG Export Plug-In . SVG Version: 6.00 Build 0)  -->
<svg version="1.1" id="Слой_1" xmlns="http://www.w3.org/2000/svg" xmlns:xlink="http://www.w3.org/1999/xlink" x="0px" y="0px"
	 width="120px" height="120px" viewBox="0 0 120 120" style="enable-background:new 0 0 120 120;" xml:space="preserve">
<style type="text/css">
	.st0{fill:#F9E011;}
	.st1{fill:#10192C;}
	.st2{fill:#FFFFFF;}
</style>
<path id="path0_fill" class="st0" d="M60,120c33.1,0,60-26.9,60-60S93.1,0,60,0S0,26.9,0,60S26.9,120,60,120z"/>
<path class="st1" d="M75.7,41.7L75,42.4l0,0L75.7,41.7c-1.5-1.5-2.9-2.9-4.4-4.4L70.6,38l0,0l0.7-0.7L71,37h-0.4H45h-1v1v42v1h1h30
	h1v-1V70c0-0.6-0.4-1-1-1s-1,0.4-1,1v9H46V39h22v4v1v1h1h1h4v9c0,0.6,0.4,1,1,1s1-0.4,1-1V42.4V42L75.7,41.7z M70,43v-4h0.2
	c1.3,1.3,2.5,2.5,3.8,3.8V43H70z M69,50c0,0.6-0.4,1-1,1H52c-0.6,0-1-0.4-1-1s0.4-1,1-1h16C68.6,49,69,49.4,69,50z M69,56
	c0,0.6-0.4,1-1,1H52c-0.6,0-1-0.4-1-1s0.4-1,1-1h16C68.6,55,69,55.4,69,56z M68,63H52c-0.6,0-1-0.4-1-1s0.4-1,1-1h16
	c0.6,0,1,0.4,1,1S68.6,63,68,63z M60,67c0.6,0,1,0.4,1,1s-0.4,1-1,1h-8c-0.6,0-1-0.4-1-1s0.4-1,1-1H60z"/>
<path id="path5_stroke" class="st2" d="M81.5,55.1c0.4-0.4,0.4-1,0-1.4c-0.4-0.4-1-0.4-1.4,0L81.5,55.1z M71.7,63.4L71,62.7l0,0
	L71.7,63.4z M74.5,66.2l-0.7-0.7l0,0L74.5,66.2z M85,55.8l0.7,0.7l0,0L85,55.8z M79.4,50.2l0.7,0.7l0,0l0,0L79.4,50.2z M68.8,60.8
	l0.7,0.7l0,0l0,0L68.8,60.8z M77.2,69.2l-0.7-0.7l0,0l0,0L77.2,69.2z M87.9,59.8c0.4-0.4,0.4-1,0-1.4c-0.4-0.4-1-0.4-1.4,0
	L87.9,59.8z M80.1,53.7l-9.1,9l1.4,1.4l9.1-9L80.1,53.7z M71,62.7c-0.6,0.6-0.9,1.3-0.9,2.1h2c0-0.2,0.1-0.5,0.3-0.7L71,62.7z
	 M70.1,64.8c0,0.8,0.3,1.5,0.9,2.1l1.4-1.4c-0.2-0.2-0.3-0.5-0.3-0.7H70.1z M71,66.9c1.2,1.2,3,1.2,4.2,0l-1.4-1.4
	c-0.4,0.4-1,0.4-1.4,0L71,66.9z M75.2,66.9l10.5-10.4l-1.4-1.4L73.8,65.5L75.2,66.9z M85.7,56.5c1-1,1.5-2.2,1.5-3.5h-2
	c0,0.7-0.3,1.5-0.9,2.1L85.7,56.5z M87.2,53c0-2.8-2.2-5-5-5v2c1.6,0,3,1.4,3,3H87.2z M82.2,48c-1.3,0-2.6,0.5-3.6,1.5l1.5,1.3
	c0.5-0.6,1.2-0.9,2-0.9V48z M78.7,49.5L68.1,60.1l1.4,1.4l10.6-10.6L78.7,49.5z M68.1,60.1C66.7,61.4,66,63.1,66,65h2
	c0-1.3,0.5-2.6,1.5-3.5L68.1,60.1z M66,65c0,3.9,3.1,7,7,7v-2c-2.7,0-5-2.3-5-5H66z M73,72c1.9,0,3.6-0.7,4.9-2.1l-1.5-1.4
	c-0.9,1-2.1,1.5-3.5,1.5V72z M77.9,69.9l10-10.1l-1.4-1.4l-10,10.1L77.9,69.9z"/>
</svg>
