<svg width="10" height="13" viewBox="0 0 10 13" version="1.1" xmlns="http://www.w3.org/2000/svg" xmlns:xlink="http://www.w3.org/1999/xlink">
<title>ico</title>
<desc>Created using Figma</desc>
<g id="Canvas" transform="translate(45452 17553)">
<g id="ico">
<g id="Vector">
<use xlink:href="#path0_stroke" transform="translate(-45451 -17547)" fill="#10192C"/>
</g>
<g id="Vector">
<use xlink:href="#path1_stroke" transform="translate(-45450 -17552)" fill="#10192C"/>
</g>
<g id="Vector">
<use xlink:href="#path2_stroke" transform="translate(-45447 -17543)" fill="#10192C"/>
</g>
</g>
</g>
<defs>
<path id="path0_stroke" d="M 0 0L 0 -1C -0.552285 -1 -1 -0.552285 -1 2.22045e-16L 0 0ZM 8 0L 9 0C 9 -0.552285 8.55229 -1 8 -1L 8 0ZM 8 6L 8 7C 8.55229 7 9 6.55228 9 6L 8 6ZM 0 6L -1 6C -1 6.55228 -0.552285 7 2.22045e-16 7L 0 6ZM 0 1L 8 1L 8 -1L 0 -1L 0 1ZM 7 0L 7 6L 9 6L 9 0L 7 0ZM 8 5L 0 5L 0 7L 8 7L 8 5ZM 1 6L 1 0L -1 0L -1 6L 1 6Z"/>
<path id="path1_stroke" d="M 5 4C 5 4.55228 5.44772 5 6 5C 6.55228 5 7 4.55228 7 4L 5 4ZM -1 4C -1 4.55228 -0.552285 5 0 5C 0.552285 5 1 4.55228 1 4L -1 4ZM 7 4L 7 2.9L 5 2.9L 5 4L 7 4ZM 7 2.9C 7 0.725664 5.22997 -1 3 -1L 3 1C 4.17003 1 5 1.87434 5 2.9L 7 2.9ZM 3 -1C 0.770028 -1 -1 0.725664 -1 2.9L 1 2.9C 1 1.87434 1.82997 1 3 1L 3 -1ZM -1 2.9L -1 4L 1 4L 1 2.9L -1 2.9Z"/>
<path id="path2_stroke" d="M 1 0C 1 -0.552285 0.552285 -1 0 -1C -0.552285 -1 -1 -0.552285 -1 0L 1 0ZM -1 2C -1 2.55228 -0.552285 3 0 3C 0.552285 3 1 2.55228 1 2L -1 2ZM -1 0L -1 2L 1 2L 1 0L -1 0Z"/>
</defs>
</svg>
