<svg width="119" height="30" viewBox="0 0 119 30" version="1.1" xmlns="http://www.w3.org/2000/svg" xmlns:xlink="http://www.w3.org/1999/xlink">
<title>logo</title>
<desc>Created using Figma</desc>
<g id="Canvas" transform="translate(46627 17561)">
<g id="logo">
<g id="Vector">
<use xlink:href="#path0_fill" transform="translate(-46585.8 -17552)" fill="#10192C"/>
</g>
<g id="Vector">
<use xlink:href="#path1_fill" transform="translate(-46575.3 -17552)" fill="#10192C"/>
</g>
<g id="Vector">
<use xlink:href="#path2_fill" transform="translate(-46563.3 -17552)" fill="#10192C"/>
</g>
<g id="Vector">
<use xlink:href="#path3_fill" transform="translate(-46552.7 -17552)" fill="#10192C"/>
</g>
<g id="Vector">
<use xlink:href="#path4_fill" transform="translate(-46537.8 -17543.4)" fill="#10192C"/>
</g>
<g id="Vector">
<use xlink:href="#path5_fill" transform="translate(-46531.8 -17552)" fill="#10192C"/>
</g>
<g id="Vector">
<use xlink:href="#path6_fill" transform="translate(-46519.6 -17552)" fill="#10192C"/>
</g>
<g id="Vector">
<use xlink:href="#path7_fill" transform="translate(-46627 -17561)" fill="#F9E011"/>
</g>
<g id="Vector">
<use xlink:href="#path8_fill" transform="translate(-46603 -17536)" fill="#FCC900"/>
</g>
<g id="Vector">
<use xlink:href="#path9_stroke" transform="translate(-46621 -17553)" fill="#10192C"/>
</g>
<g id="Vector">
<use xlink:href="#path9_stroke" transform="translate(-46621 -17548)" fill="#10192C"/>
</g>
<g id="Vector">
<use xlink:href="#path10_stroke" transform="translate(-46621 -17543)" fill="#10192C"/>
</g>
</g>
</g>
<defs>
<path id="path0_fill" d="M 12.3 0L 9.1 0L 6.3 4.6L 3.4 0L 7.62939e-07 0L 4.8 7.2L 4.8 12.1L 7.5 12.1L 7.5 7.2L 12.3 0Z"/>
<path id="path1_fill" d="M 6.8 3.3L 8.4 7L 5.1 7L 6.8 3.3ZM 7.62939e-07 12.1L 2.8 12.1L 3.9 9.6L 9.6 9.6L 10.7 12.1L 13.7 12.1L 8.1 0L 5.6 0L 7.62939e-07 12.1Z"/>
<path id="path2_fill" d="M 12.3 0L 9.1 0L 6.3 4.6L 3.4 0L 7.62939e-07 0L 4.8 7.2L 4.8 12.1L 7.5 12.1L 7.5 7.2L 12.3 0Z"/>
<path id="path3_fill" d="M 6.7 3.3L 8.3 7L 5 7L 6.7 3.3ZM 3.05176e-06 12.1L 2.8 12.1L 3.9 9.6L 9.6 9.6L 10.7 12.1L 13.7 12.1L 8.1 0L 5.6 0L 3.05176e-06 12.1Z"/>
<path id="path4_fill" d="M -3.05176e-06 1.7C -3.05176e-06 2.6 0.7 3.5 1.8 3.5C 2.8 3.5 3.5 2.6 3.5 1.7C 3.5 0.899999 2.8 3.8147e-07 1.8 3.8147e-07C 0.7 0.1 -3.05176e-06 0.899999 -3.05176e-06 1.7Z"/>
<path id="path5_fill" d="M 4.5 2.6C 6 2.6 6.5 3.2 6.5 3.9C 6.5 4.8 5.6 5.3 4.4 5.3L 2.8 5.3L 2.8 2.7C 3.3 2.7 4 2.6 4.5 2.6ZM 2.7 12.1L 2.7 7.9L 4.4 7.9L 6.3 10.4C 7.6 12.1 9.5 12.6 10.8 12.1L 10.8 9.6C 10 9.9 9.1 9.6 8.6 9L 7.3 7.4C 8.1 7.1 9.5 6.1 9.5 3.9C 9.5 1.7 8.1 1.77636e-15 4.7 1.77636e-15C 3.3 1.77636e-15 0.699997 1.77636e-15 -3.05176e-06 1.77636e-15L -3.05176e-06 12L 2.7 12L 2.7 12.1Z"/>
<path id="path6_fill" d="M 11.2 0L 8.4 0L 8.4 6.5C 8.4 8.4 7.7 9.6 5.8 9.6C 3.6 9.6 2.8 8.2 2.8 6.3L 2.8 0L 1.52588e-06 0L 1.52588e-06 7C 1.52588e-06 10.5 2.4 12.3 5.8 12.3C 8.7 12.3 11.2 10.8 11.2 7.1L 11.2 0Z"/>
<path id="path7_fill" d="M 30 25L 30 0L 0 0L 0 25L 0 30L 6 30L 6 25L 8 25L 8 30L 14 30L 14 25L 16 25L 16 30L 22 30L 22 25L 30 25Z"/>
<path id="path8_fill" d="M 0 0L 0 5L 6 0L 0 0Z"/>
<path id="path9_stroke" d="M 0 1L 18 1L 18 -1L 0 -1L 0 1Z"/>
<path id="path10_stroke" d="M 0 1L 11 1L 11 -1L 0 -1L 0 1Z"/>
</defs>
</svg>
