<?xml version="1.0" encoding="utf-8"?>
<!-- Generator: Adobe Illustrator 22.0.0, SVG Export Plug-In . SVG Version: 6.00 Build 0)  -->
<svg version="1.1" id="Слой_1" xmlns="http://www.w3.org/2000/svg" xmlns:xlink="http://www.w3.org/1999/xlink" x="0px" y="0px"
	 width="120px" height="120px" viewBox="0 0 120 120" style="enable-background:new 0 0 120 120;" xml:space="preserve">
<style type="text/css">
	.st0{fill:#F9E011;}
	.st1{fill:#10192C;}
	.st2{fill:#FAE012;}
	.st3{fill:#FFFFFF;}
</style>
<path id="path1_fill" class="st0" d="M60,120c33.1,0,60-26.9,60-60S93.1,0,60,0S0,26.9,0,60S26.9,120,60,120z"/>
<path class="st1" d="M82,44.5H66v-8v-1h-1H55h-1v1v8H38h-1v1v36v1h1h44h1v-1v-36v-1H82z M56,37.5h8v7h-8V37.5z M64,49.5h-8v-3h8
	V49.5z M54,50.5v1h1h10h1v-1v-4h15v34H39v-6h4h1h14.1h1H71v-2H59.1c0-0.8,0-1.8-0.2-2.7c-0.2-1.2-0.8-2.8-2.4-3.1l0,0
	c-1.1-0.3-1.9-0.4-2.3-0.7C54,66,54,66,54,65.9c0,0,0-0.1,0.1-0.3l0,0c1.4-2.6,1.7-4.9,1-6.6c-0.7-1.8-2.4-2.6-4.1-2.6
	c-1.8,0-3.5,0.9-4.2,2.6c-0.7,1.7-0.3,4,1.1,6.5l0,0C48,65.8,48,65.9,48,66c0,0,0,0.1-0.1,0.1c-0.4,0.3-1.2,0.4-2.2,0.6l0.2,1l0,0
	l-0.2-1l0,0l0,0c-1.7,0.4-2.3,1.9-2.5,3.2C43,70.8,43,71.7,43,72.5h-4v-26h15V50.5z M46.1,68.7c0.9-0.2,2-0.4,2.8-0.9
	c0.4-0.3,0.9-0.6,1-1.3c0.2-0.6,0-1.2-0.3-1.8l0,0l0,0c-1.3-2.3-1.4-3.9-1-4.8c0.3-0.9,1.2-1.4,2.3-1.4c1.1,0,1.9,0.5,2.3,1.3
	c0.4,0.9,0.3,2.5-1,4.9l0,0c-0.3,0.6-0.5,1.2-0.3,1.8c0.2,0.6,0.6,1,1.1,1.2c0.8,0.4,1.9,0.7,2.8,0.9l0,0l0,0
	c0.3,0.1,0.7,0.4,0.9,1.5c0.1,0.7,0.2,1.5,0.2,2.3H45c0-0.7,0-1.5,0.2-2.2C45.3,69.2,45.7,68.8,46.1,68.7z"/>
<rect x="58" y="39.5" class="st1" width="4" height="2"/>
<path id="path4_fill" class="st2" d="M64,41.5h-8v8h8V41.5z"/>
<path id="path8_fill" class="st2" d="M75,74.5c6.6,0,12-5.4,12-12s-5.4-12-12-12s-12,5.4-12,12S68.4,74.5,75,74.5z"/>
<path class="st3" d="M88.4,52.9L87,51.5l-2.2,2.4c-2.4-2.7-5.9-4.4-9.7-4.4c-7.2,0-13,5.8-13,13s5.8,13,13,13s13-5.8,13-13
	c0-2.6-0.8-4.9-2-7L88.4,52.9z M86,62.5c0,6.1-4.9,11-11,11c-6.1,0-11-4.9-11-11c0-6.1,4.9-11,11-11c3.4,0,6.4,1.5,8.4,3.9L75,64.5
	l-6-5l-1.3,1.5l6,5l0.7,0.6l0.7-0.8l0.8,0.7l0.6-0.7l8.1-8.8C85.5,58.7,86,60.5,86,62.5z M74.4,65.3L74.4,65.3L74.4,65.3L74.4,65.3z
	 M75.2,67.3l-0.8-0.7l0.7-0.8l0.8,0.7L75.2,67.3z"/>
</svg>
