<?xml version="1.0" encoding="utf-8"?>
<!-- Generator: Adobe Illustrator 22.0.0, SVG Export Plug-In . SVG Version: 6.00 Build 0)  -->
<svg version="1.1" id="Слой_1" xmlns="http://www.w3.org/2000/svg" xmlns:xlink="http://www.w3.org/1999/xlink" x="0px" y="0px"
	 width="120px" height="120px" viewBox="0 0 120 120" style="enable-background:new 0 0 120 120;" xml:space="preserve">
<style type="text/css">
	.st0{fill:#F9E011;}
	.st1{fill:#10192C;}
	.st2{fill:#FFFFFF;}
</style>
<path id="path0_fill" class="st0" d="M60,120c33.1,0,60-26.9,60-60S93.1,0,60,0S0,26.9,0,60S26.9,120,60,120z"/>
<path class="st1" d="M57.8,54.2l0.5,0.9l0,0l0,0L57.8,54.2z M60.5,52.3L60,51.5l0,0l0,0L60.5,52.3z M65.8,48.7l0.6,0.8l0,0
	L65.8,48.7z M69.3,46.3l-0.6-0.8l0,0L69.3,46.3z M75.2,42.3l0.6,0.8l0,0l0,0L75.2,42.3z M76.4,41.6l0.2,1l0.1,0l0.1,0L76.4,41.6z
	 M79.6,42.5L78.8,43l0,0l0,0L79.6,42.5z M78.8,45.9l-0.6-0.8l0,0l0,0L78.8,45.9z M75.4,48.4l0.6,0.8l0,0l0,0L75.4,48.4z M73.7,49.5
	l-0.6-0.8l0,0l0,0L73.7,49.5z M72.6,50.3l0.6,0.8l0,0l0,0L72.6,50.3z M72.1,50.7l0.6,0.8l0,0l0,0L72.1,50.7z M70.7,51.7l-0.6-0.8
	l-1.4,1l1.6,0.7L70.7,51.7z M72.3,52.4l0.4-0.9l0,0l0,0L72.3,52.4z M75,54.5l0.9-0.3l0,0l0,0L75,54.5z M74.5,57l-0.9-0.5l0,0l0,0
	L74.5,57z M74.2,57.6l-0.9-0.4l-0.3,0.6l0.4,0.5L74.2,57.6z M74.6,58.1l-0.8,0.6l0,0l0,0L74.6,58.1z M76.2,64l-1-0.2l0,0l0,0.1
	L76.2,64z M76.1,64.7l-1-0.1L75,65.3l0.6,0.3L76.1,64.7z M76.7,65l0.5-0.9l0,0l0,0L76.7,65z M77.4,66.1h-1v0l0,0L77.4,66.1z
	 M73.9,71.4l0.6,0.8l0,0L73.9,71.4z M67.3,75.5l0.5,0.9l0,0L67.3,75.5z M60.1,80l0.6,0.8l0,0l0,0L60.1,80z M59.3,80.4l0,1h0V80.4z
	 M58.7,79.7l0.9-0.5l0,0l0,0L58.7,79.7z M55.2,74.4l0.8-0.6l0,0L55.2,74.4z M50.2,66.7l-0.9,0.5l0,0l0,0L50.2,66.7z M48.9,62.3
	l1-0.1l0,0l0,0L48.9,62.3z M48.8,51.7l-1-0.1l0,0L48.8,51.7z M45.8,44.2l-0.7,0.7l0,0l0,0L45.8,44.2z M45.2,43.7l0.7-0.7l0,0l0,0
	L45.2,43.7z M44.6,42.5L43.8,42l0,0l0,0L44.6,42.5z M47.5,41.4l0.2-1l0,0l0,0L47.5,41.4z M53.7,47.7l0.9-0.4l0,0L53.7,47.7z
	 M55.4,51.7l-0.9,0.4l0,0l0,0L55.4,51.7z M56.3,53.7l-0.9,0.4l0,0l0,0L56.3,53.7z M56.8,54.8l-0.9,0.4l0.5,1l1-0.6L56.8,54.8z
	 M58.4,55l2.7-1.9L60,51.5l-2.7,1.9L58.4,55z M61.1,53.1l5.3-3.6l-1.1-1.7L60,51.5L61.1,53.1z M66.4,49.5l3.5-2.4l-1.1-1.6l-3.5,2.4
	L66.4,49.5z M69.9,47.1l5.9-4l-1.1-1.7l-5.9,4L69.9,47.1z M75.8,43.1c0.5-0.3,0.7-0.5,0.8-0.5l-0.5-1.9c-0.6,0.2-1.2,0.6-1.6,0.9
	L75.8,43.1z M76.8,42.5c0.9-0.4,1.7,0,2,0.5l1.7-1c-0.9-1.5-2.7-2-4.4-1.3L76.8,42.5z M78.8,43c0.4,0.6,0.3,1.4-0.6,2.1l1.2,1.6
	c1.6-1.2,2.1-3.1,1-4.7L78.8,43z M78.2,45.1c-1.1,0.9-2.2,1.7-3.4,2.5l1.2,1.6c1.1-0.8,2.3-1.6,3.4-2.5L78.2,45.1z M74.9,47.6
	c-0.6,0.4-1.1,0.7-1.7,1.1l1.1,1.7c0.6-0.4,1.1-0.7,1.7-1.1L74.9,47.6z M73.1,48.7c-0.2,0.1-0.3,0.2-0.5,0.4
	c-0.2,0.1-0.5,0.3-0.7,0.5l1.4,1.4c0.1-0.1,0.2-0.2,0.4-0.3c0.2-0.1,0.4-0.3,0.6-0.4L73.1,48.7z M72,49.5l-0.5,0.4l1.2,1.6l0.5-0.4
	L72,49.5z M71.6,49.9l-1.4,1l1.2,1.6l1.4-1L71.6,49.9z M70.3,52.6l1.6,0.7l0.8-1.8l-1.6-0.7L70.3,52.6z M71.9,53.3
	c1.5,0.7,2.1,1.3,2.2,1.6l1.8-0.8c-0.5-1.1-1.7-1.9-3.2-2.6L71.9,53.3z M74.1,54.8c0.1,0.2,0.1,0.7-0.4,1.7l1.8,1
	c0.7-1.2,0.9-2.3,0.6-3.3L74.1,54.8z M73.6,56.5l-0.3,0.6l1.8,0.9l0.3-0.6L73.6,56.5z M73.5,58.2l0.4,0.5l1.6-1.2L75,57L73.5,58.2z
	 M73.9,58.8c0.3,0.2,0.6,0.6,0.9,1l1.4-1.4c-0.3-0.2-0.6-0.6-0.9-1L73.9,58.8z M74.8,59.8c0.3,0.3,0.5,0.5,0.7,0.8
	c0.1,0.1,0.1,0.2,0.2,0.2c0,0.1,0,0.1,0,0.1l2-0.4c-0.1-0.5-0.4-0.9-0.6-1.2c-0.2-0.3-0.6-0.6-0.9-0.9L74.8,59.8z M75.8,60.9
	c0.1,0.3,0,0.8-0.2,1.6l1.9,0.5c0.2-0.8,0.4-1.7,0.2-2.4L75.8,60.9z M75.6,62.5c-0.1,0.4-0.2,0.9-0.3,1.3l1.9,0.5
	c0.1-0.4,0.2-0.9,0.3-1.3L75.6,62.5z M75.2,63.9l-0.1,0.7l2,0.3l0.1-0.7L75.2,63.9z M75.7,65.6l0.6,0.3l0.9-1.8l-0.6-0.3L75.7,65.6z
	 M76.2,65.9c0.2,0.1,0.2,0.2,0.2,0.2c0,0,0,0,0,0c0,0,0,0,0,0.1h2c0-0.4-0.1-0.8-0.3-1.2c-0.2-0.3-0.5-0.6-0.9-0.8L76.2,65.9z
	 M76.4,66.2c0,0.4-0.2,1.2-0.8,2.1c-0.6,0.9-1.4,1.7-2.3,2.3l1.1,1.6c1.1-0.8,2.1-1.8,2.8-2.9c0.7-1,1.2-2.2,1.1-3.3L76.4,66.2z
	 M73.4,70.6c-2.6,1.8-4.6,3-6.5,4.1l1,1.7c1.9-1.1,4-2.3,6.7-4.1L73.4,70.6z M66.8,74.6c-2.1,1.2-4.3,2.5-7.3,4.5l1.1,1.6
	c2.9-2,5-3.3,7.1-4.5L66.8,74.6z M59.6,79.2c-0.3,0.2-0.4,0.2-0.4,0.3c0,0,0,0,0,0c0,0,0.1,0,0.1,0c0,0,0.1,0,0,0c0,0,0,0,0,0
	c0,0,0,0,0,0c0,0,0,0,0,0c0,0,0,0,0,0c0,0,0,0,0,0c0,0,0,0,0,1c0,1,0,1,0,1c0,0,0,0,0,0c0,0,0,0,0,0c0,0,0,0,0,0c0,0,0,0,0,0
	c0,0,0,0,0,0c0,0,0,0,0.1,0c0,0,0.1,0,0.1,0c0.1,0,0.2,0,0.3-0.1c0.2-0.1,0.5-0.2,0.8-0.4L59.6,79.2z M59.3,80.4c0-1,0-1,0-1
	c0,0,0,0,0,0c0,0,0,0,0,0c0,0,0,0,0,0c0,0,0,0,0,0c0,0,0.1,0,0.1,0c0,0,0.1,0,0.1,0c0.1,0,0.1,0,0.2,0.1c0.1,0,0.1,0.1,0.1,0.1
	c0,0-0.1-0.1-0.2-0.4l-1.7,1c0.2,0.4,0.4,0.7,0.7,0.9c0.1,0.1,0.3,0.2,0.4,0.2c0.1,0,0.2,0.1,0.2,0.1c0,0,0.1,0,0.1,0c0,0,0,0,0.1,0
	c0,0,0,0,0,0c0,0,0,0,0,0c0,0,0,0,0,0c0,0,0,0,0,0C59.3,81.4,59.3,81.4,59.3,80.4z M59.6,79.1c-1.2-1.8-2.3-3.5-3.5-5.3L54.4,75
	c1.2,1.8,2.3,3.5,3.5,5.3L59.6,79.1z M56.1,73.8c-1.7-2.5-3.4-5.1-5-7.7l-1.7,1c1.6,2.6,3.3,5.2,5,7.7L56.1,73.8z M51.1,66.2
	c-0.6-1.1-1.1-2.5-1.2-4l-2,0.1c0.1,1.7,0.7,3.5,1.4,4.8L51.1,66.2z M49.9,62.2c-0.3-3.7-0.3-7.2-0.1-10.5l-2-0.1
	c-0.2,3.3-0.2,7,0.1,10.7L49.9,62.2z M49.8,51.8c0.2-3.3-0.9-6-3.3-8.3l-1.4,1.4c2,1.9,2.9,4,2.7,6.7L49.8,51.8z M46.5,43.5
	c-0.3-0.3-0.5-0.4-0.6-0.5l-1.4,1.4c0.3,0.3,0.5,0.4,0.6,0.5L46.5,43.5z M45.8,42.9c-0.2-0.2-0.3-0.3-0.4-0.3c0,0,0-0.1,0,0
	c0,0,0,0,0.1,0.1c0,0.1,0,0.1,0,0.2c0,0.1,0,0.2,0,0.2c0,0,0,0,0,0c0,0,0-0.1,0.1-0.1L43.7,42c0,0.1-0.1,0.2-0.2,0.4
	c-0.1,0.2-0.1,0.6,0,0.9c0.1,0.3,0.3,0.5,0.4,0.6c0.1,0.1,0.4,0.3,0.6,0.5L45.8,42.9z M45.5,43c0.3-0.4,0.6-0.6,0.8-0.7
	c0.3-0.1,0.6-0.1,1,0l0.4-2c-0.5-0.1-1.3-0.2-2,0c-0.8,0.2-1.5,0.7-2,1.6L45.5,43z M47.3,42.4c2.5,0.6,4.2,2.3,5.5,5.7l1.9-0.7
	c-1.5-3.8-3.6-6.1-6.9-6.9L47.3,42.4z M52.8,48.1c0.5,1.3,1.1,2.6,1.7,4l1.8-0.8c-0.6-1.4-1.2-2.7-1.7-4L52.8,48.1z M54.5,52.1
	c0.3,0.6,0.6,1.2,0.9,1.9l1.8-0.8c-0.3-0.7-0.6-1.4-0.9-2.1L54.5,52.1z M55.4,54.1l0.5,1.1l1.8-0.8l-0.5-1.1L55.4,54.1z M57.3,55.7
	l1-0.6l-1-1.7l-1,0.6L57.3,55.7z M45.7,66.8l-0.5-0.9l0,0l0,0L45.7,66.8z M46.3,66.5l0-1h0L46.3,66.5z M46.7,66.9l0.8-0.6l0,0l0,0
	L46.7,66.9z M56.6,81.7l0.9-0.4l0-0.1l0-0.1L56.6,81.7z M56.8,82.2h-1H56.8z M56.5,82.5l0.5,0.8l0,0l0,0L56.5,82.5z M51,86.2
	l-0.6-0.8l0,0l0,0L51,86.2z M38.2,73.2c2.7-1.8,5.5-3.7,8.1-5.6L45.1,66c-2.6,1.9-5.4,3.8-8.1,5.6L38.2,73.2z M46.2,67.7
	c0.2-0.1,0.3-0.2,0.4-0.2c0,0,0,0,0,0c0,0-0.1,0-0.1,0c0,0-0.1,0-0.1,0c0,0,0,0,0,0c0,0,0,0,0,0c0,0,0,0,0,0c0,0,0,0,0,0
	c0,0,0,0,0,0c0,0,0,0,0-1s0-1,0-1c0,0,0,0,0,0c0,0,0,0,0,0c0,0,0,0,0,0c0,0,0,0,0,0c0,0,0,0,0,0c0,0-0.1,0-0.1,0c0,0-0.1,0-0.1,0
	c0,0-0.1,0-0.2,0.1c-0.1,0-0.3,0.2-0.6,0.3L46.2,67.7z M46.3,66.5c0,1,0,1,0,1c0,0,0,0,0,0c0,0,0,0,0,0c0,0,0,0,0,0c0,0,0,0,0,0
	c0,0-0.1,0-0.1,0c0,0-0.1,0-0.1,0c-0.1,0-0.1,0-0.2-0.1c-0.1,0-0.1-0.1-0.2-0.1c0,0,0,0,0.1,0.2l1.6-1.2c-0.2-0.2-0.3-0.4-0.5-0.5
	c-0.1-0.1-0.2-0.1-0.3-0.2c-0.1,0-0.2-0.1-0.2-0.1c0,0-0.1,0-0.1,0c0,0,0,0-0.1,0c0,0,0,0,0,0c0,0,0,0,0,0c0,0,0,0,0,0c0,0,0,0,0,0
	C46.3,65.5,46.3,65.5,46.3,66.5z M45.9,67.5c3.3,5,6.6,9.9,9.9,14.8l1.7-1.1c-3.3-4.9-6.6-9.8-9.9-14.8L45.9,67.5z M55.7,82.1
	c0.1,0.2,0.1,0.2,0.1,0.3c0,0,0,0,0,0c0,0,0-0.1,0-0.1c0,0,0-0.1,0,0C55.8,82.3,55.8,82.2,55.7,82.1C55.8,82.2,55.8,82.2,55.7,82.1
	C55.8,82.2,55.8,82.2,55.7,82.1C55.8,82.2,55.8,82.2,55.7,82.1C55.8,82.2,55.8,82.2,55.7,82.1c0.1,0.1,0.1,0.1,1.1,0.1s1,0,1,0
	c0,0,0,0,0,0c0,0,0,0,0,0s0,0,0,0c0,0,0,0,0,0c0,0,0,0,0,0c0,0,0,0,0-0.1c0,0,0-0.1,0-0.1c0,0,0-0.1-0.1-0.2c0-0.1-0.1-0.3-0.2-0.5
	L55.7,82.1z M56.8,82.2c-1,0-1,0-1,0c0,0,0,0,0,0c0,0,0,0,0,0c0,0,0,0,0,0c0,0,0,0,0,0c0,0,0-0.1,0,0c0,0,0-0.1,0-0.1
	c0-0.1,0-0.1,0-0.2c0-0.1,0.1-0.2,0.1-0.2c0.1-0.1,0.1-0.1,0,0l1.1,1.7c0.2-0.1,0.4-0.3,0.5-0.5c0.1-0.1,0.1-0.2,0.2-0.3
	c0-0.1,0-0.1,0.1-0.2c0,0,0-0.1,0-0.1c0,0,0,0,0,0c0,0,0,0,0,0c0,0,0,0,0,0c0,0,0,0,0,0c0,0,0,0,0,0C57.8,82.2,57.8,82.2,56.8,82.2z
	 M56,81.7c-1.9,1.2-3.7,2.5-5.5,3.7l1.1,1.7c1.8-1.2,3.6-2.5,5.5-3.7L56,81.7z M50.4,85.4l-2.9,2l1.1,1.6l2.9-2L50.4,85.4z"/>
<path class="st2" d="M62.7,27c0-0.6-0.4-1-1-1s-1,0.4-1,1H62.7z M60.7,34.5c0,0.6,0.4,1,1,1s1-0.4,1-1H60.7z M60.7,27v7.5h2V27H60.7
	z M53.4,30.9c-0.2-0.5-0.8-0.7-1.3-0.5c-0.5,0.2-0.7,0.8-0.5,1.3L53.4,30.9z M54.6,38.6c0.2,0.5,0.8,0.7,1.3,0.5
	c0.5-0.2,0.7-0.8,0.5-1.3L54.6,38.6z M51.6,31.7l3,6.9l1.8-0.8l-3-6.9L51.6,31.7z M71.7,31.5c0.2-0.5,0-1.1-0.5-1.3
	c-0.5-0.2-1.1,0-1.3,0.5L71.7,31.5z M66.8,37.6c-0.2,0.5,0,1.1,0.5,1.3c0.5,0.2,1.1,0,1.3-0.5L66.8,37.6z M69.9,30.7l-3.1,6.9
	l1.8,0.8l3.1-6.9L69.9,30.7z"/>
</svg>
