<svg width="320" height="950" viewBox="0 0 320 950" fill="none" xmlns="http://www.w3.org/2000/svg">
<path d="M438.97 58.7573C438.97 58.7573 448.449 50.8732 448.449 63.1921V542.483C448.449 542.483 448.449 554.802 436.138 554.802H-176.138C-176.138 554.802 -188.449 554.802 -188.449 542.483V45.9906C-188.449 45.9906 -188.449 33.6717 -177.123 38.5171L-113.556 65.783C-113.556 65.783 -102.23 70.6284 -91.7244 64.2226L8.28349 3.12082C8.28349 3.12082 18.789 -3.285 29.787 2.2585L219.543 111.031C219.543 111.031 230.541 116.574 241.745 111.523L264.849 101.093C264.849 101.093 276.093 96.0425 287.419 100.806L343.107 132.86C343.107 132.86 354.474 137.623 363.954 129.739L438.97 58.7573Z" fill="white"/>
<path d="M-173.521 453.757C-173.521 453.757 -183 445.873 -183 458.192V937.483C-183 937.483 -183 949.802 -170.689 949.802H441.587C441.587 949.802 453.898 949.802 453.898 937.483V440.991C453.898 440.991 453.898 428.672 442.572 433.517L379.005 460.783C379.005 460.783 367.679 465.628 357.174 459.223L257.166 398.121C257.166 398.121 246.66 391.715 235.662 397.259L45.9058 506.031C45.9058 506.031 34.9078 511.574 23.7046 506.523L0.600677 496.093C0.600677 496.093 -10.6436 491.043 -21.9698 495.806L-77.6575 527.86C-77.6575 527.86 -89.0247 532.623 -98.5043 524.739L-173.521 453.757Z" fill="#F5F4F9"/>
</svg>
