<svg width="104" height="70" viewBox="0 0 104 70" fill="none" xmlns="http://www.w3.org/2000/svg">
<path d="M16.3 53.0996H12.1L8.3 59.0996L4.5 53.0996H0L6.3 62.5996V69.0996H10V62.5996L16.3 53.0996Z" fill="white"/>
<path d="M23 57.4L25.2 62.3H20.8L23 57.4ZM14 69.1H17.8L19.3 65.8H26.8L28.3 69.1H32.3L24.8 53H21.5L14 69.1Z" fill="white"/>
<path d="M46.3 53.0996H42.1L38.3 59.0996L34.5 53.0996H30L36.3 62.5996V69.0996H40V62.5996L46.3 53.0996Z" fill="white"/>
<path d="M53 57.4L55.2 62.3H50.8L53 57.4ZM44 69.1H47.8L49.3 65.8H56.8L58.3 69.1H62.3L54.8 53H51.5L44 69.1Z" fill="white"/>
<path d="M63.8984 66.8C63.8984 68.1 64.7984 69.2 66.2984 69.2C67.5984 69.2 68.4984 68 68.4984 66.8C68.4984 65.7 67.5984 64.5 66.2984 64.5C64.7984 64.5 63.8984 65.7 63.8984 66.8Z" fill="white"/>
<path d="M77.9008 56.5004C79.9008 56.5004 80.5008 57.3004 80.5008 58.2004C80.5008 59.4004 79.3008 60.0004 77.7008 60.0004H75.5008V56.6004C76.4008 56.5004 77.3008 56.5004 77.9008 56.5004ZM75.5008 69.1004V63.5004H77.8008L80.3008 66.8004C82.0008 69.1004 84.5008 69.7004 86.3008 69.0004V65.7004C85.3008 66.1004 84.0008 65.6004 83.4008 64.9004L81.6008 62.7004C82.7008 62.2004 84.5008 61.0004 84.5008 58.1004C84.5008 55.1004 82.6008 52.9004 78.1008 52.9004C76.2008 52.9004 72.8008 53.0004 71.8008 53.0004V69.0004H75.5008V69.1004Z" fill="white"/>
<path d="M103.1 53.0996H99.3V61.7996C99.3 64.2996 98.4 65.9996 95.8 65.9996C92.9 65.9996 91.8 64.0996 91.8 61.5996V53.0996H88V62.3996C88 67.0996 91.2 69.4996 95.7 69.4996C99.5 69.4996 103 67.4996 103 62.5996V53.0996H103.1Z" fill="white"/>
<path d="M40 30H32V38H40V30Z" fill="#F9E011"/>
<path d="M50 30H42V38H50V30Z" fill="#F9E011"/>
<path d="M60 30H52V38H60V30Z" fill="#F9E011"/>
<path d="M62 30V38L70 30H62Z" fill="#FCC900"/>
<path d="M70 0H32V30H70V0Z" fill="#F9E011"/>
<path d="M62 8H40V10H62V8Z" fill="#10192C"/>
<path d="M62 14H40V16H62V14Z" fill="#10192C"/>
<path d="M53 20H40V22H53V20Z" fill="#10192C"/>
</svg>
