<svg width="72" height="72" viewBox="0 0 72 72" fill="none" xmlns="http://www.w3.org/2000/svg">
<path d="M38.9603 5.85498C52.3807 5.85498 63.1765 15.1583 62.8248 26.4416L62.446 38.8912L15.9346 39.1082L16.2593 24.5701C16.5028 14.1818 26.5951 5.85498 38.9603 5.85498Z" fill="black"/>
<path d="M27.7315 7.72656C17.1251 7.72656 8.57499 16.4874 8.84556 27.1469L9.14319 38.8913L45.941 39.0811L45.6705 25.3839C45.4811 15.5923 37.4992 7.72656 27.7315 7.72656Z" fill="black"/>
<path d="M63.2306 38.1047C61.8236 36.6943 59.9026 36.1518 58.0627 36.423C58.0897 36.6671 58.0897 36.9384 58.1168 37.1825C58.1168 37.3995 58.1439 37.6436 58.1439 37.8606V48.3844C58.1439 49.1439 58.1168 49.8762 58.0356 50.6085C58.0086 50.8798 57.9815 51.151 57.9274 51.4222C59.2532 51.4222 60.579 50.9069 61.5801 49.9033C62.3918 49.0896 62.8789 48.0861 63.0142 47.0283C63.0412 46.8655 63.0953 46.7299 63.2306 46.6214C65.5575 44.2888 65.5575 40.4373 63.2306 38.1047Z" fill="white" stroke="black" stroke-width="1.00779" stroke-miterlimit="10"/>
<path d="M58.1168 37.1825C57.7651 27.0926 49.4044 18.9556 39.2579 18.9556H32.7371C22.3472 18.9556 13.8512 27.4723 13.8512 37.8877V48.3844C13.8512 60.5899 23.8082 70.5713 35.984 70.5713C47.4022 70.5713 56.8993 61.7833 58.0086 50.6085C58.0898 49.8762 58.1168 49.1167 58.1168 48.3844V37.8877C58.1168 37.6435 58.1168 37.4266 58.1168 37.1825Z" fill="white" stroke="black" stroke-width="1.00779" stroke-miterlimit="10"/>
<path d="M60.0108 40.1934C61.499 41.6851 61.499 44.072 60.0108 45.5367" stroke="black" stroke-width="1.00779" stroke-miterlimit="10" stroke-linecap="round"/>
<path d="M8.73733 38.1047C10.1443 36.6943 12.0654 36.1518 13.9053 36.423C13.8782 36.6671 13.8782 36.9384 13.8512 37.1825C13.8512 37.3995 13.8241 37.6436 13.8241 37.8606V48.3844C13.8241 49.1439 13.8512 49.8762 13.9323 50.6085C13.9594 50.8798 13.9864 51.151 14.0406 51.4222C12.7147 51.4222 11.3889 50.9069 10.3878 49.9033C9.57611 49.0896 9.08908 48.0861 8.95379 47.0283C8.92673 46.8655 8.87262 46.7299 8.73733 46.6214C6.41041 44.2888 6.41041 40.4373 8.73733 38.1047Z" fill="white" stroke="black" stroke-width="1.00779" stroke-miterlimit="10"/>
<path d="M11.9572 40.1934C10.469 41.6851 10.469 44.072 11.9572 45.5367" stroke="black" stroke-width="1.00779" stroke-miterlimit="10" stroke-linecap="round"/>
<path d="M46.5363 44.5874C45.0211 44.5874 43.7765 43.3397 43.7765 41.8208V40.4375C43.7765 38.9186 45.0211 37.6709 46.5363 37.6709C48.0515 37.6709 49.2961 38.9186 49.2961 40.4375V41.8208C49.2961 43.3668 48.0515 44.5874 46.5363 44.5874Z" fill="black"/>
<path d="M46.888 41.4955C47.4559 41.4955 47.9162 41.034 47.9162 40.4648C47.9162 39.8955 47.4559 39.4341 46.888 39.4341C46.3202 39.4341 45.8598 39.8955 45.8598 40.4648C45.8598 41.034 46.3202 41.4955 46.888 41.4955Z" fill="white"/>
<path d="M50.1349 35.4735H43.2082C42.6671 35.4735 42.2342 35.0395 42.2342 34.497V33.0053C42.2342 32.4628 42.6671 32.0288 43.2082 32.0288H50.1349C51.0819 32.0288 51.8395 32.8154 51.8395 33.7376C51.8665 34.6869 51.0819 35.4735 50.1349 35.4735Z" fill="black"/>
<path d="M41.206 31.8662C41.5037 31.8662 41.7201 32.1103 41.7201 32.3816V34.7955C41.7201 35.0939 41.4766 35.3109 41.206 35.3109C40.9084 35.3109 40.692 35.0668 40.692 34.7955V32.3816C40.692 32.0832 40.9355 31.8662 41.206 31.8662Z" fill="black"/>
<path d="M26.4598 44.5874C24.9446 44.5874 23.7 43.3397 23.7 41.8208V40.4375C23.7 38.9186 24.9446 37.6709 26.4598 37.6709C27.975 37.6709 29.2197 38.9186 29.2197 40.4375V41.8208C29.1926 43.3668 27.975 44.5874 26.4598 44.5874Z" fill="black"/>
<path d="M26.8115 41.4955C27.3793 41.4955 27.8397 41.034 27.8397 40.4648C27.8397 39.8955 27.3793 39.4341 26.8115 39.4341C26.2436 39.4341 25.7833 39.8955 25.7833 40.4648C25.7833 41.034 26.2436 41.4955 26.8115 41.4955Z" fill="white"/>
<path d="M22.8612 35.4735H29.7879C30.329 35.4735 30.762 35.0395 30.762 34.497V33.0053C30.762 32.4628 30.329 32.0288 29.7879 32.0288H22.8612C21.9142 32.0288 21.1566 32.8154 21.1566 33.7376C21.1296 34.6869 21.9142 35.4735 22.8612 35.4735Z" fill="black"/>
<path d="M31.7902 31.8662C31.4925 31.8662 31.2761 32.1103 31.2761 32.3816V34.7955C31.2761 35.0939 31.5196 35.3109 31.7902 35.3109C32.0878 35.3109 32.3042 35.0668 32.3042 34.7955V32.3816C32.3042 32.0832 32.0607 31.8662 31.7902 31.8662Z" fill="black"/>
<path d="M28.3538 57.6606C30.5184 58.2302 33.143 58.5557 35.984 58.5557C38.825 58.5557 41.4495 58.2302 43.6141 57.6606" stroke="black" stroke-width="1.00779" stroke-miterlimit="10" stroke-linecap="round"/>
<path d="M27.8126 49.1167L28.8678 48.52" stroke="black" stroke-width="1.03119" stroke-miterlimit="10" stroke-linecap="round" stroke-linejoin="round"/>
<path d="M24.0247 49.1167L25.0799 48.52" stroke="black" stroke-width="1.03119" stroke-miterlimit="10" stroke-linecap="round" stroke-linejoin="round"/>
<path d="M48.5927 49.1167L49.648 48.52" stroke="black" stroke-width="1.03119" stroke-miterlimit="10" stroke-linecap="round" stroke-linejoin="round"/>
<path d="M44.8046 49.1167L45.8599 48.52" stroke="black" stroke-width="1.03119" stroke-miterlimit="10" stroke-linecap="round" stroke-linejoin="round"/>
<path d="M31.736 7.45536C31.736 4.20056 34.117 1.54247 37.2286 1.08137C36.8498 1.02712 36.471 1 36.0922 1C32.8454 1 30.0043 2.81726 28.5703 5.5296C27.1092 4.39042 25.2693 3.68521 23.2941 3.68521C22.9153 3.68521 22.5365 3.71233 22.1577 3.76658C24.9717 4.20055 27.1904 6.42467 27.5963 9.27262C27.5963 9.38111 27.5963 9.4896 27.5963 9.57097C27.5963 9.76084 27.5963 9.92358 27.6233 10.0863H32.3583C31.9254 9.27262 31.736 8.40467 31.736 7.45536Z" fill="black"/>
<path d="M1.99998 57.9048V69.8391H13.9052" stroke="white" stroke-width="2.70903" stroke-miterlimit="10"/>
<path d="M13.9055 1.73242H2.00031V13.6667" stroke="white" stroke-width="2.70903" stroke-miterlimit="10"/>
<path d="M69.9678 13.6667V1.73242H58.0626" stroke="white" stroke-width="2.70903" stroke-miterlimit="10"/>
<path d="M58.0626 69.8391H69.9678V57.9048" stroke="white" stroke-width="2.70903" stroke-miterlimit="10"/>
</svg>
