<svg width="61" height="105" viewBox="0 0 61 105" fill="none" xmlns="http://www.w3.org/2000/svg">
<path d="M52.769 104.001H8.31142C4.32095 104.001 1.08037 100.799 1.08037 96.8571V8.22367C1.08037 4.28147 4.32095 1.08008 8.31142 1.08008H52.769C56.7594 1.08008 60 4.28147 60 8.22367V96.8571C60 100.799 56.7594 104.001 52.769 104.001Z" fill="#F9E011" stroke="black" stroke-width="0.780475" stroke-miterlimit="10"/>
<path d="M59.9197 10.5248H1V8.14359C1 4.20139 4.24058 1 8.23105 1H52.6886C56.6791 1 59.9197 4.20139 59.9197 8.14359V10.5248Z" fill="black"/>
<path d="M1 90.1362H59.9197V96.8565C59.9197 100.799 56.6791 104 52.6886 104H8.23105C4.24058 104 1 100.799 1 96.8565V90.1362Z" fill="black"/>
<path d="M26.4693 5.86816H34.5038" stroke="#F9E011" stroke-width="0.780475" stroke-miterlimit="10" stroke-linecap="round"/>
<path d="M33.4058 100.19C31.8525 101.724 29.335 101.724 27.7817 100.19C26.2283 98.6554 26.2283 96.1684 27.7817 94.6338C29.335 93.0993 31.8525 93.0993 33.4058 94.6338" stroke="#F9E011" stroke-width="0.780475" stroke-miterlimit="10" stroke-linecap="round"/>
<path d="M49.6622 77.1455L48.9926 67.5149C48.8051 64.7633 46.2073 62.5938 43.0739 62.5938H17.7384C14.605 62.5938 12.0071 64.7368 11.8197 67.5149L11.3108 77.1984C11.2305 78.9182 12.5963 80.3469 14.3371 80.3469H46.6358C48.4034 80.3469 49.7961 78.8653 49.6622 77.1455Z" fill="#F9E011" stroke="black" stroke-width="0.780475" stroke-miterlimit="10"/>
<path d="M29.3348 61.5091H31.3434C33.5663 61.5091 35.5749 60.636 37.1282 59.3131C37.2086 59.2337 37.2086 59.1014 37.1282 59.0485C35.5749 57.7256 33.5663 56.8525 31.3434 56.8525H29.3348C27.1119 56.8525 25.1033 57.7256 23.5499 59.0485C23.4696 59.1279 23.4696 59.2602 23.5499 59.3131C25.1033 60.636 27.1119 61.5091 29.3348 61.5091Z" fill="#F9E011" stroke="black" stroke-width="0.780475" stroke-miterlimit="10"/>
<path d="M30.3527 64.4192C27.5138 64.4192 25.2106 62.1438 25.2106 59.3393V52.9365H35.4948V59.3393C35.4948 62.1438 33.1916 64.4192 30.3527 64.4192Z" fill="#F9E011" stroke="black" stroke-width="0.780475" stroke-miterlimit="10"/>
<path d="M31.2631 61.2447H29.3884C27.353 61.2447 25.4783 60.451 24.0321 59.2074C23.6571 58.8899 23.0947 59.1545 23.0947 59.6308V62.1707C23.0947 66.1129 26.3353 69.3143 30.3258 69.3143C34.3162 69.3143 37.5568 66.1129 37.5568 62.1707V59.6308C37.5568 59.1545 36.9944 58.8899 36.6194 59.2074C35.2 60.451 33.3253 61.2447 31.2631 61.2447Z" fill="#F9E011" stroke="black" stroke-width="0.780475" stroke-miterlimit="10"/>
<path d="M45.1094 34.7338C45.2968 28.6221 39.3513 23.5686 31.9863 23.5686C30.5937 23.5686 29.2814 23.7538 28.0227 24.0978C28.1833 22.4839 29.4421 21.2139 31.0222 20.9758C30.808 20.9493 30.5937 20.9229 30.3794 20.9229C28.5851 20.9229 27.0317 21.9018 26.2283 23.3834C25.4248 22.7484 24.4071 22.378 23.3091 22.378C23.0948 22.378 22.8806 22.4045 22.6663 22.4309C23.9251 22.6161 24.9695 23.4628 25.4248 24.6005C19.7203 24.7592 15.221 29.4687 15.3549 35.1307L15.5156 41.507L19.2651 41.5334V41.6128L28.2369 41.5599L35.7626 41.6128V41.5334L44.8415 41.4805L45.1094 34.7338Z" fill="#F9E011" stroke="black" stroke-width="0.780475" stroke-miterlimit="10"/>
<path d="M42.3239 80.3468V71.457" stroke="black" stroke-width="0.780475" stroke-miterlimit="10" stroke-linecap="round"/>
<path d="M18.7294 80.3468V71.457" stroke="black" stroke-width="0.780475" stroke-miterlimit="10" stroke-linecap="round"/>
<path d="M45.3235 41.0835C44.5468 40.3163 43.5023 40.0252 42.4846 40.184C42.4846 40.3163 42.5114 40.4485 42.5114 40.6073C42.5114 40.7396 42.5114 40.8454 42.5114 40.9777V46.6661C42.5114 47.063 42.4846 47.4863 42.4579 47.8832C42.4311 48.0419 42.4311 48.1742 42.4043 48.333C43.1274 48.333 43.8773 48.0684 44.4129 47.5128C44.8682 47.063 45.1092 46.5338 45.2164 45.9518C45.2164 45.8724 45.2699 45.793 45.3235 45.7136C46.609 44.4172 46.609 42.3535 45.3235 41.0835Z" fill="#F9E011" stroke="black" stroke-width="0.780475" stroke-miterlimit="10"/>
<path d="M42.5114 40.5812C42.2972 35.1045 37.7175 30.686 32.1202 30.686H28.5314C22.8269 30.686 18.1401 35.3161 18.1401 40.9516V46.6401C18.1401 53.2545 23.6304 58.6783 30.3258 58.6783C36.6195 58.6783 41.8151 53.9159 42.4579 47.8571C42.5115 47.4602 42.5114 47.0634 42.5114 46.6401V40.9516C42.5114 40.8194 42.5114 40.7135 42.5114 40.5812Z" fill="#F9E011" stroke="black" stroke-width="0.780475" stroke-miterlimit="10"/>
<path d="M15.3549 41.0835C16.1315 40.3163 17.176 40.0252 18.1937 40.184C18.1937 40.3163 18.1669 40.4485 18.1669 40.6073C18.1669 40.7396 18.1669 40.8454 18.1669 40.9777V46.6661C18.1669 47.063 18.1937 47.4863 18.2205 47.8832C18.2473 48.0419 18.2473 48.1742 18.2741 48.333C17.551 48.333 16.8011 48.0684 16.2654 47.5128C15.8101 47.063 15.5691 46.5338 15.462 45.9518C15.462 45.8724 15.4084 45.793 15.3549 45.7136C14.0693 44.4172 14.0693 42.3535 15.3549 41.0835Z" fill="#F9E011" stroke="black" stroke-width="0.780475" stroke-miterlimit="10"/>
<path d="M49.6087 85.4267H11.3913C8.52565 85.4267 6.19565 83.1249 6.19565 80.2939C6.19565 77.463 8.52565 75.1611 11.3913 75.1611H49.6087C52.4744 75.1611 54.8044 77.463 54.8044 80.2939C54.8044 83.1249 52.4744 85.4267 49.6087 85.4267Z" fill="white" stroke="black" stroke-width="0.780475" stroke-miterlimit="10"/>
</svg>
