<?xml version="1.0" encoding="utf-8"?>
<!-- Generator: Adobe Illustrator 22.0.1, SVG Export Plug-In . SVG Version: 6.00 Build 0)  -->
<svg version="1.1" id="Layer_1" xmlns="http://www.w3.org/2000/svg" xmlns:xlink="http://www.w3.org/1999/xlink" x="0px" y="0px"
	 width="730px" height="207px" viewBox="0 0 730 207" style="enable-background:new 0 0 730 207;" xml:space="preserve">
<style type="text/css">
	.st0{fill:none;stroke:#F9DF12;stroke-width:3;stroke-miterlimit:10;}
	.st1{fill:none;stroke:#FFFFFF;stroke-width:3;stroke-miterlimit:10;}
	.st2{fill:none;stroke:#FFFFFF;stroke-width:3;}
	.st3{fill:none;stroke:#F9DF12;stroke-width:3;}
	.st4{fill:#F2F1F5;}
</style>
<polyline class="st0" points="350.5,101 366.3,117.7 370,137.9 "/>
<polyline class="st0" points="367.3,101 351.5,117.7 347.9,137.9 "/>
<path class="st1" d="M375.9,75.5c0,1.2,0,7.7,0,7.5c0-0.1-16.9,12.7-16.9,12.7l20.5,13l0.8-23.8c0,0,26.3,6,30.5,8.8
	c11.5,7.8,7.5,31.6,9,43.6"/>
<path class="st1" d="M342.1,75.5V83c0-0.1,16.9,12.7,16.9,12.7l-20.5,13L337.7,85c0,0-26.3,6-30.5,8.8c-11.5,7.8-7.5,31.6-9,43.6"/>
<path class="st1" d="M334.5,58.5c-1.5,0.4-2.5-0.3-3.1-1.5c-2.5-4.8-4.1-10-3.8-15.5c0.1-2.3,0.9-2.9,3.9-3.3
	c-2.2-11.9-2.2-23.2,9.2-31.2c-1.6-2.5-1.7-2.5-2.5-5.3c7.9,0.5,15.5,1.2,23.5,0c6.4-0.9,12.9,2.9,15.6,8.8c0.2,0.5,0.7,1.1,1.1,1.1
	c5.9,0.5,9.2,5.3,9.7,11.4c0.5,4.9-0.2,9.7-1.3,14.4c0,0.3,0,0.6,0,0.8c3.3,0.7,3.9,1.3,3.8,4.8c-0.1,4.7-1.5,9.2-3.6,13.4
	c-0.7,1.4-1.6,2.7-3.7,1.9C377.1,89.4,340.5,89,334.5,58.5z"/>
<rect x="206.5" y="138.5" class="st2" width="307" height="10"/>
<polyline class="st2" points="492.5,207 492.5,148.5 225.5,148.5 225.5,207 "/>
<line class="st3" x1="246.1" y1="173.4" x2="278.8" y2="173.4"/>
<line class="st3" x1="246.1" y1="181.3" x2="278.8" y2="181.3"/>
<line class="st3" x1="246.1" y1="189.2" x2="267.1" y2="189.2"/>
<circle class="st2" cx="493" cy="59" r="32.5"/>
<polyline class="st2" points="492.3,38.6 492.3,59.7 513.4,59.7 "/>
<line class="st2" x1="493" y1="74.3" x2="493" y2="79.4"/>
<line class="st2" x1="477.7" y1="59" x2="472.6" y2="59"/>
<path class="st2" d="M88,90.3v85.3h64v-71c-4.8-4.8-9.6-9.6-14.3-14.3H88z"/>
<polyline class="st2" points="133.9,89.2 133.9,107 133.9,108.5 135.4,108.5 153.1,108.5 "/>
<line class="st2" x1="98.7" y1="132.7" x2="141.3" y2="132.7"/>
<line class="st2" x1="98.7" y1="142.4" x2="141.3" y2="142.4"/>
<line class="st2" x1="98.7" y1="152.2" x2="126.1" y2="152.2"/>
<path class="st2" d="M1.5,50.5v43.1h32V57.6c-2.4-2.4-4.7-4.7-7.1-7.1H1.5z"/>
<polyline class="st2" points="25.9,49.2 25.9,56.6 25.9,58.1 27.4,58.1 34.8,58.1 "/>
<line class="st2" x1="6.4" y1="71.6" x2="28.6" y2="71.6"/>
<line class="st2" x1="6.4" y1="76.5" x2="28.6" y2="76.5"/>
<line class="st2" x1="6.4" y1="81.4" x2="20.7" y2="81.4"/>
<path class="st2" d="M696.5,50.5v43.1h32V57.6c-2.4-2.4-4.7-4.7-7.1-7.1H696.5z"/>
<polyline class="st2" points="721,49.2 721,56.6 721,58.1 722.5,58.1 729.8,58.1 "/>
<line class="st2" x1="701.4" y1="71.6" x2="723.6" y2="71.6"/>
<line class="st2" x1="701.4" y1="76.5" x2="723.6" y2="76.5"/>
<line class="st2" x1="701.4" y1="81.4" x2="715.7" y2="81.4"/>
<path class="st2" d="M232,35.4v43.1h32V42.5c-2.4-2.4-4.7-4.7-7.1-7.1H232z"/>
<polyline class="st2" points="256.4,34.1 256.4,41.5 256.4,43 257.9,43 265.3,43 "/>
<line class="st2" x1="236.9" y1="56.6" x2="259.1" y2="56.6"/>
<line class="st2" x1="236.9" y1="61.5" x2="259.1" y2="61.5"/>
<line class="st2" x1="236.9" y1="66.3" x2="251.2" y2="66.3"/>
<rect x="585.5" y="100.5" class="st2" width="53.9" height="67"/>
<path class="st2" d="M619.8,94.6c0-4.1-3.3-7.3-7.4-7.3c-4.1,0-7.4,3.3-7.4,7.3"/>
<line class="st2" x1="590.6" y1="95.2" x2="634.3" y2="95.2"/>
<path class="st4" d="M632.2,158.7c12.4,0,22.6-10.1,22.6-22.6s-10.1-22.6-22.6-22.6c-12.4,0-22.6,10.1-22.6,22.6
	S619.7,158.7,632.2,158.7"/>
<ellipse transform="matrix(0.8369 -0.5473 0.5473 0.8369 28.5619 368.2209)" class="st2" cx="632.2" cy="136.2" rx="22.6" ry="22.6"/>
<polyline class="st2" points="619.3,132 630.9,141.6 632,142.5 633,141.5 656.2,117.5 "/>
<line class="st2" x1="595" y1="118.6" x2="616.9" y2="118.6"/>
<line class="st2" x1="595" y1="127.5" x2="610.1" y2="127.5"/>
<line class="st2" x1="595" y1="136.4" x2="608.5" y2="136.4"/>
<line class="st2" x1="595" y1="145.4" x2="610.7" y2="145.4"/>
</svg>
